<?xml version="1.0" standalone="no"?>
<!DOCTYPE svg PUBLIC "-//W3C//DTD SVG 20010904//EN"
 "http://www.w3.org/TR/2001/REC-SVG-20010904/DTD/svg10.dtd">
<svg version="1.0" xmlns="http://www.w3.org/2000/svg"
 width="638.000000pt" height="1200.000000pt" viewBox="0 0 638.000000 1200.000000"
 preserveAspectRatio="xMidYMid meet">

<g transform="translate(0.000000,1200.000000) scale(0.100000,-0.100000)"
fill="#000000" stroke="none">
<path d="M6375 6000 c0 -3303 1 -4654 2 -3002 2 1651 2 4353 0 6005 -1 1651
-2 300 -2 -3003z"/>
<path d="M3340 11978 c-24 -9 -56 -71 -76 -147 l-15 -60 42 -98 c22 -54 47
-105 54 -113 8 -8 19 -54 26 -102 11 -76 11 -94 -4 -148 -10 -34 -29 -77 -42
-95 -14 -17 -22 -35 -17 -39 4 -4 7 -74 7 -154 0 -81 4 -173 9 -204 6 -42 5
-62 -3 -72 -14 -16 -6 -56 10 -56 6 0 7 9 4 21 -5 15 -4 19 4 15 14 -9 32 37
34 82 1 29 17 48 17 19 0 -6 13 -18 30 -25 24 -11 28 -17 20 -31 -5 -10 -6
-21 -3 -25 3 -3 -8 -6 -26 -6 -24 0 -34 -5 -38 -20 -3 -11 -9 -20 -14 -20 -5
0 -9 -7 -9 -15 0 -26 21 -16 33 15 15 38 24 38 40 -2 15 -37 19 -31 32 45 12
73 30 34 52 -119 12 -82 22 -156 23 -166 0 -27 -35 -10 -80 38 -35 37 -44 42
-61 34 -10 -6 -19 -15 -19 -20 0 -6 -7 -10 -15 -10 -9 0 -15 -9 -15 -23 0 -42
-67 -76 -87 -44 -4 7 -17 20 -28 28 -11 8 -21 22 -21 32 -2 25 11 21 24 -8 8
-17 20 -25 37 -25 l26 0 -21 30 c-12 17 -28 30 -35 30 -9 0 -12 6 -9 15 5 11
-1 15 -21 15 -23 0 -25 2 -15 14 6 8 18 12 26 9 8 -3 24 3 34 12 24 21 26 40
5 31 -8 -3 -23 -9 -32 -12 -17 -5 -17 -5 0 9 24 20 31 111 10 129 -11 9 -16 9
-23 -2 -7 -11 -14 -9 -34 11 -14 13 -26 28 -26 32 0 5 7 1 16 -7 8 -9 22 -16
31 -16 12 0 14 8 10 34 -3 18 -1 38 4 43 11 11 -47 27 -62 17 -14 -8 -10 19 6
40 20 27 20 60 0 52 -8 -3 -22 -9 -30 -12 -11 -4 -15 1 -15 18 0 31 18 49 39
39 9 -5 28 -11 44 -15 23 -5 27 -3 27 14 0 18 -4 20 -35 14 -30 -5 -36 -3 -44
17 -6 13 -10 17 -11 9 0 -8 -18 -28 -40 -43 l-40 -28 6 30 c9 41 -2 67 -20 52
-11 -9 -15 -9 -19 1 -4 10 -7 11 -18 1 -19 -19 -29 -16 -29 7 0 13 7 20 19 20
11 0 23 5 26 10 3 6 -1 10 -9 10 -10 0 -16 9 -16 26 l0 25 -29 -20 c-16 -12
-31 -21 -34 -21 -11 0 -28 71 -22 90 4 11 2 20 -4 20 -6 0 -11 -4 -11 -9 0 -4
-16 -29 -36 -56 -39 -50 -55 -48 -49 7 5 38 -8 35 -31 -7 -10 -19 -21 -35 -25
-35 -8 0 -19 38 -19 68 0 23 0 23 -25 5 -13 -10 -29 -33 -35 -50 -14 -39 -23
-41 -38 -10 -10 20 -11 19 -11 -15 -1 -36 8 -42 37 -25 15 10 15 5 1 -26 l-11
-24 -24 24 c-30 30 -44 56 -44 82 0 32 -18 25 -37 -14 -19 -39 -32 -45 -40
-15 -7 26 -23 15 -23 -16 0 -30 30 -32 70 -4 l28 20 5 -29 c4 -17 14 -31 24
-33 16 -3 15 -6 -7 -28 l-25 -25 -5 38 -5 38 -19 -35 c-18 -35 -36 -47 -36
-26 0 6 -4 10 -10 10 -5 0 -10 -13 -10 -30 0 -16 -5 -30 -11 -30 -6 0 -8 9 -4
20 4 14 0 28 -14 43 -12 12 -27 31 -35 42 -14 19 -15 19 -21 -10 -13 -60 -16
-62 -34 -26 -18 33 -18 33 -24 10 -4 -13 -7 -36 -7 -51 0 -18 -7 -29 -21 -33
-19 -6 -20 -8 -3 -26 26 -28 34 -23 34 20 0 52 14 59 34 17 20 -42 20 -52 2
-37 -11 9 -17 2 -31 -36 -11 -28 -20 -41 -23 -33 -3 8 -10 21 -16 29 -9 11
-12 9 -17 -15 -5 -20 -7 -10 -9 36 -2 92 -18 124 -19 40 -1 -41 -5 -60 -10
-51 -17 26 -30 1 -26 -47 4 -38 2 -44 -8 -32 -13 16 -32 23 -59 22 -10 0 -23
8 -29 19 -20 39 -19 12 2 -35 22 -50 20 -67 -6 -46 -18 15 -18 16 0 -42 17
-59 6 -62 -41 -12 -40 41 -42 38 -13 -19 22 -42 41 -97 34 -97 -2 0 -16 11
-31 25 -15 14 -29 23 -31 21 -7 -6 37 -87 64 -120 33 -39 20 -46 -18 -10 -35
32 -35 28 1 -33 13 -23 39 -48 57 -57 32 -15 32 -15 18 -50 -20 -47 -10 -118
22 -154 l24 -27 -11 28 c-23 64 -7 76 28 19 17 -26 22 -31 18 -14 -6 30 15 24
31 -9 6 -13 26 -38 44 -54 l33 -30 -17 27 c-10 16 -17 48 -17 78 0 46 4 54 36
84 35 32 35 33 14 39 -14 4 -20 12 -18 24 2 10 -3 24 -12 31 -13 12 -12 13 8
9 27 -6 29 4 2 20 -25 16 -35 70 -19 108 l11 30 10 -28 c10 -27 11 -27 29 -11
25 23 24 3 -1 -24 -22 -23 -12 -29 20 -12 18 10 19 8 13 -21 -6 -31 -5 -32 26
-27 21 3 30 1 27 -7 -3 -8 12 -11 45 -9 27 1 49 -2 49 -7 0 -5 9 -9 20 -9 11
0 19 -3 18 -7 -4 -19 27 -64 41 -61 17 4 18 55 1 72 -5 5 -6 15 -3 22 3 9 -3
14 -18 15 l-24 0 25 10 c15 6 20 13 14 17 -12 7 -15 42 -4 42 3 0 11 -5 17
-11 7 -7 12 4 16 38 7 61 24 106 37 98 6 -4 22 -29 36 -57 15 -29 32 -58 40
-66 16 -16 18 -41 4 -62 -8 -12 -10 -9 -10 12 0 15 -5 30 -11 34 -9 5 -10 -1
-4 -22 16 -53 0 -184 -23 -192 -15 -5 -16 55 -1 95 12 33 3 93 -14 93 -7 0
-13 15 -14 35 -1 19 3 35 8 35 5 0 9 -4 9 -9 0 -5 6 -11 14 -14 9 -4 7 7 -8
34 -19 34 -45 52 -47 32 -10 -137 -10 -151 7 -168 14 -13 15 -21 6 -35 -7 -12
-7 -21 0 -28 9 -9 15 -39 17 -89 1 -16 31 -21 57 -10 11 5 33 27 48 50 25 40
26 43 9 56 -17 13 -17 13 0 7 10 -3 21 -6 23 -6 2 0 4 -9 4 -19 0 -11 5 -23
10 -26 6 -3 10 -11 10 -16 0 -6 -4 -8 -9 -4 -5 3 -13 0 -16 -6 -5 -7 0 -10 11
-7 13 2 22 17 28 46 10 49 22 54 37 15 5 -16 13 -35 16 -43 10 -24 11 -50 1
-44 -9 6 -47 -34 -48 -50 0 -5 11 1 25 14 14 13 28 20 31 17 10 -10 33 25 34
50 0 39 19 35 31 -7 12 -41 13 -41 25 -18 8 13 13 34 14 48 0 22 1 23 16 8 15
-14 15 -18 -1 -42 -27 -41 -95 -86 -130 -86 -41 0 -59 -17 -39 -37 13 -13 10
-17 -21 -34 -47 -25 -56 -24 -24 4 23 20 25 27 21 85 -2 42 -8 62 -15 59 -15
-5 -16 -66 -2 -90 13 -23 -16 -46 -59 -48 -17 -1 -42 -2 -56 -3 -22 -1 -28
-10 -52 -80 -14 -44 -33 -85 -42 -92 -9 -6 -16 -16 -16 -23 0 -35 -27 -91 -51
-105 -42 -25 -52 -21 -46 19 6 35 -8 49 -19 20 -4 -8 -10 -15 -16 -15 -5 0 -6
4 -3 10 6 10 -9 44 -29 65 -13 15 -46 7 -46 -10 0 -17 -33 -25 -54 -13 -22 12
-12 74 17 105 l20 22 29 -40 c37 -51 48 -45 15 8 -15 23 -28 61 -32 95 -3 31
-13 62 -20 68 -12 10 -11 15 5 33 11 11 20 24 20 29 0 15 -19 8 -34 -13 -9
-13 -19 -18 -27 -13 -9 5 -10 2 -6 -10 4 -10 7 -31 7 -47 0 -19 5 -29 15 -29
18 0 38 -46 30 -67 -9 -24 -39 -10 -46 22 -5 21 -7 8 -8 -38 0 -38 -5 -76 -11
-86 -18 -35 11 -56 77 -56 48 0 58 -3 57 -17 -1 -9 16 -29 37 -45 23 -17 39
-36 39 -49 0 -42 -21 -82 -50 -94 -22 -9 -30 -20 -35 -49 -3 -21 -22 -73 -40
-116 -19 -43 -32 -81 -30 -83 3 -3 30 0 60 7 78 18 113 8 132 -37 8 -21 22
-41 30 -45 10 -6 12 -19 8 -44 -7 -44 -18 -66 -62 -114 -39 -43 -28 -55 13
-14 26 26 44 34 26 13 -5 -7 -13 -34 -16 -61 -4 -26 -11 -45 -16 -42 -22 13
-36 -170 -20 -250 20 -93 24 -159 11 -150 -8 5 -10 -2 -6 -22 l6 -28 -16 30
c-15 30 -15 30 -10 -25 3 -30 10 -70 16 -88 6 -18 8 -38 6 -45 -3 -6 -6 -3 -6
8 -1 11 -8 30 -16 41 -21 31 -41 121 -44 197 0 23 -5 36 -11 32 -6 -4 -8 -11
-4 -16 3 -6 -2 -9 -12 -7 -25 4 -37 -50 -31 -145 3 -42 1 -80 -4 -83 -5 -3 -9
-39 -9 -80 0 -53 -3 -73 -11 -68 -12 7 -8 -57 6 -106 5 -19 4 -22 -4 -10 -9
13 -11 12 -11 -4 0 -11 4 -33 9 -50 17 -56 38 -146 35 -146 -2 0 -11 18 -20
40 -25 62 -27 42 -4 -36 11 -38 27 -92 35 -120 20 -69 18 -80 -5 -19 -77 211
-123 405 -99 421 5 3 7 9 5 13 -3 4 -1 65 5 135 9 120 12 132 50 209 38 75 76
219 104 392 10 61 -24 -44 -50 -155 -22 -89 -30 -109 -49 -118 -40 -18 -96
-73 -118 -116 -11 -23 -64 -86 -118 -141 -53 -55 -97 -107 -98 -115 -3 -31
-62 -302 -78 -356 -9 -30 -14 -58 -11 -60 3 -3 13 21 22 53 9 32 23 75 31 97
8 21 21 70 28 110 20 103 48 168 96 225 24 28 47 51 52 51 13 0 10 -45 -6 -87
-8 -21 -17 -51 -21 -68 l-6 -30 19 30 c23 38 44 97 72 200 27 96 37 112 96
154 50 37 64 37 36 0 -11 -13 -29 -44 -42 -69 -12 -25 -26 -47 -30 -50 -12 -9
-38 -64 -48 -105 -9 -32 -24 -181 -24 -230 0 -5 1 -30 1 -55 1 -25 0 -58 0
-75 -2 -34 8 -98 21 -135 5 -14 11 -36 14 -50 2 -14 7 -38 10 -55 6 -26 4 -25
-13 10 -24 47 -22 21 3 -64 20 -67 20 -72 1 -65 -11 4 -15 -1 -15 -17 -1 -24
-1 -24 -15 3 -8 14 -20 71 -26 125 -12 107 -27 163 -28 106 -1 -18 -5 -33 -11
-33 -5 0 -7 7 -4 15 4 8 1 15 -5 15 -8 0 -10 -12 -7 -32 3 -18 8 -64 11 -103
3 -38 10 -99 16 -135 6 -36 12 -99 14 -140 3 -41 9 -95 15 -120 12 -50 16 -75
65 -390 4 -26 7 -42 23 -122 7 -36 6 -48 -4 -52 -7 -3 -15 2 -18 10 -8 22 -7
26 4 19 5 -3 10 3 10 13 0 11 -7 23 -16 26 -10 4 -14 14 -11 26 3 11 2 22 -3
25 -4 2 -10 32 -14 66 -4 33 -11 71 -16 83 -4 13 -11 43 -13 67 -3 24 -17 109
-31 189 -14 79 -26 146 -26 148 0 2 -4 1 -9 -2 -5 -3 -11 1 -14 9 -4 10 -1 12
11 9 15 -5 15 -4 0 9 -10 8 -18 20 -18 28 0 11 -2 11 -10 -1 -10 -16 -12 -5
-16 115 -2 74 20 441 32 510 l5 30 -14 -25 c-8 -14 -18 -63 -21 -110 -4 -47
-10 -114 -14 -150 -9 -85 -8 -359 1 -430 4 -30 10 -80 13 -110 4 -30 8 -57 10
-59 2 -2 -1 -10 -7 -18 -8 -9 -8 -17 -2 -25 24 -31 31 -220 16 -439 -12 -189
0 -629 19 -640 13 -8 6 -108 -16 -254 -22 -141 -22 -221 0 -263 16 -32 22 -19
29 73 5 68 10 104 21 148 1 4 2 21 3 37 0 17 5 30 11 30 5 0 8 -6 5 -12 -2 -7
-6 -42 -10 -78 -3 -36 -8 -78 -10 -95 -13 -85 -14 -105 -6 -105 4 0 4 -24 0
-52 -5 -29 -11 -66 -13 -83 -2 -16 -14 -82 -25 -145 -12 -63 -24 -149 -26
-190 -3 -41 -7 -90 -9 -107 -3 -18 0 -35 5 -39 5 -3 7 -9 4 -14 -3 -4 -7 -25
-10 -46 -6 -39 -12 -77 -20 -124 -3 -14 -7 -53 -10 -88 -2 -35 -7 -67 -10 -71
-3 -5 -8 -33 -11 -63 -3 -29 -12 -87 -20 -128 -18 -95 -25 -180 -14 -180 4 0
17 48 28 108 12 59 23 118 26 132 13 57 28 136 29 147 0 7 4 10 9 7 5 -3 7
-13 4 -22 -3 -10 -7 -39 -11 -66 -3 -27 -9 -54 -12 -59 -3 -5 -7 -28 -8 -51
-4 -50 -43 -215 -57 -236 -7 -12 -8 -10 -5 8 3 12 1 22 -4 22 -5 0 -10 -6 -10
-12 -1 -7 -3 -29 -5 -48 l-3 -35 14 25 15 25 -6 -30 c-3 -16 -11 -48 -16 -70
-13 -53 -17 -72 -24 -125 -3 -25 -10 -61 -17 -80 -6 -19 -10 -38 -9 -42 1 -4
-3 -20 -9 -35 -6 -15 -12 -37 -14 -48 -1 -11 -13 -54 -25 -95 -13 -41 -23 -78
-22 -82 1 -4 -3 -20 -9 -35 -12 -32 -17 -54 -24 -101 -2 -18 -7 -37 -11 -43
-3 -6 -8 -23 -9 -37 -2 -15 -8 -45 -14 -67 -20 -81 -27 -127 -47 -345 -4 -41
-7 -90 -8 -107 -1 -18 -3 -33 -6 -33 -9 0 -3 -184 15 -450 3 -52 17 -112 23
-105 3 3 5 31 3 63 -1 35 2 52 7 44 9 -13 8 -249 -1 -332 -7 -60 -17 -111 -24
-123 -3 -5 -7 -25 -9 -44 -2 -19 -8 -50 -14 -69 -6 -19 -9 -43 -5 -54 3 -11 3
-25 -2 -32 -4 -7 -8 -17 -10 -23 -12 -62 -24 -109 -37 -155 -9 -30 -19 -68
-22 -85 -3 -16 -11 -39 -17 -50 -6 -11 -10 -24 -9 -29 5 -17 -10 -46 -20 -40
-6 4 -8 2 -4 -4 6 -10 -40 -119 -55 -132 -3 -3 -14 -22 -24 -42 -9 -21 -22
-38 -27 -38 -5 0 -7 -4 -4 -9 3 -5 -1 -12 -10 -15 -8 -3 -12 -10 -9 -16 3 -5
1 -10 -5 -10 -6 0 -9 -4 -5 -9 3 -6 -3 -14 -12 -20 -10 -6 -15 -11 -11 -11 4
0 -7 -24 -25 -53 -19 -28 -37 -60 -40 -70 -4 -10 -11 -16 -16 -13 -5 3 -7 -3
-4 -13 3 -13 -2 -21 -16 -26 -12 -3 -19 -10 -16 -15 3 -5 2 -10 -3 -12 -4 -1
-23 -30 -41 -63 -19 -33 -40 -64 -48 -68 -7 -5 -11 -12 -8 -18 4 -5 2 -9 -4
-9 -6 0 -8 -7 -5 -15 4 -8 1 -15 -6 -15 -6 0 -9 -4 -5 -10 3 -5 -3 -18 -14
-29 -11 -11 -17 -22 -13 -25 3 -3 0 -6 -6 -6 -7 0 -11 -3 -10 -7 6 -19 -40
-76 -70 -89 -18 -7 -31 -18 -28 -23 3 -5 -1 -12 -9 -15 -20 -7 -6 20 46 89 21
27 47 61 57 75 20 26 24 33 170 304 51 94 95 172 99 175 5 3 10 15 11 26 2 11
9 23 15 27 7 4 9 8 5 8 -4 0 6 24 23 52 17 29 32 63 33 75 0 11 4 19 7 17 4
-2 10 3 13 12 3 8 2 12 -4 9 -6 -3 -10 -1 -10 4 0 6 5 11 10 11 6 0 9 3 8 8
-1 4 4 18 10 32 30 68 123 328 137 380 24 96 35 175 26 178 -6 2 -8 9 -4 15 4
7 0 8 -11 4 -15 -6 -17 -3 -13 15 30 118 38 323 20 518 -10 113 -9 476 1 575
8 75 15 133 21 165 2 14 7 48 10 75 5 47 18 126 30 185 3 14 8 48 11 75 3 28
15 97 26 155 11 58 20 112 20 120 0 8 9 62 20 120 11 58 20 112 20 120 0 8 4
33 9 55 13 64 17 89 24 151 4 33 9 70 11 84 2 14 6 45 10 70 3 25 9 59 14 75
5 17 12 53 16 80 3 28 8 59 11 70 2 11 13 67 23 125 11 58 24 123 30 145 6 22
13 49 15 60 1 11 8 47 14 80 18 90 33 526 21 613 -4 29 -3 55 1 58 5 3 8 15 8
27 0 12 3 76 7 142 12 188 5 484 -13 580 -8 39 -8 42 3 230 16 280 8 527 -25
845 -16 145 -20 284 -11 327 5 20 7 39 4 42 -8 8 -17 -8 -20 -36 -10 -100 -17
-151 -21 -168 -16 -69 -19 -105 -17 -235 2 -90 11 -193 23 -268 19 -111 21
-161 19 -544 -1 -236 -5 -426 -10 -429 -5 -3 -11 -53 -14 -110 -6 -116 -9
-133 -24 -124 -6 4 -10 -12 -11 -42 -1 -64 -8 -105 -21 -120 -5 -7 -12 -34
-15 -60 -2 -26 -11 -75 -20 -108 -8 -33 -17 -73 -19 -90 -3 -31 -13 -102 -19
-145 -2 -14 -8 -50 -15 -80 -10 -51 -38 -262 -46 -355 -1 -22 -4 -85 -5 -140
-1 -55 -6 -111 -10 -125 -12 -38 -19 -120 -9 -120 4 0 11 12 14 26 12 47 16
19 6 -37 -5 -30 -12 -80 -14 -111 -2 -31 -6 -60 -9 -65 -3 -4 -8 -33 -11 -63
-3 -30 -8 -66 -10 -80 -12 -70 -28 -315 -30 -462 0 -54 -4 -98 -8 -98 -4 0 -5
-7 -2 -15 4 -8 1 -15 -4 -15 -11 0 -8 92 3 110 3 6 2 10 -3 10 -11 0 -20 -29
-33 -110 -13 -76 -17 -100 -25 -135 -3 -16 -7 -40 -7 -52 -1 -13 -5 -23 -9
-23 -3 0 -5 -8 -4 -17 2 -10 -5 -37 -15 -60 -10 -23 -21 -61 -24 -85 -4 -24
-11 -48 -17 -55 -5 -7 -8 -18 -6 -25 2 -6 -4 -20 -14 -30 -10 -10 -16 -23 -13
-28 4 -6 1 -10 -4 -10 -6 0 -10 -3 -9 -7 3 -10 -28 -116 -48 -163 -8 -19 -15
-38 -15 -42 1 -5 -7 -23 -17 -40 -11 -18 -22 -46 -26 -61 -4 -17 -11 -25 -18
-21 -6 4 -9 3 -5 -2 7 -12 -39 -148 -51 -152 -6 -2 -8 -13 -5 -25 4 -17 2 -19
-5 -8 -8 11 -20 -4 -51 -65 -56 -111 -86 -156 -96 -147 -4 4 -5 3 -1 -4 6 -11
-10 -51 -26 -63 -4 -3 -12 -17 -17 -30 -6 -14 -15 -32 -20 -40 -68 -109 -150
-251 -158 -275 -6 -16 -15 -39 -19 -50 -4 -11 -6 -23 -6 -28 1 -4 -3 -7 -9 -7
-5 0 -8 -4 -5 -8 3 -5 -7 -26 -22 -48 -14 -21 -25 -40 -24 -41 6 -7 1 -23 -11
-35 -10 -11 -40 -68 -38 -75 0 -2 -11 -27 -24 -58 -14 -30 -23 -55 -20 -55 3
0 -2 -17 -10 -37 -8 -21 -16 -47 -18 -58 -4 -25 -41 -109 -90 -203 -21 -41
-36 -80 -33 -88 3 -8 2 -12 -3 -9 -6 3 -21 -14 -35 -37 -14 -24 -26 -38 -26
-33 0 10 -50 -43 -50 -54 0 -3 -12 -19 -28 -36 -15 -16 -40 -47 -55 -68 -56
-75 -201 -218 -235 -233 -40 -16 -37 -17 -46 18 -5 24 0 31 59 70 35 24 84 65
107 92 24 26 75 82 115 122 40 41 87 96 105 122 42 61 139 252 133 262 -3 4
14 56 36 116 23 59 43 117 45 128 2 12 17 53 33 91 16 39 41 104 56 145 16 41
32 77 35 80 4 3 25 37 45 75 21 39 58 98 82 133 60 87 127 209 175 322 22 52
55 127 73 165 91 196 231 565 259 685 2 8 11 44 21 79 31 120 10 95 -29 -34
-57 -192 -185 -525 -281 -730 -180 -388 -234 -495 -248 -495 -14 0 -69 -85
-117 -180 -19 -37 -130 -347 -175 -485 -44 -137 -145 -341 -199 -398 -24 -26
-47 -47 -52 -47 -5 0 -38 -36 -73 -80 -89 -110 -187 -190 -235 -190 -9 0 -36
-10 -60 -22 -45 -21 -52 -38 -16 -38 10 0 23 -7 28 -16 9 -17 25 -20 95 -23
22 0 37 -6 37 -13 0 -20 -158 -142 -217 -169 -29 -13 -53 -27 -53 -30 0 -4 18
-23 40 -43 22 -20 40 -41 40 -48 0 -9 3 -9 12 0 17 17 33 15 19 -2 -20 -24 5
-27 54 -6 53 23 55 23 75 10 12 -7 12 -12 -4 -29 -11 -12 -15 -21 -11 -21 4 0
-6 -14 -23 -30 -18 -17 -37 -30 -43 -30 -7 0 -1 -9 12 -21 13 -11 32 -18 42
-15 13 3 17 0 13 -10 -3 -9 1 -14 14 -14 11 0 19 -6 18 -12 -5 -21 54 -22 69
-2 9 13 13 14 13 4 0 -12 2 -12 14 0 25 27 67 108 57 112 -5 2 -3 16 5 33 8
18 12 21 8 8 -3 -13 -1 -23 4 -23 6 0 12 10 16 23 3 13 17 41 32 63 15 21 39
63 55 94 32 62 39 53 10 -13 -10 -23 -24 -58 -31 -77 -7 -19 -24 -45 -38 -57
-32 -27 -25 -37 13 -23 22 8 30 8 36 -2 5 -7 4 -15 -1 -16 -12 -4 -13 -42 -2
-42 5 0 26 18 48 40 46 48 83 70 118 70 24 0 24 1 10 28 -18 35 -18 52 1 52 8
0 15 7 15 15 0 31 83 40 101 12 4 -5 -2 -31 -12 -58 -11 -27 -19 -54 -19 -60
0 -6 30 -9 81 -8 65 2 83 -1 90 -13 6 -10 4 -20 -6 -28 -8 -7 -15 -25 -15 -40
0 -21 -11 -37 -45 -64 -26 -22 -45 -46 -45 -58 0 -18 4 -19 43 -13 60 9 109
25 129 42 9 8 30 17 47 19 41 7 75 -28 85 -84 3 -23 11 -42 16 -42 28 0 84 34
170 104 122 100 140 100 155 5 l10 -66 66 19 c56 17 78 32 158 104 65 58 101
84 118 84 22 0 24 3 19 23 -15 46 -12 51 34 59 42 8 67 7 180 -10 44 -7 45 -8
48 -47 5 -54 -54 -178 -80 -172 -11 3 -40 -12 -75 -39 -62 -48 -71 -51 -79
-29 -9 23 -27 18 -75 -20 -29 -23 -54 -35 -74 -34 -46 1 -270 -73 -360 -119
-85 -43 -162 -119 -151 -148 3 -8 27 -44 52 -80 l47 -65 471 6 c640 7 715 11
833 40 54 14 105 25 114 25 30 0 76 62 83 113 l7 47 61 0 c33 0 124 12 202 26
132 25 148 30 254 88 91 49 124 73 168 123 30 35 61 63 69 63 8 0 21 10 29 22
l15 21 11 -27 c5 -15 10 -32 10 -37 0 -6 23 -7 60 -3 59 6 72 0 49 -23 -7 -7
-3 -17 17 -32 37 -29 68 -27 93 8 12 16 42 43 69 60 44 28 51 30 87 20 22 -6
55 -24 74 -40 52 -43 115 -35 165 20 25 28 49 27 83 -5 17 -15 35 -23 46 -20
13 3 21 -1 24 -15 7 -24 21 -24 45 -2 11 10 31 18 46 19 15 1 30 3 34 3 4 1
13 13 20 29 18 37 51 39 151 8 145 -44 137 -44 137 2 0 111 36 118 141 29 103
-88 119 -97 160 -97 35 0 37 2 44 38 4 20 14 45 22 55 21 22 68 22 107 -2 44
-28 152 -49 168 -33 9 9 2 21 -34 54 -37 36 -46 50 -49 85 -4 40 -2 43 25 53
16 5 51 10 79 10 41 0 48 3 43 16 -3 9 -9 40 -12 69 -6 52 -6 54 21 61 22 5
32 1 57 -26 26 -29 28 -36 19 -57 -16 -35 -14 -45 12 -43 39 4 44 1 104 -50
l58 -49 20 23 c40 48 57 43 96 -31 21 -39 46 -73 60 -79 47 -23 67 -25 82 -10
8 8 33 25 56 37 44 22 53 44 22 54 -10 3 -30 28 -45 55 -24 44 -25 51 -11 56
8 4 39 -3 67 -15 28 -11 56 -21 62 -21 13 0 105 101 106 115 0 6 -24 23 -52
37 -29 15 -91 57 -137 94 -92 73 -92 76 -3 87 23 2 50 11 60 19 9 8 26 18 37
22 18 7 16 9 -15 26 -19 10 -61 26 -92 36 -54 16 -68 28 -217 185 -150 158
-164 174 -215 278 -31 60 -74 160 -96 223 -23 62 -52 142 -66 178 -13 36 -39
113 -57 171 -38 119 -133 300 -177 339 -20 17 -65 102 -139 262 l-111 237 -9
323 c-6 203 -15 353 -24 403 -9 44 -23 127 -32 185 -9 58 -32 173 -52 255 -33
144 -62 387 -63 537 0 34 -8 75 -19 100 -32 72 -63 219 -96 448 -8 58 -19 132
-24 165 -6 33 -17 128 -26 210 -13 117 -29 193 -71 344 -57 203 -137 634 -148
801 -12 174 -28 305 -57 469 -5 30 -9 85 -9 122 0 38 -6 88 -14 111 -8 24 -20
70 -26 102 -7 33 -16 69 -21 80 -53 133 -76 348 -90 848 -11 427 -12 517 -3
701 4 87 3 146 -3 160 -39 83 -59 117 -69 113 -26 -10 -33 16 -14 53 32 63 33
78 8 103 -13 13 -22 28 -20 35 2 7 -3 10 -12 7 -18 -7 -56 25 -49 42 3 8 -2
14 -11 14 -9 0 -16 7 -16 15 0 27 28 16 50 -21 30 -47 37 -37 10 15 -15 31
-28 43 -50 48 -29 5 -40 26 -20 38 19 12 10 61 -18 106 -50 78 -97 105 -194
114 -61 6 -68 9 -68 28 0 12 -19 103 -41 202 -34 154 -68 347 -94 525 -4 25
-15 95 -26 155 -64 363 -76 576 -40 755 31 153 30 163 -22 199 -39 27 -52 30
-136 33 -51 2 -101 0 -111 -4z m20 -24 c0 -13 -21 -44 -30 -44 -14 0 -12 24 2
38 13 13 28 16 28 6z m173 -1 c-7 -2 -19 -2 -25 0 -7 3 -2 5 12 5 14 0 19 -2
13 -5z m-193 -179 c21 -84 22 -144 2 -144 -5 0 -22 42 -38 94 -29 89 -30 97
-16 131 18 45 22 39 52 -81z m108 104 c-2 -7 2 -13 7 -13 6 0 9 6 9 13 -2 14
15 16 35 3 9 -6 10 -11 2 -15 -17 -11 -13 -21 13 -35 22 -12 24 -19 21 -75 -1
-33 -6 -61 -11 -61 -5 0 -14 -4 -20 -8 -7 -4 -18 0 -25 9 -11 14 -11 18 4 29
15 11 16 13 2 19 -10 4 -15 19 -15 50 0 36 -3 44 -15 40 -8 -4 -22 -1 -30 6
-12 10 -15 10 -15 -1 0 -11 -2 -11 -10 1 -15 23 -12 32 10 25 14 -5 20 -2 20
9 0 9 5 16 10 16 6 0 10 -6 8 -12z m-81 -40 c-3 -8 -6 -5 -6 6 -1 11 2 17 5
13 3 -3 4 -12 1 -19z m173 7 c0 -8 -2 -15 -4 -15 -2 0 -6 7 -10 15 -3 8 -1 15
4 15 6 0 10 -7 10 -15z m-87 -38 c3 -8 1 -20 -4 -28 -6 -10 -9 -7 -9 14 0 29
5 35 13 14z m5 -87 c0 -25 -5 -40 -13 -40 -19 0 -26 27 -9 34 10 4 13 13 9 26
-3 11 -2 20 4 20 5 0 9 -18 9 -40z m99 -12 c-3 -8 -6 -5 -6 6 -1 11 2 17 5 13
3 -3 4 -12 1 -19z m-154 -12 c6 -15 -1 -26 -15 -26 -4 0 -8 9 -8 20 0 23 15
27 23 6z m144 -112 c-3 -3 -12 -4 -19 -1 -8 3 -5 6 6 6 11 1 17 -2 13 -5z m13
-34 c0 -5 -7 -10 -15 -10 -8 0 -15 5 -15 10 0 6 7 10 15 10 8 0 15 -4 15 -10z
m-129 -36 c-28 -36 -17 -49 15 -17 17 17 28 22 33 15 5 -8 17 -9 40 -2 42 12
46 9 49 -32 l2 -33 -20 24 c-16 19 -26 22 -51 17 -21 -4 -28 -2 -23 6 4 7 3 8
-4 4 -6 -4 -9 -13 -6 -20 3 -7 -6 -21 -20 -30 -15 -9 -26 -24 -26 -34 1 -14 4
-13 20 7 18 21 20 21 21 5 1 -11 1 -25 -1 -33 -1 -9 10 -7 37 9 50 31 53 34
23 26 -19 -6 -21 -5 -10 3 8 6 25 11 38 11 19 0 22 -5 22 -40 0 -37 -1 -39
-20 -28 -14 9 -16 14 -7 20 8 5 4 8 -10 8 -13 0 -34 -15 -52 -37 -42 -51 -40
-71 2 -39 41 31 87 35 87 7 0 -13 -10 -20 -36 -24 -39 -7 -74 -32 -74 -54 0
-17 16 -17 23 1 6 15 97 50 97 37 0 -5 3 -22 6 -39 6 -27 3 -31 -24 -37 -36
-7 -57 -29 -46 -46 4 -8 3 -9 -4 -5 -7 4 -12 2 -12 -4 0 -13 -29 -45 -35 -38
-2 2 -7 19 -10 37 -3 19 -8 38 -11 43 -3 4 2 11 11 14 14 6 14 7 0 18 -9 6
-17 25 -18 41 -1 17 -5 32 -9 35 -4 3 -8 21 -9 40 -1 19 -8 57 -16 83 -15 47
-14 48 12 83 15 19 29 33 32 30 3 -3 -4 -17 -16 -32z m79 -59 c-33 -19 -50
-18 -26 0 11 8 27 15 35 15 10 -1 7 -6 -9 -15z m-115 -207 c-7 -34 -33 -83
-40 -76 -7 7 29 108 38 108 5 0 6 -15 2 -32z m10 -125 c-3 -43 -5 -79 -5 -81
0 -2 -6 3 -14 11 -10 10 -13 28 -9 58 4 38 21 89 29 89 2 0 1 -35 -1 -77z
m175 67 c-20 -13 -33 -13 -25 0 3 6 14 10 23 10 15 0 15 -2 2 -10z m-226 -68
c-4 -12 -10 -22 -15 -22 -10 0 -12 21 -3 45 9 24 24 4 18 -23z m258 -7 c4 -22
10 -65 13 -96 l6 -55 -38 -1 c-33 -1 -35 1 -20 12 25 18 21 26 -7 13 -29 -13
-45 -40 -18 -31 13 5 14 3 5 -7 -6 -7 -9 -18 -7 -25 3 -6 -2 -18 -11 -25 -8
-7 -15 -17 -15 -23 0 -5 9 -2 20 8 19 17 20 17 20 -1 0 -13 3 -15 8 -7 4 7 19
17 32 23 l25 10 -27 -3 c-15 -2 -25 0 -22 4 3 5 18 9 33 9 25 0 30 -5 40 -44
19 -75 16 -89 -17 -83 -40 8 -74 -12 -78 -46 -2 -24 -1 -25 12 -12 22 22 32
18 27 -9 -4 -21 -2 -24 15 -19 23 6 38 33 19 33 -8 0 -6 4 3 10 10 6 11 10 3
10 -7 0 -13 5 -13 10 0 17 37 11 44 -7 4 -9 9 -42 13 -72 l5 -56 -41 -11 c-22
-6 -38 -7 -35 -3 3 5 0 9 -5 9 -6 0 -11 -4 -11 -9 0 -5 -3 -17 -6 -26 -6 -14
-1 -13 32 4 51 28 74 27 76 -1 3 -42 5 -53 16 -93 6 -22 13 -55 17 -72 6 -31
5 -33 -24 -33 -18 0 -41 -10 -58 -25 l-28 -26 40 17 c60 24 75 27 75 15 0 -6
-9 -11 -20 -11 -29 0 -80 -28 -80 -44 0 -15 -38 -52 -45 -44 -6 6 -26 123 -23
135 1 4 -2 24 -6 43 -7 35 -16 122 -21 195 -2 22 -4 42 -5 45 -3 8 -8 36 -24
140 -9 52 -18 105 -21 118 -8 33 59 92 105 92 11 0 20 4 20 9 0 17 -19 22 -41
11 -11 -7 -23 -9 -26 -7 -3 3 8 12 24 21 25 14 26 15 6 16 -22 0 -53 -24 -53
-41 0 -9 -36 -49 -45 -49 -3 0 -5 22 -5 49 0 32 5 53 16 62 32 26 60 37 89 36
26 -2 31 -6 37 -42z m-702 -55 c9 0 24 10 35 22 14 16 20 19 23 9 3 -8 -3 -18
-12 -23 -11 -6 -14 -14 -8 -21 15 -20 22 -47 12 -47 -5 0 -12 11 -16 25 -6 24
-8 25 -23 10 -27 -24 -38 -18 -45 23 -4 20 -9 46 -11 57 -3 11 3 3 13 -17 9
-21 24 -38 32 -38z m-194 35 c7 -17 40 -20 49 -5 10 15 35 12 35 -5 0 -20 10
-19 26 3 26 33 15 -12 -14 -57 -1 -3 -10 5 -18 18 -19 27 -36 23 -44 -9 -9
-36 -30 -37 -30 -1 0 17 -5 31 -12 31 -6 0 -8 3 -5 7 4 3 2 12 -4 20 -9 9 -8
13 0 13 6 0 14 -7 17 -15z m654 -82 c0 -23 -9 -48 -21 -63 l-20 -25 7 45 c6
43 20 80 29 80 3 0 5 -17 5 -37z m-938 -3 c-2 -17 -8 -33 -13 -36 -10 -6 -12
26 -3 50 10 27 21 18 16 -14z m286 -32 c2 -20 -1 -26 -14 -24 -21 3 -28 20
-20 42 9 23 31 11 34 -18z m215 12 c6 -22 36 -27 66 -11 13 7 17 5 17 -9 0
-13 -10 -20 -33 -25 -18 -3 -37 -4 -42 -1 -13 8 -32 66 -22 66 5 0 11 -9 14
-20z m-468 0 c3 -5 1 -10 -4 -10 -6 0 -11 5 -11 10 0 6 2 10 4 10 3 0 8 -4 11
-10z m971 -2 c4 -7 3 -8 -4 -4 -7 4 -12 2 -12 -3 0 -6 -4 -11 -10 -11 -5 0 -7
7 -4 15 7 18 20 19 30 3z m-811 -22 c15 6 16 4 5 -15 -11 -22 -12 -22 -31 -5
-10 9 -19 24 -19 33 1 14 2 14 14 -2 9 -11 20 -15 31 -11z m195 4 c0 -5 -5
-10 -11 -10 -5 0 -7 5 -4 10 3 6 8 10 11 10 2 0 4 -4 4 -10z m584 -25 c-4 -8
-10 -15 -15 -15 -4 0 -6 7 -3 15 4 8 10 15 15 15 4 0 6 -7 3 -15z m210 6 c6
-9 -54 -25 -62 -16 -3 2 6 9 19 14 31 13 37 13 43 2z m-549 -21 c-3 -5 -11
-10 -16 -10 -6 0 -7 5 -4 10 3 6 11 10 16 10 6 0 7 -4 4 -10z m320 -30 c3 -6
-1 -7 -9 -4 -18 7 -21 14 -7 14 6 0 13 -4 16 -10z m-1107 -119 c-3 -26 -5 -28
-20 -17 -17 12 -17 15 0 57 16 41 17 42 20 17 2 -15 2 -41 0 -57z m1189 37
c-3 -7 -5 -2 -5 12 0 14 2 19 5 13 2 -7 2 -19 0 -25z m-1267 3 c0 -4 -5 -12
-12 -19 -8 -8 -5 -14 15 -21 15 -6 27 -13 27 -15 0 -3 -6 -3 -14 0 -11 4 -13
0 -9 -15 9 -34 -5 -24 -27 19 -24 48 -25 54 -4 46 14 -5 15 -4 4 9 -11 13 -10
14 4 9 9 -3 16 -9 16 -13z m1157 -28 c-3 -10 -5 -2 -5 17 0 19 2 27 5 18 2
-10 2 -26 0 -35z m-1060 15 c-3 -8 -6 -5 -6 6 -1 11 2 17 5 13 3 -3 4 -12 1
-19z m-97 -119 c0 -3 -6 -6 -14 -6 -8 0 -11 8 -8 20 4 14 7 16 13 5 5 -7 9
-16 9 -19z m994 -34 c-6 -15 -34 -29 -42 -20 -8 7 29 45 39 39 4 -2 6 -11 3
-19z m-47 -51 c-3 -3 -12 -4 -19 -1 -8 3 -5 6 6 6 11 1 17 -2 13 -5z m-970
-19 c8 -9 13 -18 11 -21 -3 -2 -13 5 -23 16 -21 23 -11 27 12 5z m205 -17 c-7
-7 -12 -8 -12 -2 0 14 12 26 19 19 2 -3 -1 -11 -7 -17z m-202 -70 c0 -5 -5 -8
-10 -8 -9 0 -30 41 -30 58 1 9 39 -41 40 -50z m40 -44 c0 -18 -40 -17 -64 1
-25 19 -12 33 14 17 26 -16 31 -15 23 6 -6 15 -5 15 10 3 9 -7 17 -20 17 -27z
m1195 -40 c-16 -14 -55 -47 -85 -75 -30 -27 -80 -64 -110 -82 -30 -18 -62 -37
-70 -42 -13 -8 -13 -7 -1 9 8 10 40 30 70 46 50 25 106 70 87 70 -4 0 14 16
41 36 26 20 56 45 67 56 10 11 21 16 25 13 3 -4 -7 -18 -24 -31z m-1068 -50
c-13 -13 -35 6 -46 37 l-11 33 31 -32 c18 -18 29 -35 26 -38z m1173 56 c0 -5
-2 -10 -4 -10 -3 0 -8 5 -11 10 -3 6 -1 10 4 10 6 0 11 -4 11 -10z m-280 -20
c-6 -11 -16 -17 -25 -14 -11 5 -12 9 -2 20 19 22 40 18 27 -6z m-1014 -58
c-11 -10 -14 3 -8 33 l7 30 3 -28 c2 -16 1 -31 -2 -35z m-31 8 c-4 -12 -9 -19
-12 -17 -3 3 -2 15 2 27 4 12 9 19 12 17 3 -3 2 -15 -2 -27z m101 16 c16 -17
19 -46 4 -46 -9 0 -30 40 -30 56 0 8 12 4 26 -10z m514 -11 c-14 -17 -30 -20
-30 -6 0 5 8 12 18 14 9 3 19 5 21 6 2 0 -2 -6 -9 -14z m430 -10 c-7 -8 -17
-15 -23 -15 -5 0 -2 9 8 20 21 23 35 19 15 -5z m495 5 c4 -6 -5 -10 -20 -10
-15 0 -24 4 -20 10 3 6 12 10 20 10 8 0 17 -4 20 -10z m9 -42 c3 -13 8 -40 11
-60 6 -37 5 -38 -23 -32 -27 5 -112 -27 -112 -42 0 -3 5 -2 10 1 6 4 17 2 24
-4 11 -9 23 -8 49 5 19 9 42 14 50 11 19 -7 28 -77 10 -77 -7 0 -13 5 -13 10
0 6 -13 10 -30 10 -16 0 -55 10 -86 23 l-56 22 7 40 c7 46 26 70 75 96 49 25
79 24 84 -3z m-1557 -10 c-3 -8 -6 -5 -6 6 -1 11 2 17 5 13 3 -3 4 -12 1 -19z
m911 -10 c-6 -16 -86 -78 -100 -78 -6 0 8 14 31 30 23 17 44 37 48 45 6 18 26
20 21 3z m392 -78 c20 -7 16 -8 -22 -9 -26 -1 -70 -10 -98 -21 -73 -29 -75
-23 -5 10 62 30 83 33 125 20z m-510 -4 c0 -2 -7 -6 -15 -10 -8 -3 -15 -1 -15
4 0 6 7 10 15 10 8 0 15 -2 15 -4z m110 -26 c-8 -5 -19 -10 -25 -10 -5 0 -3 5
5 10 8 5 20 10 25 10 6 0 3 -5 -5 -10z m-40 -15 c0 -4 -127 -65 -136 -65 -3 0
-34 -13 -69 -30 -68 -32 -85 -36 -85 -20 0 5 17 14 38 20 21 5 83 30 138 54
100 45 114 50 114 41z m-250 -31 c0 -2 -11 -4 -25 -4 -14 0 -25 4 -25 9 0 4
11 6 25 3 14 -2 25 -6 25 -8z m865 -14 c18 -5 -59 -16 -79 -11 -18 4 -18 5 -2
11 17 6 61 6 81 0z m-288 -26 c48 -19 59 -37 14 -24 -16 4 -31 7 -33 5 -2 -1
-12 6 -22 16 -24 23 -14 24 41 3z m-142 -4 c-27 -12 -43 -12 -25 0 8 5 22 9
30 9 10 0 8 -3 -5 -9z m500 -10 c3 -5 1 -10 -4 -10 -6 0 -11 5 -11 10 0 6 2
10 4 10 3 0 8 -4 11 -10z m-545 -4 c0 -2 -7 -7 -16 -10 -8 -3 -12 -2 -9 4 6
10 25 14 25 6z m260 -6 c0 -5 -5 -10 -11 -10 -5 0 -7 5 -4 10 3 6 8 10 11 10
2 0 4 -4 4 -10z m516 -18 c14 -12 23 -34 26 -67 5 -40 4 -46 -5 -27 -9 21 -16
23 -58 19 -41 -4 -48 -2 -57 18 -11 23 -10 23 24 18 27 -4 34 -2 34 10 0 9 -4
19 -10 22 -5 3 -10 10 -10 16 0 15 33 10 56 -9z m-400 -34 c3 -5 4 -12 1 -14
-6 -6 -47 18 -47 27 0 10 39 -1 46 -13z m279 12 c3 -5 1 -10 -4 -10 -6 0 -11
5 -11 10 0 6 2 10 4 10 3 0 8 -4 11 -10z m-444 -50 c19 -1 54 -28 46 -36 -16
-16 -62 -5 -83 20 -26 29 -32 25 -28 -21 2 -38 1 -39 -25 -16 -11 9 -32 17
-46 19 -25 3 -26 2 -11 -15 23 -25 22 -49 -1 -30 -20 16 -60 39 -68 39 -10 0
-5 -38 10 -74 21 -51 3 -45 -20 6 -25 56 -30 36 -9 -38 25 -92 27 -104 16
-104 -8 0 -21 41 -28 90 -3 23 -23 70 -30 70 -3 0 -3 -13 1 -29 3 -16 8 -45
10 -63 3 -25 1 -28 -5 -13 -5 11 -11 33 -15 49 -9 45 -18 22 -18 -46 0 -35 -1
-51 -4 -36 -4 23 -8 26 -34 23 -27 -3 -41 9 -19 17 6 2 8 17 4 37 -6 28 -8 31
-17 15 -17 -31 -26 -86 -17 -109 5 -13 11 -54 14 -92 l5 -68 -16 35 c-8 19
-18 75 -21 123 -5 97 -22 100 -22 5 0 -32 -4 -58 -10 -58 -5 0 -10 9 -10 21 0
33 -20 11 -21 -24 -2 -30 -2 -31 -6 -4 -2 15 -9 27 -14 27 -12 0 -5 -81 10
-108 13 -25 15 -43 1 -22 -16 25 -22 3 -10 -35 7 -20 9 -39 6 -42 -3 -4 -6 1
-6 9 0 9 -7 22 -17 29 -15 13 -16 11 -10 -16 7 -27 6 -28 -5 -9 -7 12 -18 19
-24 17 -23 -8 -34 117 -13 147 8 12 10 12 8 -5 -1 -11 0 -33 2 -50 1 -16 5 -1
8 35 5 59 0 79 -20 80 -10 0 -32 -112 -30 -150 1 -20 10 -65 21 -100 11 -35
18 -65 16 -67 -2 -2 -16 24 -31 58 -24 54 -27 71 -22 125 5 51 3 63 -10 68
-20 8 -20 8 -27 -38 -9 -54 -16 -58 -16 -10 -1 57 -19 20 -29 -59 -5 -34 -9
-49 -10 -34 0 16 -5 26 -10 22 -19 -11 6 -145 28 -145 5 0 12 -7 15 -16 4 -9
2 -13 -5 -8 -11 7 -7 -26 11 -91 5 -16 14 -50 21 -75 16 -55 22 -122 10 -100
-5 8 -21 57 -35 109 -14 52 -30 99 -36 105 -5 5 -10 18 -10 29 0 10 -3 16 -7
14 -5 -3 -7 -52 -6 -109 0 -58 -3 -108 -9 -115 -6 -8 -7 -28 -3 -50 15 -78 16
-99 6 -83 -6 8 -13 40 -17 70 -10 80 -10 79 -16 85 -3 3 -4 -15 -2 -40 2 -25
-1 -43 -6 -40 -5 3 -11 -3 -14 -12 -3 -10 -3 20 0 66 2 47 12 99 22 120 13 28
17 69 18 181 1 80 2 152 3 160 1 8 18 33 39 55 20 22 53 65 72 95 63 99 130
152 226 181 38 11 76 20 84 21 28 1 162 28 172 34 6 4 33 10 62 13 37 5 54 4
62 -6 6 -7 17 -13 25 -13z m209 20 c0 -5 -4 -10 -10 -10 -5 0 -10 5 -10 10 0
6 5 10 10 10 6 0 10 -4 10 -10z m89 -4 c34 -18 55 -42 47 -55 -4 -5 -18 1 -33
15 -31 28 -45 31 -36 7 6 -16 5 -16 -10 -5 -9 8 -21 11 -27 7 -5 -3 -10 -4
-10 -1 0 2 -3 11 -6 19 -4 11 2 17 18 20 13 2 24 5 26 6 2 0 15 -5 31 -13z
m-1011 -22 c-9 -9 -22 -14 -30 -11 -8 3 -4 8 12 15 35 15 37 14 18 -4z m1340
-15 c-3 -8 -7 -3 -11 10 -4 17 -3 21 5 13 5 -5 8 -16 6 -23z m-1330 -24 c-12
-24 -23 -43 -26 -41 -4 5 36 86 43 86 3 0 -5 -20 -17 -45z m1087 -5 c3 -5 2
-10 -4 -10 -5 0 -13 5 -16 10 -3 6 -2 10 4 10 5 0 13 -4 16 -10z m-1135 -40
c-15 -28 -20 -23 -13 13 4 18 9 25 15 19 6 -6 6 -18 -2 -32z m905 8 c14 -6 25
-15 25 -20 0 -13 -10 -10 -37 12 -29 23 -25 25 12 8z m-175 -36 c0 -13 -3 -12
-15 4 -19 25 -19 40 0 24 8 -7 15 -20 15 -28z m470 28 c0 -5 -4 -10 -10 -10
-5 0 -10 5 -10 10 0 6 5 10 10 10 6 0 10 -4 10 -10z m-555 -20 c3 -5 2 -10 -4
-10 -5 0 -13 5 -16 10 -3 6 -2 10 4 10 5 0 13 -4 16 -10z m605 -11 c0 -14 -17
-10 -23 5 -4 10 -1 13 9 9 7 -3 14 -9 14 -14z m-1262 -8 c11 -7 11 -14 -3 -42
-28 -54 -56 -90 -66 -84 -15 10 -10 35 6 29 8 -4 15 -1 15 6 0 6 9 23 20 37
29 37 27 55 -6 43 -36 -14 -43 -12 -14 5 30 17 31 17 48 6z m1316 -37 c15 -16
26 -38 26 -53 -1 -25 -2 -24 -20 10 -11 20 -28 39 -40 42 -11 3 -20 10 -20 16
0 19 27 12 54 -15z m-735 -45 c13 -38 13 -39 3 -39 -4 0 -12 16 -18 35 -14 44
0 47 15 4z m-372 -71 c-3 -8 -6 -5 -6 6 -1 11 2 17 5 13 3 -3 4 -12 1 -19z
m1293 -4 c15 -38 11 -43 -6 -10 -10 18 -19 25 -23 17 -5 -8 -13 -7 -27 4 -18
14 -17 14 14 15 26 0 34 -5 42 -26z m-1623 -1 c-9 -9 -20 -13 -24 -9 -4 4 -1
11 7 16 25 16 35 11 17 -7z m34 -21 c-5 -10 -18 -25 -27 -33 -16 -12 -17 -12
-9 1 10 18 37 50 42 50 2 0 -1 -8 -6 -18z m509 -7 c0 -8 -4 -15 -10 -15 -5 0
-10 7 -10 15 0 8 5 15 10 15 6 0 10 -7 10 -15z m-270 -27 c0 -7 -5 -20 -10
-28 -8 -12 -10 -9 -10 13 0 15 5 27 10 27 6 0 10 -6 10 -12z m-304 -34 c-4 -9
-9 -15 -11 -12 -3 3 -3 13 1 22 4 9 9 15 11 12 3 -3 3 -13 -1 -22z m294 -29
c0 -8 -4 -15 -10 -15 -5 0 -7 7 -4 15 4 8 8 15 10 15 2 0 4 -7 4 -15z m0 -46
c0 -6 -4 -7 -10 -4 -5 3 -10 11 -10 16 0 6 5 7 10 4 6 -3 10 -11 10 -16z
m-306 -30 c-29 -11 -34 -10 -28 5 3 8 13 12 27 8 20 -5 20 -6 1 -13z m97 11
c35 -10 50 -29 64 -79 10 -34 -10 -18 -26 21 -16 40 -26 48 -61 48 -16 0 -28
5 -28 10 0 12 6 12 51 0z m167 -25 c-3 -3 -9 2 -12 12 -6 14 -5 15 5 6 7 -7
10 -15 7 -18z m31 -75 c1 -21 -1 -22 -13 -10 -18 18 -22 49 -10 75 8 18 9 17
15 -10 4 -16 7 -41 8 -55z m21 -167 c6 -29 10 -58 7 -65 -2 -7 -8 5 -12 27 -4
22 -13 54 -20 70 -7 17 -16 44 -20 60 -6 30 -6 30 13 -5 11 -19 25 -58 32 -87z
m20 -111 c0 -15 -2 -15 -10 -2 -13 20 -13 33 0 25 6 -3 10 -14 10 -23z m-136
-224 c8 -40 19 -86 25 -102 13 -33 8 -47 -7 -19 -10 19 -46 156 -56 213 l-5
35 14 -27 c8 -15 21 -60 29 -100z m-75 -9 c16 -45 14 -48 -9 -14 -22 33 -25
45 -11 45 5 0 14 -14 20 -31z m114 -169 c3 -11 1 -18 -4 -14 -5 3 -9 12 -9 20
0 20 7 17 13 -6z m18 -82 c8 -15 8 -18 0 -14 -6 4 -16 16 -22 28 -8 15 -8 18
0 14 6 -4 16 -16 22 -28z m43 -14 c3 -8 2 -12 -4 -9 -6 3 -10 10 -10 16 0 14
7 11 14 -7z m-331 -254 c3 -11 1 -20 -4 -20 -5 0 -9 4 -9 9 0 5 -3 17 -7 27
-4 11 -3 15 4 11 6 -4 13 -16 16 -27z m61 -137 c20 -40 32 -73 27 -73 -7 0
-71 131 -71 147 0 11 7 0 44 -74z m21 -419 c15 -37 19 -51 10 -43 -8 9 -35 79
-30 79 2 0 12 -16 20 -36z m-251 -33 c-6 -6 -11 1 -18 29 l-7 25 15 -25 c8
-14 12 -27 10 -29z m56 -60 c0 -34 -10 -20 -16 21 -4 25 -2 29 5 18 6 -8 11
-26 11 -39z m-32 -40 c-1 -3 2 -18 6 -33 4 -14 6 -35 4 -45 -6 -22 -24 41 -32
112 l-6 50 14 -39 c8 -22 14 -42 14 -45z m256 43 c3 -8 2 -12 -4 -9 -6 3 -10
10 -10 16 0 14 7 11 14 -7z m-387 -46 c-3 -8 -6 -5 -6 6 -1 11 2 17 5 13 3 -3
4 -12 1 -19z m18 -89 c6 -43 21 -144 31 -204 3 -16 2 -26 -2 -22 -9 9 -43 201
-44 246 0 46 8 35 15 -20z m174 -304 l0 -20 -8 20 c-4 11 -11 34 -14 50 l-6
30 14 -30 c8 -16 14 -39 14 -50z m-122 -37 c-3 -8 -6 -5 -6 6 -1 11 2 17 5 13
3 -3 4 -12 1 -19z m27 -123 c5 -29 4 -36 -3 -25 -6 8 -11 28 -11 44 0 39 6 31
14 -19z m105 -27 c6 -18 7 -28 2 -23 -10 12 -25 55 -18 55 3 0 10 -15 16 -32z
m-92 -60 c-3 -8 -6 -5 -6 6 -1 11 2 17 5 13 3 -3 4 -12 1 -19z m136 -103 c8
-27 17 -68 21 -90 l6 -40 -19 40 c-10 22 -22 58 -26 80 -5 22 -9 45 -11 50 -1
6 -5 28 -8 50 l-6 40 14 -40 c8 -22 21 -62 29 -90z m24 43 c-3 -8 -6 -5 -6 6
-1 11 2 17 5 13 3 -3 4 -12 1 -19z m-82 -22 c10 4 16 -6 20 -33 4 -21 12 -54
17 -73 6 -19 11 -36 10 -37 -1 -2 6 -24 14 -50 8 -27 17 -77 20 -113 2 -36 6
-78 9 -95 21 -157 31 -375 17 -384 -5 -3 -13 -82 -17 -176 -4 -93 -9 -173 -12
-178 -2 -4 -6 -34 -8 -67 -2 -33 -6 -63 -8 -67 -3 -5 -8 -73 -11 -153 -9 -210
-17 -300 -27 -300 -5 0 -7 6 -4 13 2 6 6 89 8 182 4 117 2 159 -4 135 -12 -42
-17 -86 -18 -160 -1 -36 -4 -50 -10 -41 -13 21 -7 95 30 356 16 107 15 854 0
940 -7 39 -15 84 -17 100 -3 17 -12 72 -20 122 -13 89 -17 127 -7 91 2 -9 10
-15 18 -12z m115 -121 c0 -8 -2 -15 -4 -15 -2 0 -6 7 -10 15 -3 8 -1 15 4 15
6 0 10 -7 10 -15z m-27 -55 c3 -11 1 -18 -4 -14 -5 3 -9 12 -9 20 0 20 7 17
13 -6z m-182 -108 c-4 -55 -13 -54 -10 1 2 25 5 44 8 41 3 -3 4 -22 2 -42z
m276 -75 c-2 -7 0 -23 6 -37 5 -14 11 -34 13 -45 9 -57 27 -147 40 -205 9 -35
18 -78 20 -95 6 -49 -14 -7 -22 45 -3 25 -19 96 -35 158 -32 127 -48 239 -29
209 6 -10 9 -23 7 -30z m-40 -224 c-3 -10 -5 -4 -5 12 0 17 2 24 5 18 2 -7 2
-21 0 -30z m38 -258 c2 -22 7 -69 10 -105 4 -36 9 -76 11 -90 3 -15 2 -21 -4
-15 -9 10 -25 106 -42 263 -6 52 -11 97 -12 100 0 4 1 25 2 47 2 36 12 -22 35
-200z m-479 27 c-5 -107 -17 -102 -15 7 1 53 5 88 10 80 4 -7 6 -46 5 -87z
m191 26 c-3 -7 -5 -2 -5 12 0 14 2 19 5 13 2 -7 2 -19 0 -25z m27 -70 c-3 -28
-10 -61 -15 -72 -9 -19 -9 -18 -4 4 2 14 5 46 5 73 0 26 4 47 10 47 5 0 7 -21
4 -52z m-257 -10 c-3 -8 -6 -5 -6 6 -1 11 2 17 5 13 3 -3 4 -12 1 -19z m-4
-125 c-3 -60 -7 -110 -9 -112 -6 -7 -4 172 2 197 4 12 8 22 10 22 1 0 0 -48
-3 -107z m462 8 c3 -5 2 -12 -3 -15 -5 -3 -9 1 -9 9 0 17 3 19 12 6z m5 -93
c0 -74 -10 -71 -17 6 -3 37 -1 56 6 56 7 0 11 -24 11 -62z m27 40 c-3 -8 -6
-5 -6 6 -1 11 2 17 5 13 3 -3 4 -12 1 -19z m12 -75 c1 -27 3 -72 5 -102 2 -29
0 -49 -4 -45 -11 11 -21 206 -11 199 5 -2 9 -26 10 -52z m41 32 c0 -8 -2 -15
-4 -15 -2 0 -6 7 -10 15 -3 8 -1 15 4 15 6 0 10 -7 10 -15z m-3 -47 c-3 -8 -6
-5 -6 6 -1 11 2 17 5 13 3 -3 4 -12 1 -19z m-550 -10 c-3 -8 -6 -5 -6 6 -1 11
2 17 5 13 3 -3 4 -12 1 -19z m470 -30 c-3 -8 -6 -5 -6 6 -1 11 2 17 5 13 3 -3
4 -12 1 -19z m-450 -20 c-3 -8 -6 -5 -6 6 -1 11 2 17 5 13 3 -3 4 -12 1 -19z
m541 -9 c-3 -8 -7 -3 -11 10 -4 17 -3 21 5 13 5 -5 8 -16 6 -23z m-563 -10
c-6 -45 -13 -47 -13 -5 0 20 4 36 8 36 5 0 7 -14 5 -31z m22 -76 c-2 -16 -4
-3 -4 27 0 30 2 43 4 28 2 -16 2 -40 0 -55z m209 20 c-8 -59 -22 -123 -30
-130 -10 -10 -7 18 11 99 18 87 28 103 19 31z m331 25 c-3 -8 -6 -5 -6 6 -1
11 2 17 5 13 3 -3 4 -12 1 -19z m-570 -40 c-3 -8 -6 -5 -6 6 -1 11 2 17 5 13
3 -3 4 -12 1 -19z m-2 -57 c-3 -22 -6 -60 -7 -85 0 -25 -4 -46 -8 -46 -5 0 -7
12 -5 28 2 15 5 53 6 85 1 31 6 57 11 57 5 0 6 -18 3 -39z m-39 -98 c-3 -32
-8 -98 -11 -148 -4 -49 -8 -101 -9 -115 -14 -113 -19 -140 -27 -140 -5 0 -7
17 -4 38 2 20 8 78 12 127 3 50 7 92 8 95 1 3 5 37 9 75 9 87 16 125 23 125 3
0 2 -26 -1 -57z m99 47 c3 -5 1 -10 -4 -10 -6 0 -11 5 -11 10 0 6 2 10 4 10 3
0 8 -4 11 -10z m-8 -42 c-3 -8 -6 -5 -6 6 -1 11 2 17 5 13 3 -3 4 -12 1 -19z
m160 7 c0 -8 -4 -15 -9 -15 -4 0 -8 7 -8 15 0 8 4 15 8 15 5 0 9 -7 9 -15z
m-160 -72 c-3 -10 -5 -2 -5 17 0 19 2 27 5 18 2 -10 2 -26 0 -35z m449 11 c-4
-9 -2 -22 4 -29 7 -9 6 -16 -3 -23 -10 -9 -14 -3 -15 28 -2 25 2 40 9 40 6 0
8 -7 5 -16z m-219 -26 c-3 -8 -6 -5 -6 6 -1 11 2 17 5 13 3 -3 4 -12 1 -19z
m-227 -18 c0 -5 -4 -10 -10 -10 -5 0 -10 5 -10 10 0 6 5 10 10 10 6 0 10 -4
10 -10z m507 -22 c-3 -8 -6 -5 -6 6 -1 11 2 17 5 13 3 -3 4 -12 1 -19z m-350
-10 c-3 -8 -6 -5 -6 6 -1 11 2 17 5 13 3 -3 4 -12 1 -19z m-170 -20 c-3 -8 -6
-5 -6 6 -1 11 2 17 5 13 3 -3 4 -12 1 -19z m168 -39 c-6 -58 -15 -61 -15 -6 0
26 4 47 10 47 5 0 7 -18 5 -41z m363 -45 c-3 -27 -4 -26 -9 8 -3 22 -1 34 4
29 5 -5 7 -21 5 -37z m-531 14 c-3 -8 -6 -5 -6 6 -1 11 2 17 5 13 3 -3 4 -12
1 -19z m483 -60 c1 -40 2 -80 1 -88 0 -8 -1 -39 -1 -69 0 -30 -3 -52 -6 -48
-11 10 -16 290 -6 283 5 -3 10 -38 12 -78z m-144 -180 c-4 -73 -9 -171 -12
-218 -3 -47 -4 -116 -3 -155 3 -97 2 -127 -4 -150 -7 -28 -19 -104 -18 -110 1
-3 -5 -18 -13 -34 -9 -16 -12 -31 -9 -35 4 -3 1 -6 -6 -6 -8 0 -10 7 -6 20 4
11 8 35 10 53 3 18 7 55 11 82 5 40 15 335 14 454 0 13 4 40 9 60 5 20 12 66
16 104 11 113 17 75 11 -65z m50 45 c-2 -16 -5 -37 -6 -48 -2 -17 -3 -16 -9 5
-8 29 -3 70 10 70 4 0 6 -12 5 -27z m-519 -25 c-3 -8 -6 -5 -6 6 -1 11 2 17 5
13 3 -3 4 -12 1 -19z m508 -125 c-12 -150 -16 -177 -21 -182 -3 -3 -2 48 2
114 4 66 7 126 7 133 0 6 4 12 9 12 6 0 7 -33 3 -77z m102 20 c-3 -10 -5 -2
-5 17 0 19 2 27 5 18 2 -10 2 -26 0 -35z m-563 -248 c-4 -8 -8 -15 -10 -15 -2
0 -4 7 -4 15 0 8 4 15 10 15 5 0 7 -7 4 -15z m361 -140 c-2 -28 -8 -72 -13
-100 -6 -27 -13 -70 -16 -95 -3 -25 -8 -56 -11 -70 -3 -14 -7 -36 -9 -50 -2
-14 -7 -36 -10 -50 -5 -23 -16 -98 -18 -127 -1 -7 -4 -13 -7 -13 -3 0 -7 -19
-8 -43 -3 -62 -14 -151 -20 -157 -3 -3 -3 47 1 110 5 104 9 144 22 220 2 14 6
52 9 85 3 33 8 71 11 85 3 14 7 45 10 70 2 25 5 54 8 65 26 120 37 151 46 134
5 -8 7 -37 5 -64z m112 -87 c-3 -7 -5 -2 -5 12 0 14 2 19 5 13 2 -7 2 -19 0
-25z m-16 -110 c-20 -116 -22 -123 -33 -133 -7 -7 -9 -4 -5 10 3 11 8 34 11
50 16 95 28 146 33 141 3 -3 0 -33 -6 -68z m-109 -80 c-8 -8 -9 -4 -5 13 4 13
8 18 11 10 2 -7 -1 -18 -6 -23z m-228 -70 c-26 -89 -48 -148 -51 -144 -2 2 3
30 12 62 19 70 23 87 24 97 1 4 6 7 12 7 6 0 8 -9 3 -22z m212 -133 c0 -14 -4
-25 -8 -25 -10 0 -10 13 -2 34 9 23 12 20 10 -9z m57 -62 c-3 -18 -9 -30 -14
-28 -4 3 -3 19 3 36 13 37 17 34 11 -8z m-338 -38 c-9 -31 -19 -55 -21 -53 -2
3 4 30 13 61 9 32 18 56 20 53 2 -2 -3 -29 -12 -61z m271 13 c-9 -91 -15 -120
-27 -134 -15 -18 -20 -64 -8 -64 5 0 9 -4 9 -9 0 -5 -9 -7 -19 -4 -11 3 -18
10 -16 16 3 7 6 23 9 37 23 138 41 210 53 210 3 0 2 -24 -1 -52z m-493 -98
c-3 -11 -10 -23 -16 -27 -7 -4 -8 0 -4 11 4 10 7 22 7 27 0 5 4 9 9 9 5 0 7
-9 4 -20z m527 -37 c-11 -17 -11 -17 -6 0 3 10 7 28 7 40 2 22 2 22 6 0 2 -12
-1 -30 -7 -40z m-339 24 c-10 -9 -11 -8 -5 6 3 10 9 15 12 12 3 -3 0 -11 -7
-18z m35 -38 c-9 -19 -13 -23 -10 -10 6 21 8 31 14 66 1 6 4 3 7 -6 2 -9 -3
-32 -11 -50z m-49 -21 c-3 -8 -6 -5 -6 6 -1 11 2 17 5 13 3 -3 4 -12 1 -19z
m248 -37 c-2 -32 -8 -67 -14 -77 -11 -17 -11 -16 -5 5 3 14 7 49 7 78 0 29 3
53 7 53 4 0 6 -26 5 -59z m100 12 c-3 -21 -7 -45 -10 -53 -6 -23 -18 -113 -17
-132 0 -10 -4 -18 -9 -18 -6 0 -7 -4 -4 -10 3 -5 1 -10 -5 -10 -7 0 -9 8 -5
19 3 11 1 22 -5 26 -8 5 -6 15 5 32 10 14 13 23 8 20 -5 -3 -5 23 0 63 6 38
13 67 18 65 4 -3 10 4 14 15 10 33 17 23 10 -17z m-316 -25 c-5 -18 -11 -44
-14 -58 -3 -14 -11 -50 -19 -80 -8 -30 -17 -77 -21 -105 -10 -66 -28 -97 -21
-35 8 71 67 310 76 310 5 0 4 -15 -1 -32z m61 -15 c-11 -17 -11 -17 -6 0 3 10
6 24 7 30 0 9 2 9 5 0 3 -7 0 -20 -6 -30z m191 -24 c-9 -22 -10 -22 -10 -3 -1
11 2 24 6 27 12 12 14 0 4 -24z m99 -44 c0 -14 -4 -25 -9 -25 -4 0 -6 11 -3
25 2 14 6 25 8 25 2 0 4 -11 4 -25z m-114 -40 c-2 -30 -1 -55 4 -55 14 0 0
-84 -15 -96 -8 -6 -15 -17 -15 -25 0 -12 2 -12 9 0 7 10 9 7 8 -12 -2 -25 -17
-40 -17 -16 0 5 -5 7 -11 3 -8 -4 -9 3 -5 22 3 16 8 45 10 64 3 19 10 62 16
95 5 33 10 63 10 68 0 4 2 7 5 7 4 0 4 -25 1 -55z m108 -32 c-1 -21 -3 -66 -3
-100 -1 -35 -5 -63 -10 -63 -5 0 -8 12 -6 28 2 15 4 60 4 100 1 39 5 72 9 72
5 0 8 -17 6 -37z m-71 -94 c-8 -29 -13 -23 -13 14 0 22 3 28 9 18 5 -7 6 -22
4 -32z m-8 -39 c3 -5 1 -10 -4 -10 -6 0 -11 5 -11 10 0 6 2 10 4 10 3 0 8 -4
11 -10z m40 -54 c-2 -23 -6 -77 -10 -121 -10 -136 -15 -179 -22 -184 -5 -6 2
126 13 224 2 22 5 64 6 93 1 29 5 47 9 40 4 -6 6 -30 4 -52z m-45 9 c0 -14 -4
-25 -9 -25 -4 0 -6 11 -3 25 2 14 6 25 8 25 2 0 4 -11 4 -25z m-338 -20 c-6
-36 -19 -40 -14 -4 2 16 8 29 12 29 4 0 5 -11 2 -25z m415 10 c0 -8 -4 -15 -9
-15 -10 0 -11 14 -1 23 9 10 10 9 10 -8z m-392 -62 c-3 -38 -8 -77 -10 -88 -2
-11 -7 -49 -10 -85 -3 -35 -8 -67 -12 -70 -5 -5 4 139 12 179 2 9 6 42 10 74
10 80 18 72 10 -10z m39 20 c-13 -197 -16 -226 -33 -280 -5 -17 -7 -34 -5 -37
2 -3 1 -4 -3 -1 -6 5 -5 92 1 126 6 29 16 106 21 164 6 55 11 75 19 75 2 0 2
-21 0 -47z m276 13 c0 -3 -4 -8 -10 -11 -5 -3 -10 -1 -10 4 0 6 5 11 10 11 6
0 10 -2 10 -4z m-350 -61 c0 -14 -4 -25 -9 -25 -4 0 -6 11 -3 25 2 14 6 25 8
25 2 0 4 -11 4 -25z m337 3 c-3 -8 -6 -5 -6 6 -1 11 2 17 5 13 3 -3 4 -12 1
-19z m76 -88 c-3 -12 -8 -19 -11 -16 -5 6 5 36 12 36 2 0 2 -9 -1 -20z m-136
-12 c-3 -8 -6 -5 -6 6 -1 11 2 17 5 13 3 -3 4 -12 1 -19z m220 -120 c-3 -8 -6
-5 -6 6 -1 11 2 17 5 13 3 -3 4 -12 1 -19z m-559 -33 c0 -19 -4 -35 -9 -35
-10 0 -11 16 -3 48 9 31 12 28 12 -13z m67 -57 c-1 -53 2 -86 9 -90 6 -5 7 -8
1 -8 -6 0 -9 -29 -8 -70 2 -60 0 -70 -15 -70 -15 0 -15 2 -2 10 8 5 10 10 5
10 -10 0 -11 40 -5 200 3 69 7 100 15 100 2 0 2 -37 0 -82z m359 -13 c3 -8 1
-15 -4 -15 -6 0 -10 7 -10 15 0 8 2 15 4 15 2 0 6 -7 10 -15z m-789 -70 c-9
-32 -18 -55 -21 -52 -3 3 2 30 11 62 9 31 19 54 22 51 3 -2 -3 -30 -12 -61z
m789 29 c3 -8 2 -12 -4 -9 -6 3 -10 10 -10 16 0 14 7 11 14 -7z m-547 -16 c-3
-8 -6 -5 -6 6 -1 11 2 17 5 13 3 -3 4 -12 1 -19z m120 -20 c-3 -8 -6 -5 -6 6
-1 11 2 17 5 13 3 -3 4 -12 1 -19z m433 -23 c0 -5 -5 -3 -10 5 -5 8 -10 20
-10 25 0 6 5 3 10 -5 5 -8 10 -19 10 -25z m-419 -39 c5 3 9 -2 9 -11 0 -9 -4
-14 -9 -10 -5 3 -12 -7 -14 -22 -2 -17 -4 -11 -5 17 0 25 2 39 5 32 2 -6 9
-10 14 -6z m-360 -27 c-5 -13 -10 -19 -10 -12 -1 15 10 45 15 40 3 -2 0 -15
-5 -28z m868 -41 c1 -28 -1 -49 -5 -46 -9 9 -14 109 -5 103 4 -2 9 -28 10 -57z
m-502 10 c-3 -8 -6 -5 -6 6 -1 11 2 17 5 13 3 -3 4 -12 1 -19z m-343 -10 c-4
-13 -7 -29 -7 -35 0 -7 -4 -13 -9 -13 -10 0 -10 1 3 39 12 35 24 43 13 9z
m-46 -19 c-6 -16 -12 -28 -14 -26 -5 5 13 57 20 57 3 0 0 -14 -6 -31z m382
-29 c5 0 8 -31 7 -70 -1 -38 -5 -70 -9 -70 -10 0 -10 6 -13 105 -1 44 0 70 3
58 2 -13 7 -23 12 -23z m-355 -40 c-4 -12 -9 -19 -12 -17 -3 3 -2 15 2 27 4
12 9 19 12 17 3 -3 2 -15 -2 -27z m30 -10 c-4 -17 -9 -29 -12 -26 -3 2 -2 19
2 36 4 17 9 29 12 26 3 -2 2 -19 -2 -36z m835 20 c0 -11 -2 -20 -4 -20 -2 0
-6 9 -9 20 -3 11 -1 20 4 20 5 0 9 -9 9 -20z m-103 -42 c-3 -8 -6 -5 -6 6 -1
11 2 17 5 13 3 -3 4 -12 1 -19z m103 -23 c0 -19 -2 -35 -4 -35 -2 0 -6 16 -8
35 -2 19 0 35 4 35 4 0 8 -16 8 -35z m-343 3 c-3 -8 -6 -5 -6 6 -1 11 2 17 5
13 3 -3 4 -12 1 -19z m-733 -104 c-24 -58 -44 -112 -44 -119 0 -7 -7 -15 -15
-19 -8 -3 -15 -12 -15 -21 0 -8 -4 -15 -10 -15 -11 0 -7 13 40 110 20 41 45
96 55 123 10 26 21 47 26 47 4 0 -12 -48 -37 -106z m419 76 c-3 -12 -8 -19
-11 -16 -5 6 5 36 12 36 2 0 2 -9 -1 -20z m321 -6 c3 -8 2 -12 -4 -9 -6 3 -10
10 -10 16 0 14 7 11 14 -7z m263 -6 c-3 -8 -6 -5 -6 6 -1 11 2 17 5 13 3 -3 4
-12 1 -19z m-1042 -58 c-9 -16 -18 -30 -21 -30 -2 0 2 14 11 30 9 17 18 30 21
30 2 0 -2 -13 -11 -30z m410 21 c-3 -5 -8 -31 -11 -58 -3 -26 -10 -66 -15 -88
-5 -22 -11 -44 -12 -50 -1 -5 -6 -16 -10 -23 -5 -7 -11 -25 -13 -40 -7 -41
-48 -142 -57 -142 -5 0 -5 -4 -2 -10 3 -5 2 -17 -3 -27 -8 -13 -9 -11 -8 13 2
27 20 84 52 164 8 19 16 44 19 55 2 11 11 46 19 77 9 32 18 72 21 89 6 34 13
49 21 49 3 0 3 -4 -1 -9z m709 -16 c-4 -8 -8 -15 -10 -15 -2 0 -4 7 -4 15 0 8
4 15 10 15 5 0 7 -7 4 -15z m-66 -73 c7 -139 10 -293 4 -287 -4 4 -8 43 -9 88
-2 45 -4 121 -6 169 -3 89 6 114 11 30z m-1100 -28 c-27 -59 -27 -58 -33 -53
-2 3 7 29 21 58 13 30 27 52 30 49 3 -3 -5 -28 -18 -54z m1166 40 c3 -8 2 -12
-4 -9 -6 3 -10 10 -10 16 0 14 7 11 14 -7z m-759 -34 c3 -5 1 -10 -4 -10 -6 0
-11 5 -11 10 0 6 2 10 4 10 3 0 8 -4 11 -10z m-454 -97 c-12 -20 -14 -14 -5
12 4 9 9 14 11 11 3 -2 0 -13 -6 -23z m1212 -18 c-7 -21 -13 -19 -13 6 0 11 4
18 10 14 5 -3 7 -12 3 -20z m-1163 11 c0 -11 -82 -177 -86 -173 -2 2 9 34 25
71 17 36 28 66 25 66 -2 0 0 9 6 20 9 17 30 28 30 16z m103 -16 c-3 -12 -8
-19 -11 -16 -5 6 5 36 12 36 2 0 2 -9 -1 -20z m1061 -47 c-1 -16 -3 -32 -3
-38 -1 -5 -5 -4 -10 3 -9 14 -3 62 8 62 4 0 6 -12 5 -27z m-1084 -14 c-10 -34
-20 -50 -20 -31 0 14 18 62 24 62 3 0 1 -14 -4 -31z m416 14 c-4 -9 -9 -32
-12 -50 -3 -19 -16 -56 -30 -81 -19 -37 -23 -41 -18 -17 4 17 13 48 20 70 8
22 14 48 14 58 0 9 5 17 11 17 5 0 7 5 4 10 -3 6 -1 10 5 10 7 0 9 -7 6 -17z
m204 -18 c0 -8 -2 -15 -4 -15 -2 0 -6 7 -10 15 -3 8 -1 15 4 15 6 0 10 -7 10
-15z m-790 -10 c0 -8 -4 -15 -10 -15 -5 0 -7 7 -4 15 4 8 8 15 10 15 2 0 4 -7
4 -15z m-28 -72 c-19 -56 -20 -58 -27 -51 -6 6 31 98 39 98 3 0 -3 -21 -12
-47z m1278 37 c0 -5 -2 -10 -4 -10 -3 0 -8 5 -11 10 -3 6 -1 10 4 10 6 0 11
-4 11 -10z m-473 -37 c-5 -41 -23 -131 -27 -143 -1 -3 -2 -8 -1 -12 0 -5 -3
-8 -9 -8 -13 0 -13 16 -1 39 5 9 12 35 14 57 6 51 18 104 24 104 3 0 3 -17 0
-37z m473 -3 c0 -5 -2 -10 -4 -10 -3 0 -8 5 -11 10 -3 6 -1 10 4 10 6 0 11 -4
11 -10z m-1149 -27 c-12 -20 -14 -14 -5 12 4 9 9 14 11 11 3 -2 0 -13 -6 -23z
m-50 -16 c-10 -9 -11 -8 -5 6 3 10 9 15 12 12 3 -3 0 -11 -7 -18z m1136 -9
c-3 -8 -6 -5 -6 6 -1 11 2 17 5 13 3 -3 4 -12 1 -19z m-1200 -18 c-6 -16 -15
-30 -18 -30 -4 0 -2 14 4 30 6 17 15 30 18 30 4 0 2 -13 -4 -30z m-56 -41
c-29 -70 -34 -84 -33 -91 1 -5 -2 -8 -6 -8 -5 0 -9 -6 -9 -12 -1 -25 -55 -178
-63 -178 -9 0 -6 16 21 112 11 37 24 70 29 73 6 4 8 11 5 16 -4 5 -2 9 4 9 5
0 13 10 17 23 14 45 45 110 49 105 3 -3 -3 -25 -14 -49z m712 36 c-3 -9 -8
-14 -10 -11 -3 3 -2 9 2 15 9 16 15 13 8 -4z m162 -6 c-6 -29 -15 -37 -15 -12
0 17 8 33 16 33 2 0 1 -10 -1 -21z m-776 -32 c-12 -43 -22 -50 -13 -9 9 42 14
55 19 50 2 -2 0 -21 -6 -41z m54 18 c-7 -21 -13 -19 -13 6 0 11 4 18 10 14 5
-3 7 -12 3 -20z m1104 3 c-3 -8 -6 -5 -6 6 -1 11 2 17 5 13 3 -3 4 -12 1 -19z
m-722 -27 c-3 -12 -11 -21 -16 -21 -6 0 -8 3 -6 8 2 4 7 16 11 26 9 25 20 13
11 -13z m674 -12 c-12 -23 -34 -26 -25 -3 3 9 6 20 6 25 0 4 7 6 15 3 11 -5
12 -11 4 -25z m-1175 6 c-4 -8 -8 -15 -10 -15 -2 0 -4 7 -4 15 0 8 4 15 10 15
5 0 7 -7 4 -15z m396 -5 c-6 -11 -13 -20 -16 -20 -2 0 0 9 6 20 6 11 13 20 16
20 2 0 0 -9 -6 -20z m828 -5 c-1 -14 -6 -25 -10 -25 -10 0 -10 13 -2 34 9 23
14 19 12 -9z m-701 -2 c-2 -10 -8 -28 -15 -39 -6 -12 -9 -24 -6 -26 3 -3 -2
-8 -10 -11 -11 -5 -10 5 6 44 21 51 30 62 25 32z m309 -15 c-3 -18 -10 -58
-17 -88 -6 -30 -11 -61 -12 -67 0 -7 -5 -13 -10 -13 -5 0 -7 10 -4 23 11 42
31 162 29 170 -1 4 3 7 9 7 6 0 8 -13 5 -32z m-404 -46 c-16 -29 -32 -49 -37
-45 -4 5 -5 3 -1 -4 4 -7 -2 -21 -12 -31 -10 -10 -24 -33 -32 -52 -8 -19 -16
-37 -20 -40 -3 -3 -11 -16 -18 -30 -6 -14 -16 -32 -22 -40 -5 -8 -33 -54 -61
-102 -28 -49 -53 -88 -54 -88 -2 0 2 14 8 30 6 17 15 30 19 30 4 0 8 5 8 11 0
6 15 36 33 67 77 135 80 176 5 75 -54 -74 -105 -126 -95 -98 4 11 -11 0 -33
-25 -25 -29 -40 -39 -40 -29 0 9 18 34 41 55 55 53 103 103 131 139 12 17 30
38 38 47 8 9 40 55 70 102 57 87 72 102 63 64 -4 -22 -4 -23 11 -4 9 11 16 25
17 30 0 8 2 8 5 0 2 -5 -8 -34 -24 -62z m46 28 c-7 -10 -14 -18 -15 -16 -6 6
9 36 18 36 5 0 4 -9 -3 -20z m429 -2 c-3 -8 -6 -5 -6 6 -1 11 2 17 5 13 3 -3
4 -12 1 -19z m309 -55 c-3 -32 -8 -69 -11 -83 -2 -14 -7 -42 -9 -63 -3 -21 -8
-43 -12 -49 -8 -12 -13 -45 -14 -82 -1 -10 -8 -32 -16 -48 -8 -16 -12 -33 -9
-38 3 -6 1 -10 -5 -10 -6 0 -8 -4 -5 -10 3 -5 1 -10 -5 -10 -6 0 -9 -4 -6 -8
2 -4 -4 -26 -14 -49 -10 -23 -15 -45 -12 -49 4 -4 2 -4 -5 0 -9 5 -10 14 -2
34 6 15 13 36 15 47 2 11 10 36 18 55 20 47 63 241 71 315 8 75 14 105 21 105
3 0 3 -26 0 -57z m-1345 0 c-12 -20 -14 -14 -5 12 4 9 9 14 11 11 3 -2 0 -13
-6 -23z m596 -45 c-14 -24 -25 -46 -26 -51 -2 -20 -33 -67 -44 -67 -7 0 -8 3
-2 8 6 4 25 40 44 80 19 39 39 72 44 72 5 0 -2 -19 -16 -42z m-609 -10 c-6
-18 -13 -27 -15 -21 -4 11 13 53 22 53 2 0 -1 -15 -7 -32z m569 5 c-7 -16 -27
-57 -45 -93 -27 -53 -30 -65 -18 -72 12 -7 11 -15 -8 -51 -12 -23 -26 -51 -30
-61 -7 -20 -7 -20 15 0 l22 19 -17 -32 c-9 -18 -19 -33 -22 -33 -3 0 -2 5 1
10 3 6 2 10 -4 10 -5 0 -9 -12 -9 -27 0 -16 -12 -50 -27 -76 -29 -52 -47 -59
-21 -8 9 16 12 32 7 35 -4 3 -21 -20 -36 -52 -16 -31 -40 -77 -54 -102 -14
-24 -26 -50 -27 -57 -1 -7 -13 -30 -26 -50 -12 -21 -22 -41 -20 -45 1 -5 -2
-8 -8 -8 -6 0 -9 -3 -8 -7 1 -5 -3 -18 -10 -29 -6 -12 -8 -24 -5 -28 3 -3 1
-6 -5 -6 -7 0 -12 -5 -12 -11 0 -19 -40 -99 -50 -99 -14 0 -14 -1 20 73 17 37
30 72 30 78 0 6 9 23 20 39 11 15 17 30 13 34 -3 3 -1 6 5 6 7 0 11 3 10 8 -3
14 52 122 62 122 6 0 8 5 5 10 -3 6 -1 10 5 10 6 0 9 4 5 9 -8 14 27 81 38 74
6 -3 7 -1 3 5 -4 6 5 34 19 62 14 29 24 57 22 63 -2 7 9 33 24 58 14 25 30 55
33 67 4 11 14 23 22 26 8 3 12 10 9 16 -3 5 -1 10 5 10 6 0 9 4 6 8 -3 5 8 28
25 53 16 24 29 50 29 57 0 6 4 12 10 12 5 0 4 -12 -3 -27z m-593 -95 c-3 -29
-14 -72 -24 -95 -11 -24 -17 -43 -15 -43 2 0 -3 -17 -12 -37 -8 -21 -19 -49
-24 -62 -5 -13 -12 -21 -15 -18 -3 3 1 18 10 35 8 16 17 41 20 55 2 15 7 30
10 35 3 5 8 24 11 43 3 19 9 45 14 59 5 14 12 37 15 53 10 46 16 30 10 -25z
m1001 15 c-9 -57 -25 -125 -31 -134 -3 -6 -7 -23 -9 -37 -1 -15 -10 -54 -20
-87 -9 -33 -17 -66 -18 -72 0 -7 -4 -13 -9 -13 -4 0 -7 -5 -5 -11 1 -6 -5 -14
-13 -16 -9 -3 -11 -1 -5 4 6 4 11 22 13 38 1 17 9 46 17 66 8 20 11 39 8 43
-4 3 -1 6 6 6 7 0 9 5 6 10 -4 6 3 43 15 83 12 40 24 80 26 90 10 53 27 79 19
30z m-351 -20 c-9 -21 -25 -53 -36 -70 -11 -18 -16 -33 -13 -33 4 0 3 -6 -3
-12 -5 -7 -29 -49 -52 -93 -24 -44 -56 -105 -73 -135 -93 -173 -114 -219 -116
-257 -1 -7 -5 -13 -10 -13 -5 0 -7 10 -4 23 4 22 4 22 -12 2 -22 -27 -94 -172
-89 -179 2 -4 -1 -2 -7 3 -8 7 -6 21 7 50 10 23 21 41 24 41 3 0 6 8 7 18 2
22 134 294 140 288 3 -2 -3 -18 -11 -35 -9 -16 -12 -32 -7 -35 5 -3 11 4 15
17 3 12 15 32 26 45 11 12 18 22 15 22 -3 0 7 19 22 43 15 23 54 96 88 162 92
179 95 185 100 185 2 0 -3 -17 -11 -37z m306 0 c0 -19 -3 -24 -10 -17 -6 6 -8
18 -4 27 9 24 14 21 14 -10z m-396 -47 c-3 -9 -10 -16 -15 -16 -6 0 -5 9 1 21
13 24 24 20 14 -5z m335 -15 c-6 -18 -14 -30 -17 -27 -2 3 1 19 8 36 7 17 14
29 16 27 2 -2 -1 -18 -7 -36z m46 12 c-4 -10 -8 -25 -10 -33 -2 -8 -8 -26 -14
-40 -10 -25 -10 -25 -10 -2 -1 25 24 92 35 92 3 0 3 -8 -1 -17z m-915 -43 c0
-5 -5 -10 -11 -10 -5 0 -7 5 -4 10 3 6 8 10 11 10 2 0 4 -4 4 -10z m860 -13
c0 -2 -9 -22 -20 -45 -11 -22 -20 -46 -20 -52 0 -5 -5 -10 -10 -10 -7 0 -7 6
0 19 17 32 33 75 32 84 -1 4 3 7 8 7 6 0 10 -1 10 -3z m-964 -53 c-4 -9 -9
-15 -11 -12 -3 3 -3 13 1 22 4 9 9 15 11 12 3 -3 3 -13 -1 -22z m1461 -16 c-3
-8 -6 -5 -6 6 -1 11 2 17 5 13 3 -3 4 -12 1 -19z m-494 -30 c-7 -37 -31 -98
-38 -98 -3 0 1 17 9 38 8 20 17 49 20 65 9 38 17 34 9 -5z m-878 -5 c-4 -16
-9 -41 -11 -58 -2 -16 -5 -36 -6 -42 -1 -7 -5 -13 -10 -13 -5 0 -7 -4 -4 -9 7
-10 -53 -146 -60 -138 -3 3 1 18 9 34 8 15 22 55 31 88 29 102 50 165 54 165
2 0 1 -12 -3 -27z m-35 -13 c-6 -11 -12 -20 -14 -20 -2 0 -2 9 1 20 3 11 9 20
15 20 5 0 4 -9 -2 -20z m414 -29 c-10 -17 -22 -31 -27 -31 -5 0 -3 10 5 23 8
12 18 28 22 35 5 7 10 11 13 8 3 -2 -3 -18 -13 -35z m448 22 c-6 -2 -10 -9 -6
-14 3 -5 0 -9 -5 -9 -12 0 -14 13 -4 23 3 4 11 7 17 6 6 0 5 -3 -2 -6z m-532
-33 c-6 -11 -13 -20 -16 -20 -2 0 0 9 6 20 6 11 13 20 16 20 2 0 0 -9 -6 -20z
m30 -10 c0 -5 -5 -10 -11 -10 -5 0 -7 5 -4 10 3 6 8 10 11 10 2 0 4 -4 4 -10z
m471 -23 c-10 -9 -11 -8 -5 6 3 10 9 15 12 12 3 -3 0 -11 -7 -18z m-958 -2
c-3 -9 -8 -14 -10 -11 -3 3 -2 9 2 15 9 16 15 13 8 -4z m413 -37 c-15 -24 -31
-55 -37 -70 -6 -16 -15 -28 -21 -28 -5 0 -7 -4 -3 -9 3 -6 -2 -14 -11 -19 -9
-5 -16 -13 -16 -18 0 -5 -8 -25 -18 -44 -18 -35 -20 -41 -20 -61 0 -5 -4 -8
-8 -5 -5 3 -9 0 -9 -7 0 -7 -23 -49 -52 -94 -28 -46 -51 -87 -51 -93 0 -5 -4
-10 -9 -10 -5 0 -8 14 -7 32 2 23 -4 39 -21 54 l-24 22 35 13 c20 7 36 17 36
21 0 13 44 78 53 78 5 0 5 -6 1 -12 -4 -7 7 3 24 22 17 19 54 77 83 128 29 50
55 92 59 92 4 0 12 11 18 25 6 14 14 25 18 25 3 0 -6 -19 -20 -42z m98 28 c-3
-8 -12 -17 -20 -20 -12 -4 -12 -2 -4 14 12 23 32 27 24 6z m637 -40 c-6 -14
-13 -26 -15 -26 -6 0 1 37 9 51 12 19 16 2 6 -25z m300 -3 c-12 -20 -14 -14
-5 12 4 9 9 14 11 11 3 -2 0 -13 -6 -23z m-1404 -26 c-7 -20 -15 -37 -19 -37
-11 0 -10 5 9 45 21 44 25 41 10 -8z m416 -2 c-9 -19 -18 -33 -21 -31 -4 5 26
66 33 66 3 0 -3 -16 -12 -35z m517 -15 c-26 -52 -33 -52 -12 0 9 22 20 40 25
40 4 0 -2 -18 -13 -40z m-550 20 c0 -5 -5 -10 -11 -10 -5 0 -7 5 -4 10 3 6 8
10 11 10 2 0 4 -4 4 -10z m618 -15 c-6 -14 -13 -24 -14 -22 -6 6 9 47 17 47 5
0 3 -11 -3 -25z m397 3 c-2 -7 -6 -24 -9 -38 -5 -29 -24 -80 -30 -80 -7 0 -4
55 4 65 4 6 10 22 14 38 3 15 11 27 16 27 5 0 7 -6 5 -12z m-1045 -38 c-6 -12
-14 -20 -17 -17 -2 3 1 14 8 26 17 26 24 19 9 -9z m1074 -2 c-4 -13 -7 -27 -6
-31 1 -5 -2 -6 -7 -3 -6 4 -6 17 1 37 6 16 12 28 15 25 3 -2 1 -15 -3 -28z
m-1469 -40 c-15 -24 -29 -51 -32 -60 -3 -10 -9 -18 -14 -18 -5 0 5 27 23 60
17 33 35 60 40 60 5 0 -3 -19 -17 -42z m435 38 c0 -3 -4 -8 -10 -11 -5 -3 -10
-1 -10 4 0 6 5 11 10 11 6 0 10 -2 10 -4z m-527 -34 c-9 -16 -22 -29 -30 -29
-19 0 -16 14 7 37 29 29 42 24 23 -8z m47 -12 c-6 -11 -12 -20 -14 -20 -2 0
-2 9 1 20 3 11 9 20 15 20 5 0 4 -9 -2 -20z m65 -19 c-21 -43 -29 -39 -8 4 9
19 18 33 21 31 2 -2 -4 -18 -13 -35z m321 -105 c-41 -80 -88 -165 -105 -189
-17 -25 -27 -47 -24 -51 4 -3 1 -6 -5 -6 -7 0 -12 -8 -12 -17 0 -9 -7 -24 -15
-33 -8 -9 -25 -42 -38 -74 -21 -50 -25 -55 -37 -41 -7 9 -19 14 -27 11 -21 -8
-16 37 7 56 10 10 33 45 50 79 17 33 34 59 36 56 3 -3 -2 -19 -10 -36 -9 -17
-15 -32 -14 -33 1 -2 -6 -12 -15 -23 -9 -11 -18 -24 -18 -30 0 -5 -5 -15 -10
-22 -7 -7 -6 -14 1 -18 5 -3 10 1 10 9 0 9 4 16 9 16 4 0 19 21 32 48 13 26
26 49 29 52 3 3 15 25 28 50 54 107 106 199 143 256 21 33 39 66 39 72 0 7 5
12 10 12 6 0 -23 -65 -64 -144z m529 85 c-19 -38 -28 -41 -14 -5 13 35 20 46
26 41 2 -3 -3 -19 -12 -36z m-830 -22 c-13 -24 -25 -40 -25 -36 0 13 41 89 46
84 2 -2 -7 -24 -21 -48z m102 29 c-3 -8 -6 -5 -6 6 -1 11 2 17 5 13 3 -3 4
-12 1 -19z m-239 -14 c-9 -18 -9 -27 -1 -32 11 -7 -93 -187 -117 -202 -6 -4
-11 -10 -10 -14 5 -20 -220 -256 -243 -256 -5 0 2 9 17 21 14 11 26 24 26 29
0 5 29 38 64 73 63 65 132 154 124 163 -3 2 -25 -19 -49 -48 -60 -71 -222
-233 -291 -291 l-56 -48 -26 24 -25 24 37 22 c62 37 104 69 181 139 40 37 81
72 90 77 48 29 175 178 252 298 34 52 45 61 27 21z m32 -4 c-6 -11 -15 -20
-21 -20 -6 0 -6 7 1 20 6 11 15 20 21 20 6 0 6 -7 -1 -20z m40 -50 c-6 -11
-13 -20 -16 -20 -2 0 0 9 6 20 6 11 13 20 16 20 2 0 0 -9 -6 -20z m-146 -12
c-21 -35 -84 -108 -84 -98 0 6 19 34 42 61 39 47 58 63 42 37z m114 -48 c-7
-11 -16 -20 -21 -20 -4 0 -3 9 3 20 6 11 15 20 20 20 6 0 5 -9 -2 -20z m869
14 c-3 -3 -12 -4 -19 -1 -8 3 -5 6 6 6 11 1 17 -2 13 -5z m-834 -19 c-3 -9 -8
-14 -10 -11 -3 3 -2 9 2 15 9 16 15 13 8 -4z m495 -32 c-30 -69 -41 -77 -15
-10 12 31 25 57 29 57 4 0 -2 -21 -14 -47z m53 24 c-10 -9 -11 -8 -5 6 3 10 9
15 12 12 3 -3 0 -11 -7 -18z m254 -37 c-9 -16 -17 -30 -20 -30 -2 0 1 14 6 30
6 17 15 30 20 30 5 0 3 -13 -6 -30z m67 -82 c-62 -125 -88 -168 -102 -168 -6
0 1 18 15 40 14 22 48 85 76 140 29 55 54 98 57 96 2 -3 -18 -52 -46 -108z
m78 62 c-16 -31 -23 -18 -8 15 7 15 14 23 16 17 2 -6 -2 -21 -8 -32z m51 -18
c-6 -11 -7 -22 -4 -26 3 -3 0 -6 -7 -6 -7 0 -10 -3 -7 -7 4 -3 0 -17 -8 -29
-9 -14 -11 -25 -5 -29 14 -9 12 -21 -5 -39 -9 -8 -16 -18 -15 -21 1 -20 -2
-26 -22 -35 -19 -9 -21 -9 -8 2 8 7 15 26 14 41 -1 27 65 182 73 173 3 -2 0
-13 -6 -24z m-73 -34 c-7 -13 -11 -26 -10 -30 1 -5 -2 -8 -6 -8 -4 0 -9 -12
-10 -26 -2 -32 -51 -116 -63 -108 -5 3 -6 -2 -3 -10 6 -16 -25 -76 -39 -76 -4
0 -6 -4 -3 -9 3 -4 -1 -16 -8 -26 -13 -18 -13 -18 -11 1 4 32 17 64 26 64 5 0
9 6 9 14 0 22 110 236 121 236 6 0 4 -10 -3 -22z m-615 -18 c-3 -11 -10 -20
-15 -20 -5 0 -7 -3 -4 -8 2 -4 -11 -39 -30 -77 -19 -38 -34 -77 -34 -87 0 -10
-5 -18 -11 -18 -5 0 -8 -4 -4 -9 7 -13 -46 -121 -57 -115 -4 3 -5 -1 -2 -9 3
-10 -3 -16 -20 -19 -22 -4 -24 -2 -24 23 1 16 5 26 9 23 5 -3 15 8 21 23 7 15
18 34 25 41 7 7 13 20 13 28 0 8 5 14 12 14 6 0 8 3 5 6 -6 6 4 30 40 94 8 14
22 41 31 60 9 19 20 37 25 38 4 2 7 10 7 18 0 8 4 14 9 14 5 0 7 -9 4 -20z
m-473 -30 c-6 -11 -15 -20 -20 -20 -6 0 -2 9 7 20 10 11 19 20 21 20 1 0 -2
-9 -8 -20z m1590 5 c-6 -8 -9 -18 -7 -23 7 -10 -10 -39 -18 -31 -8 9 15 69 27
69 6 0 6 -6 -2 -15z m-1945 -15 c-3 -5 -13 -10 -21 -10 -8 0 -14 5 -14 10 0 6
9 10 21 10 11 0 17 -4 14 -10z m895 -8 c0 -5 -7 -17 -15 -28 -14 -18 -14 -17
-4 9 12 27 19 34 19 19z m-520 -20 c0 -4 -11 -21 -25 -37 -13 -17 -40 -50 -60
-73 -19 -24 -35 -37 -35 -29 0 8 7 21 17 28 9 8 34 38 55 66 38 52 48 61 48
45z m-260 -12 c0 -5 -5 -10 -11 -10 -5 0 -7 5 -4 10 3 6 8 10 11 10 2 0 4 -4
4 -10z m273 -27 c-4 -10 -15 -27 -25 -37 -10 -11 -18 -23 -18 -28 0 -4 -9 -12
-21 -19 -15 -7 -9 6 21 45 45 59 54 67 43 39z m-93 -12 c-10 -20 -30 -37 -30
-26 0 11 25 45 33 45 4 0 3 -9 -3 -19z m574 4 c-4 -8 -10 -15 -15 -15 -4 0 -6
7 -3 15 4 8 10 15 15 15 4 0 6 -7 3 -15z m270 -22 c-21 -51 -54 -103 -64 -103
-12 0 19 76 42 100 10 11 16 20 13 20 -3 0 -3 5 0 10 16 26 22 6 9 -27z m833
0 c-2 -15 -10 -29 -18 -31 -8 -2 -10 0 -4 5 6 4 10 14 11 21 2 25 4 32 9 32 3
0 4 -12 2 -27z m-1389 -25 c-2 -13 -11 -24 -22 -26 -22 -5 -47 -27 -41 -36 3
-3 -2 0 -10 7 -20 17 -10 44 24 62 38 21 53 19 49 -7z m269 -15 c-6 -21 -16
-41 -22 -45 -5 -4 -7 -8 -3 -8 4 0 2 -15 -3 -32 -11 -34 -20 -92 -23 -142 -1
-18 -10 -35 -26 -45 l-24 -16 18 27 c10 16 16 34 13 41 -4 12 -1 37 19 134 2
12 9 35 16 50 6 16 11 31 10 36 -1 4 3 7 8 7 6 0 9 3 9 8 -2 14 1 22 10 22 5
0 4 -17 -2 -37z m583 13 c0 -3 -4 -8 -10 -11 -5 -3 -10 -1 -10 4 0 6 5 11 10
11 6 0 10 -2 10 -4z m-162 -26 c-7 -11 -16 -20 -21 -20 -4 0 -3 9 3 20 6 11
15 20 20 20 6 0 5 -9 -2 -20z m-118 -20 c-6 -12 -14 -19 -17 -17 -2 3 1 15 7
27 6 12 14 19 17 17 2 -3 -1 -15 -7 -27z m-254 -29 c-7 -14 -16 -33 -20 -41
-6 -13 -2 6 9 50 2 8 4 22 4 30 1 13 3 13 10 1 6 -10 5 -24 -3 -40z m508 15
c-3 -9 -10 -16 -15 -16 -6 0 -5 9 1 21 13 24 24 20 14 -5z m463 9 c0 -8 -6
-16 -14 -19 -11 -4 -11 -1 -3 14 13 24 17 25 17 5z m-1577 -15 c-6 -11 -16
-20 -23 -20 -7 0 -6 4 3 10 8 5 11 10 7 10 -12 0 2 20 14 20 6 0 6 -8 -1 -20z
m940 -20 c-6 -12 -14 -19 -17 -17 -2 3 1 15 7 27 6 12 14 19 17 17 2 -3 -1
-15 -7 -27z m711 -7 c-12 -20 -14 -14 -5 12 4 9 9 14 11 11 3 -2 0 -13 -6 -23z
m-888 -13 c-10 -11 -19 -20 -21 -20 -1 0 2 9 8 20 6 11 15 20 20 20 6 0 2 -9
-7 -20z m2854 -15 c0 -8 -4 -15 -8 -15 -11 0 -20 16 -12 24 11 11 20 7 20 -9z
m-2707 -15 c-6 -11 -16 -20 -23 -19 -9 0 -9 2 1 6 6 2 12 11 12 19 0 8 5 14
10 14 7 0 7 -6 0 -20z m571 13 c-11 -5 -11 -7 0 -15 10 -6 7 -7 -8 -3 -13 3
-23 3 -23 -2 0 -5 -12 -9 -27 -10 -27 -2 -27 -2 7 17 19 11 42 19 50 19 12 0
12 -2 1 -6z m161 -5 c-5 -7 -12 -22 -15 -33 -4 -16 -5 -15 -6 6 -1 27 6 39 22
39 6 0 5 -5 -1 -12z m28 -48 c-18 -34 -29 -13 -11 23 12 25 17 29 19 16 2 -10
-2 -27 -8 -39z m-1226 35 c-4 -8 -8 -15 -10 -15 -2 0 -4 7 -4 15 0 8 4 15 10
15 5 0 7 -7 4 -15z m932 6 c-4 -5 -1 -11 6 -13 7 -3 3 -7 -10 -10 -19 -5 -20
-4 -11 13 5 10 12 19 15 19 3 0 3 -4 0 -9z m-1479 -35 c-15 -18 -23 -36 -20
-40 4 -3 2 -6 -4 -6 -6 0 -14 -11 -17 -25 -4 -14 -11 -25 -17 -25 -6 0 -7 -4
-4 -10 3 -5 -5 -31 -19 -57 -22 -42 -25 -45 -26 -21 0 34 10 59 21 52 5 -3 6
1 3 9 -6 15 25 69 70 123 36 44 46 44 13 0z m1088 24 c-3 -5 -11 -10 -16 -10
-6 0 -7 5 -4 10 3 6 11 10 16 10 6 0 7 -4 4 -10z m-1029 -47 c-8 -15 -15 -25
-16 -21 0 12 23 58 27 54 3 -2 -2 -17 -11 -33z m-172 -7 c-3 -9 -10 -13 -16
-10 -5 3 -4 12 3 20 15 18 22 13 13 -10z m1079 -21 c-3 -9 -8 -14 -10 -11 -3
3 -2 9 2 15 9 16 15 13 8 -4z m-1055 -17 c-8 -13 -23 -38 -32 -56 -9 -18 -21
-30 -27 -27 -5 4 4 23 21 43 16 20 30 42 30 49 0 7 5 13 11 13 7 0 6 -8 -3
-22z m993 -25 c-12 -20 -14 -14 -5 12 4 9 9 14 11 11 3 -2 0 -13 -6 -23z
m-206 7 c-3 -5 -13 -10 -21 -10 -8 0 -14 -5 -14 -11 0 -12 -46 -59 -58 -59 -4
0 -13 4 -20 9 -11 7 -10 9 3 14 10 5 14 3 9 -4 -4 -7 -1 -10 7 -7 8 3 13 12
13 21 -1 10 15 24 40 37 47 23 49 24 41 10z m429 -46 c-7 -3 -10 -15 -7 -27 4
-20 3 -20 -7 -4 -12 19 -6 37 13 36 9 0 9 -2 1 -5z m-409 -34 c-3 -5 -12 -10
-18 -10 -7 0 -6 4 3 10 19 12 23 12 15 0z m76 -23 c-10 -9 -11 -8 -5 6 3 10 9
15 12 12 3 -3 0 -11 -7 -18z m-206 -2 c-11 -8 -27 -20 -35 -28 -15 -14 -70
-45 -60 -34 17 18 97 77 105 77 6 -1 1 -7 -10 -15z m532 -17 c-3 -8 -6 -5 -6
6 -1 11 2 17 5 13 3 -3 4 -12 1 -19z m-331 -14 c-3 -9 -6 -20 -6 -25 0 -5 -4
-9 -10 -9 -5 0 -10 7 -10 15 0 8 5 15 11 15 5 0 7 5 4 10 -3 6 -1 10 5 10 7 0
9 -7 6 -16z m29 -1 c-4 -10 -9 -31 -12 -48 -6 -34 -26 -53 -31 -28 -2 8 0 18
5 22 5 3 15 21 22 39 8 17 16 32 18 32 3 0 2 -8 -2 -17z m890 -33 c-3 -5 -12
-10 -18 -10 -7 0 -6 4 3 10 19 12 23 12 15 0z m30 -103 c-9 -5 -22 -10 -28
-11 -7 -1 -24 -10 -39 -20 -17 -11 -35 -15 -45 -11 -15 6 -13 9 12 20 17 7 33
11 36 9 4 -2 9 3 12 10 4 9 19 14 37 14 26 -1 29 -3 15 -11z m42 -49 c-3 -8
-6 -5 -6 6 -1 11 2 17 5 13 3 -3 4 -12 1 -19z m-322 -96 c-3 -3 -11 0 -18 7
-9 10 -8 11 6 5 10 -3 15 -9 12 -12z m-464 -6 c-6 -8 -25 -19 -42 -26 -16 -7
-28 -15 -26 -17 3 -2 -5 -15 -16 -28 -22 -23 -37 -24 -37 -2 0 7 4 6 10 -3 8
-13 10 -12 10 3 0 9 5 17 11 17 5 0 7 4 4 10 -3 5 12 17 34 26 23 9 41 20 41
25 0 5 5 9 11 9 8 0 8 -4 0 -14z"/>
<path d="M3490 11805 c0 -7 7 -12 15 -11 24 4 27 13 5 19 -13 3 -20 0 -20 -8z"/>
<path d="M3490 11768 c0 -10 6 -18 14 -18 19 0 29 17 16 25 -5 3 -10 0 -10 -7
0 -9 -3 -9 -10 2 -8 13 -10 12 -10 -2z"/>
<path d="M3515 11260 c-8 -13 5 -13 25 0 13 8 13 10 -2 10 -9 0 -20 -4 -23
-10z"/>
<path d="M3534 11240 c-20 -8 -42 -30 -30 -30 3 0 20 9 38 20 34 20 30 25 -8
10z"/>
<path d="M3534 11126 c-29 -22 -13 -24 26 -4 26 13 30 18 14 18 -11 0 -29 -6
-40 -14z"/>
<path d="M3540 11005 c-16 -19 -10 -19 26 0 25 13 26 15 8 15 -12 0 -27 -7
-34 -15z"/>
<path d="M3600 10880 c-9 -6 -10 -10 -3 -10 6 0 15 5 18 10 8 12 4 12 -15 0z"/>
<path d="M3604 10850 c-12 -5 -25 -14 -29 -21 -5 -7 -3 -9 6 -5 8 3 22 9 32
12 9 4 17 10 17 15 0 5 -1 9 -2 8 -2 0 -13 -4 -24 -9z"/>
<path d="M3628 10691 c11 -7 10 -10 -3 -15 -24 -9 -27 -8 -19 7 4 6 -1 5 -11
-5 -27 -26 -8 -42 22 -18 14 11 29 17 34 14 5 -3 9 -1 9 4 0 6 -7 13 -16 16
-22 9 -31 7 -16 -3z"/>
<path d="M3625 10640 c-3 -6 1 -7 9 -4 18 7 21 14 7 14 -6 0 -13 -4 -16 -10z"/>
<path d="M3623 10583 c-50 -25 -43 -46 7 -25 22 9 40 23 40 30 0 15 -7 15 -47
-5z"/>
<path d="M3613 10538 c-13 -6 -23 -15 -23 -20 0 -7 55 15 69 28 9 8 -25 2 -46
-8z"/>
<path d="M3650 10510 c8 -5 10 -10 4 -10 -12 0 -74 -53 -74 -63 0 -14 23 -6
52 18 16 14 38 25 49 25 10 0 19 5 19 10 0 6 -7 10 -15 10 -8 0 -15 5 -15 10
0 6 -8 10 -17 10 -15 0 -16 -2 -3 -10z"/>
<path d="M3590 10490 c-8 -5 -11 -12 -7 -16 4 -4 13 -2 19 4 15 15 7 24 -12
12z"/>
<path d="M3628 10438 c-42 -24 -51 -43 -16 -32 20 6 21 5 9 -10 -18 -22 -8
-20 31 5 32 20 32 21 6 15 -41 -9 -34 9 10 27 24 10 30 15 17 16 -11 0 -37 -9
-57 -21z"/>
<path d="M3659 10290 c-31 -25 -22 -25 32 0 38 17 40 20 18 20 -15 0 -37 -9
-50 -20z"/>
<path d="M3708 10273 c7 -3 16 -2 19 1 4 3 -2 6 -13 5 -11 0 -14 -3 -6 -6z"/>
<path d="M3668 10238 c-16 -5 -28 -14 -28 -19 0 -12 1 -12 51 11 45 20 27 27
-23 8z"/>
<path d="M2930 9772 c0 -23 5 -42 10 -42 7 0 8 14 4 38 -9 51 -14 53 -14 4z"/>
<path d="M2900 9742 c0 -11 4 -23 9 -27 6 -3 8 4 6 16 -6 30 -15 37 -15 11z"/>
<path d="M2797 9691 c-4 -17 -3 -21 5 -13 5 5 8 16 6 23 -3 8 -7 3 -11 -10z"/>
<path d="M2350 6925 c0 -8 4 -15 10 -15 5 0 7 7 4 15 -4 8 -8 15 -10 15 -2 0
-4 -7 -4 -15z"/>
<path d="M2375 6780 c3 -5 8 -10 11 -10 2 0 4 5 4 10 0 6 -5 10 -11 10 -5 0
-7 -4 -4 -10z"/>
<path d="M2380 6733 c0 -12 5 -25 10 -28 13 -8 13 15 0 35 -8 12 -10 11 -10
-7z"/>
<path d="M2391 6674 c0 -11 3 -14 6 -6 3 7 2 16 -1 19 -3 4 -6 -2 -5 -13z"/>
<path d="M566 1224 c-5 -14 -4 -15 9 -4 17 14 19 20 6 20 -5 0 -12 -7 -15 -16z"/>
<path d="M3047 11125 c-15 -22 -16 -25 -2 -25 9 0 15 -9 15 -25 0 -19 5 -25
23 -25 33 0 67 11 67 22 0 5 -6 5 -16 0 -39 -22 -62 7 -55 66 3 20 -13 13 -32
-13z"/>
<path d="M2510 11040 c0 -5 4 -10 9 -10 6 0 13 5 16 10 3 6 -1 10 -9 10 -9 0
-16 -4 -16 -10z"/>
<path d="M3227 10929 c-9 -5 -22 -7 -27 -4 -6 3 -10 1 -10 -4 0 -6 11 -11 25
-11 28 0 29 -3 15 -31 -9 -15 -7 -21 5 -25 9 -4 15 -14 14 -23 -3 -25 11 -51
28 -51 10 0 13 -6 9 -15 -3 -8 -9 -22 -12 -30 -3 -8 -2 -15 4 -15 5 0 17 17
25 37 15 38 15 38 -15 50 -25 11 -27 15 -18 32 14 27 13 31 -9 31 -19 0 -19 2
-5 35 15 38 7 45 -29 24z"/>
<path d="M3280 10701 c0 -6 5 -13 10 -16 7 -4 7 -12 0 -24 -5 -10 -6 -21 -3
-25 13 -12 30 38 19 57 -12 18 -26 23 -26 8z"/>
<path d="M3291 10560 c-1 -44 2 -60 11 -60 10 0 12 12 10 40 -3 29 1 47 13 60
18 19 17 20 -7 20 -24 0 -25 -3 -27 -60z"/>
<path d="M2553 10338 c0 -7 -3 -24 -7 -38 -7 -23 -6 -23 13 5 24 35 26 45 8
45 -8 0 -14 -6 -14 -12z"/>
<path d="M2760 10266 c0 -2 7 -20 15 -40 21 -49 37 -46 18 4 -9 22 -20 40 -25
40 -4 0 -8 -2 -8 -4z"/>
<path d="M2650 10200 c-8 -5 -11 -12 -8 -16 10 -9 38 3 38 16 0 12 -10 13 -30
0z"/>
<path d="M2596 10155 c-9 -14 -12 -25 -7 -25 12 0 35 39 28 46 -2 3 -12 -7
-21 -21z"/>
<path d="M2526 8782 c-2 -4 -1 -14 5 -22 7 -12 9 -10 9 8 0 23 -5 28 -14 14z"/>
<path d="M2140 8380 c-11 -21 -40 -163 -34 -169 2 -2 5 2 8 10 40 132 52 179
45 179 -4 0 -13 -9 -19 -20z"/>
<path d="M2391 8265 c0 -11 4 -29 9 -40 l9 -20 0 20 c0 11 -4 29 -9 40 l-9 20
0 -20z"/>
<path d="M2222 8170 c0 -14 2 -19 5 -12 2 6 2 18 0 25 -3 6 -5 1 -5 -13z"/>
<path d="M1986 8048 c-8 -30 -8 -73 0 -65 7 7 16 87 10 87 -2 0 -6 -10 -10
-22z"/>
<path d="M1992 7720 c-1 -25 7 -112 17 -195 27 -204 31 -393 16 -625 -12 -180
-50 -535 -60 -570 -3 -8 -7 -31 -9 -50 -42 -297 -69 -475 -80 -520 -66 -275
-158 -895 -181 -1225 -8 -122 -21 -249 -45 -445 -19 -164 -24 -227 -16 -219 5
5 11 34 21 104 4 22 11 67 16 100 5 33 12 77 14 99 3 21 7 57 9 80 5 41 10
107 21 281 3 50 11 128 16 175 6 47 13 105 15 130 3 25 9 70 14 100 5 30 12
82 15 115 4 33 10 85 16 115 5 30 12 84 15 120 3 36 8 68 10 71 4 7 60 285 69
344 2 11 12 70 24 130 30 161 85 533 96 650 4 33 8 67 10 75 2 8 7 49 10 90 3
41 8 100 10 130 28 344 25 510 -14 775 -11 77 -22 156 -24 175 -3 31 -4 29 -5
-10z"/>
<path d="M2181 5814 c0 -11 3 -14 6 -6 3 7 2 16 -1 19 -3 4 -6 -2 -5 -13z"/>
<path d="M1775 4129 c-4 -6 -5 -12 -2 -15 2 -3 7 2 10 11 7 17 1 20 -8 4z"/>
</g>
</svg>
