<?xml version="1.0" standalone="no"?>
<!DOCTYPE svg PUBLIC "-//W3C//DTD SVG 20010904//EN"
 "http://www.w3.org/TR/2001/REC-SVG-20010904/DTD/svg10.dtd">
<svg version="1.0" xmlns="http://www.w3.org/2000/svg"
 width="736.000000pt" height="1104.000000pt" viewBox="0 0 736.000000 1104.000000"
 preserveAspectRatio="xMidYMid meet">

<g transform="translate(0.000000,1104.000000) scale(0.100000,-0.100000)"
fill="#000000" stroke="none">
<path d="M1504 4501 c-4 -13 -18 -44 -30 -70 -13 -25 -24 -51 -24 -58 0 -7 -9
-17 -20 -23 -18 -10 -20 -21 -20 -113 1 -157 -19 -225 -66 -227 -6 0 -17 -7
-24 -15 -14 -17 -67 -20 -106 -5 -24 9 -31 7 -55 -16 -44 -42 -53 -84 -41
-178 6 -45 11 -92 10 -106 0 -41 12 -192 17 -199 2 -4 6 -34 10 -66 3 -33 8
-77 11 -99 8 -51 -7 -45 -49 20 -75 118 -100 154 -109 154 -5 0 -1 -11 8 -25
15 -23 15 -25 0 -19 -15 6 -22 -10 -17 -38 0 -4 -6 -5 -15 -1 -10 4 -14 13
-10 27 19 69 19 71 7 60 -7 -6 -15 -31 -18 -55 -7 -52 -20 -72 -42 -64 -12 4
-12 2 2 -9 16 -13 16 -14 -8 -20 -26 -7 -65 8 -65 24 0 5 7 7 15 4 28 -11 15
6 -25 31 -21 13 -46 22 -54 19 -8 -3 -32 6 -53 20 -33 23 -39 24 -52 11 -13
-12 -13 -25 -2 -92 14 -82 17 -158 8 -183 -16 -45 -27 -91 -33 -140 -3 -30
-14 -67 -25 -82 -24 -35 -24 -55 2 -120 17 -43 22 -83 26 -216 6 -150 4 -164
-13 -183 -10 -12 -29 -25 -42 -30 -21 -8 -23 -13 -16 -55 9 -65 9 -58 0 -171
-6 -76 -12 -103 -22 -103 -7 0 -18 9 -24 21 -6 11 -16 19 -22 17 -10 -4 -48
-102 -48 -126 0 -7 -11 -38 -25 -68 -14 -30 -25 -60 -25 -67 0 -17 -88 -125
-123 -151 -22 -16 -45 -22 -100 -23 -40 -1 -75 -2 -79 -3 -5 0 -8 -9 -8 -19 0
-11 -25 -41 -56 -68 -42 -38 -55 -55 -52 -72 l3 -23 30 23 30 23 -32 -35 -33
-35 0 -742 0 -742 3468 1 3467 1 -145 29 c-167 33 -280 54 -400 74 -117 20
-143 25 -160 30 -8 3 -33 7 -55 10 -22 4 -48 8 -57 11 -9 3 -65 13 -125 24
-59 10 -171 30 -248 45 -77 14 -153 28 -170 31 -16 3 -95 18 -175 35 -80 16
-206 41 -280 55 -219 40 -508 96 -750 144 -80 16 -163 32 -185 35 -22 4 -128
24 -235 45 -107 21 -283 55 -390 75 -107 20 -258 49 -335 65 -77 15 -161 31
-186 34 -53 8 -52 8 -65 132 l-7 67 24 -6 c31 -8 217 -34 292 -41 32 -3 66
-10 75 -15 9 -4 42 -12 72 -16 30 -3 66 -8 80 -10 14 -2 58 -10 99 -19 51 -11
79 -12 92 -5 15 7 19 6 19 -6 0 -18 1 -18 34 -5 21 8 26 7 26 -6 0 -10 6 -14
14 -11 7 3 18 1 23 -4 13 -13 45 1 39 17 -3 7 -1 16 4 19 9 6 14 -11 13 -42
-1 -7 3 -13 8 -13 5 0 9 5 9 10 0 6 5 10 11 10 7 0 18 8 25 17 7 10 16 15 20
10 4 -4 -3 -18 -16 -32 -23 -24 -23 -25 -3 -25 11 0 25 10 32 23 11 21 11 20
6 -7 -6 -29 -6 -29 18 -13 24 16 25 15 19 -6 -5 -20 -4 -21 13 -7 17 14 18 13
12 -2 -3 -10 -2 -20 2 -23 5 -2 11 5 14 16 6 22 27 18 27 -5 0 -8 14 -13 38
-13 20 -1 31 1 25 4 -15 5 -18 33 -4 33 5 0 11 -5 13 -12 2 -6 14 -13 27 -15
16 -2 22 1 18 9 -3 7 -8 22 -12 33 -7 20 -6 20 9 1 9 -11 16 -30 16 -43 0 -13
3 -22 8 -21 4 0 15 -2 25 -7 12 -5 25 -1 39 11 21 19 21 19 8 -5 -11 -22 -11
-23 8 -19 12 3 22 2 24 -3 2 -5 15 -10 31 -11 15 -1 27 -6 27 -11 0 -17 45 -1
52 18 5 16 6 15 7 -8 1 -17 5 -26 11 -22 6 4 10 12 9 18 -1 7 1 19 5 29 4 9 0
30 -10 50 -14 25 -19 29 -22 15 -3 -15 -6 -15 -23 5 -14 17 -17 18 -13 6 7
-21 -6 -23 -25 -6 -10 9 -12 9 -7 1 3 -6 2 -14 -4 -18 -6 -3 -13 1 -16 10 -4
9 -13 14 -20 11 -8 -3 -14 1 -14 9 0 8 -7 15 -15 15 -23 0 -29 1 -46 11 -13 7
-15 3 -13 -19 2 -15 1 -19 -2 -9 -3 9 -10 17 -15 17 -6 0 -7 -6 -3 -12 5 -9 2
-9 -9 1 -9 7 -17 21 -17 29 0 12 -3 13 -12 4 -9 -9 -14 -7 -24 6 -9 12 -13 13
-14 4 0 -9 -7 -11 -20 -7 -12 4 -20 2 -20 -5 0 -6 -5 -8 -11 -5 -6 4 -8 13 -5
21 4 12 2 12 -14 4 -19 -10 -24 -6 -21 13 2 11 -24 8 -38 -6 -11 -10 -12 -9
-6 2 6 11 4 13 -8 8 -9 -3 -19 -1 -23 5 -5 7 -11 2 -17 -13 l-10 -24 -7 25 -8
25 -1 -24 c-1 -30 -11 -21 -27 24 -11 33 -11 34 10 23 11 -6 21 -10 21 -8 0 3
30 -2 90 -14 29 -6 267 -57 285 -61 8 -2 65 -13 125 -25 61 -12 151 -31 200
-41 158 -34 559 -118 590 -123 17 -3 95 -19 175 -36 219 -47 421 -88 460 -95
19 -3 42 -8 50 -10 8 -3 78 -18 155 -34 361 -76 583 -122 725 -151 85 -18 159
-35 164 -37 4 -3 25 -8 45 -10 20 -2 52 -8 71 -13 19 -5 51 -12 70 -15 19 -3
74 -15 122 -26 99 -21 108 -22 108 -11 0 5 -37 17 -82 27 -159 34 -229 54
-256 73 -37 25 -115 62 -133 62 -8 0 -45 18 -83 40 -37 22 -72 40 -77 40 -14
0 -11 17 4 23 6 2 27 33 44 68 32 62 44 128 29 160 -4 10 13 55 50 125 31 60
62 134 70 164 16 65 18 200 4 251 -13 47 -71 94 -98 80 -62 -33 -190 -222
-177 -261 4 -14 -2 -30 -19 -51 -14 -17 -26 -34 -26 -38 0 -4 -11 -14 -25 -21
-14 -7 -25 -19 -25 -26 0 -8 -13 -20 -30 -29 -16 -9 -30 -22 -30 -30 0 -18
-51 -20 -68 -3 -9 9 -12 8 -12 -7 0 -16 -2 -17 -18 -3 -9 9 -27 19 -38 22 -12
4 -47 20 -77 37 l-56 30 20 39 c30 56 35 137 14 193 -9 25 -14 51 -10 57 5 9
1 10 -16 5 -38 -11 -169 -83 -201 -110 -16 -14 -34 -25 -39 -25 -5 0 -14 -11
-19 -24 -5 -14 -20 -32 -34 -41 -28 -19 -33 -17 -126 44 -92 60 -142 99 -222
176 -59 58 -80 85 -93 124 -9 27 -25 61 -35 74 -27 34 -135 124 -122 101 21
-35 62 -79 62 -66 0 7 5 10 10 7 6 -3 10 -11 10 -16 0 -6 -4 -7 -10 -4 -5 3
-10 2 -10 -4 0 -5 5 -13 10 -16 6 -3 10 -14 10 -23 0 -11 -6 -7 -18 13 -11 17
-27 36 -36 44 -23 19 -48 69 -41 81 3 5 -4 26 -15 47 -11 21 -20 42 -20 48 0
28 -23 85 -34 85 -27 0 -96 71 -106 109 -6 22 -21 46 -34 55 -39 25 -84 77
-117 134 -17 29 -34 51 -36 48 -12 -11 64 -120 115 -165 46 -42 54 -55 71
-119 10 -40 15 -72 10 -72 -5 0 -11 12 -15 27 -7 33 -42 113 -49 113 -2 0 -2
-7 1 -15 4 -8 3 -15 0 -15 -4 0 -16 20 -27 45 -11 25 -22 45 -25 45 -3 0 -2
-5 2 -12 4 -7 3 -8 -5 -4 -6 4 -17 22 -25 39 -16 37 -72 96 -60 62 7 -17 6
-18 -8 -7 -13 10 -18 10 -24 1 -4 -7 -3 -9 3 -6 17 11 75 -117 88 -192 3 -19
8 -38 11 -43 3 -4 3 -8 0 -8 -3 0 -25 41 -50 91 -47 93 -100 169 -118 169 -5
0 4 -16 21 -35 17 -20 31 -39 31 -43 0 -4 -14 8 -31 26 -17 19 -33 31 -36 28
-4 -3 -14 1 -24 10 -16 15 -17 14 -12 -7 5 -17 3 -20 -8 -13 -20 12 -39 14
-39 3 0 -6 -5 -7 -10 -4 -18 11 -6 -19 28 -68 18 -27 31 -55 28 -63 -3 -8 0
-13 6 -11 6 1 12 -3 15 -10 8 -22 -29 -7 -42 17 -12 22 -45 37 -45 20 0 -4
-13 4 -29 19 -18 17 -41 28 -59 28 l-29 0 21 -21 c12 -12 15 -16 6 -11 -45 29
-62 35 -87 28 -25 -6 -47 -9 -91 -12 -23 -2 -2 -21 22 -21 13 0 39 -12 58 -27
19 -16 54 -41 79 -56 24 -16 55 -43 68 -60 l25 -32 -25 21 c-62 52 -210 130
-223 117 -3 -3 -17 2 -32 12 -20 13 -28 14 -34 5 -5 -8 -16 -9 -31 -5 -13 4 1
-10 31 -30 30 -21 69 -51 85 -65 119 -107 163 -150 153 -150 -6 0 -37 24 -68
53 -68 62 -110 92 -130 93 -8 0 -34 10 -57 22 -47 24 -139 39 -127 21 4 -7 -1
-9 -15 -4 -11 3 -21 2 -21 -3 0 -6 -10 -8 -22 -4 -20 5 -21 3 -11 -10 7 -8 10
-18 6 -21 -3 -4 0 -7 7 -7 7 0 11 -2 8 -5 -3 -3 -13 -2 -22 1 -11 4 -14 9 -7
13 6 4 -7 7 -28 7 -30 -1 -37 -4 -29 -14 7 -8 -1 -7 -26 3 -20 8 -39 16 -43
16 -5 0 -15 5 -23 10 -10 6 -2 8 27 9 53 0 247 65 333 110 35 19 65 34 67 33
1 0 35 7 75 18 40 10 82 19 93 19 11 0 43 12 70 26 75 38 208 94 222 94 7 0
13 5 13 11 0 6 -6 9 -12 6 -7 -2 -31 -10 -53 -18 -22 -7 -73 -30 -114 -51 -40
-21 -80 -38 -87 -38 -7 0 -33 -6 -56 -14 -24 -7 -70 -19 -103 -27 -66 -14
-100 -28 -160 -64 -22 -14 -47 -25 -56 -25 -10 0 -49 -14 -88 -30 -61 -26 -83
-30 -139 -28 l-67 3 0 81 c1 60 5 88 18 107 25 39 30 104 14 166 -8 30 -13 60
-10 67 8 21 -66 235 -93 271 -13 17 -32 34 -42 37 -9 3 -28 24 -42 47 -17 28
-41 48 -77 66 -28 14 -70 43 -92 64 -22 22 -49 39 -60 39 -11 0 -41 12 -66 27
-40 25 -45 32 -45 63 0 40 -19 90 -35 90 -5 0 5 14 24 30 24 22 32 35 28 51
-5 19 -3 20 29 15 44 -9 51 7 30 68 -22 63 -20 108 4 136 13 15 18 31 14 45
-7 27 25 83 36 65 13 -22 18 28 5 53 -10 20 -10 28 6 48 22 29 24 40 5 33 -7
-3 -16 2 -20 11 -3 9 -10 13 -16 10 -5 -3 -10 1 -10 9 0 21 -21 31 -31 15 -6
-10 -10 -5 -15 19 -7 35 -13 39 -32 20 -9 -9 -12 -9 -12 3 0 17 -50 48 -67 42
-7 -3 -13 0 -13 7 0 6 -5 8 -11 5 -6 -4 -21 3 -34 15 -15 14 -25 18 -30 11 -3
-6 -11 -9 -16 -6 -17 11 -9 -12 11 -30 11 -10 20 -23 20 -29 0 -6 -12 2 -27
17 -23 23 -26 30 -16 46 12 18 8 31 -9 31 -4 0 -8 -7 -8 -15 0 -19 -9 -19 -34
0 -17 13 -21 12 -32 -3 -12 -16 -14 -16 -36 3 -54 48 -57 49 -55 18 2 -27 0
-28 -39 -27 -35 0 -41 -2 -36 -18 5 -20 -10 -23 -40 -7 -17 9 -19 8 -14 -9 6
-17 1 -21 -25 -27 -28 -6 -30 -10 -25 -35 3 -19 1 -30 -9 -33 -8 -4 -11 -14
-8 -26 4 -16 1 -21 -16 -21 -26 0 -27 -17 -4 -43 17 -18 17 -19 -1 -33 -18
-12 -18 -15 -4 -31 8 -10 21 -29 27 -43 11 -22 11 -23 -2 -7 -22 26 -42 22
-23 -5 18 -26 21 -68 5 -68 -6 0 -8 -8 -5 -17 3 -10 -9 -45 -27 -77 -34 -63
-59 -79 -122 -77 -47 2 -100 -26 -118 -65 -9 -18 -14 -41 -11 -49 4 -10 -9
-32 -35 -60 -42 -45 -43 -54 -26 -112 2 -7 -1 -10 -8 -7 -19 7 -37 55 -37 100
0 30 -7 51 -24 71 -13 15 -32 44 -43 63 -18 33 -24 52 -57 165 -8 28 -15 42
-15 32 -1 -23 46 -191 64 -232 8 -16 23 -36 34 -43 15 -8 21 -22 21 -45 l-1
-32 -19 37 c-11 20 -31 48 -45 62 -13 13 -27 37 -30 53 -20 96 -39 153 -50
153 -8 0 -18 21 -24 51 -10 46 -9 53 6 65 16 11 19 9 31 -19 l12 -32 -5 35
c-6 41 -2 47 48 84 20 16 37 34 37 41 0 6 9 20 20 30 32 29 26 48 -15 43 -29
-3 -34 -1 -30 12 3 11 -9 28 -35 49 -31 25 -44 30 -58 22 -9 -6 -11 -11 -4
-11 6 0 12 -4 12 -10 0 -19 -58 -75 -90 -87 l-33 -12 23 24 c13 14 29 25 36
25 6 0 17 7 24 15 11 14 10 14 -14 5 -21 -8 -27 -7 -24 2 2 7 13 17 24 22 12
5 25 19 30 30 7 17 2 27 -32 58 -27 25 -51 38 -69 38 -16 0 -25 3 -22 6 13 13
-14 45 -36 42 -34 -5 -33 -36 2 -55 16 -10 33 -28 36 -40 3 -13 10 -23 15 -23
6 0 5 10 -2 25 -6 14 -9 28 -5 31 11 11 47 -7 77 -39 l30 -32 -20 -17 c-16
-13 -27 -15 -46 -8 -31 12 -34 12 -34 1 0 -5 8 -12 18 -14 12 -3 11 -5 -6 -6
-13 0 -30 -7 -37 -15 -12 -12 -8 -13 28 -9 l42 4 -35 -31 c-41 -37 -101 -70
-128 -70 -10 0 -28 -13 -40 -30 -13 -16 -46 -42 -74 -56 -28 -14 -76 -49 -107
-77 l-56 -51 50 53 c28 29 75 69 105 88 30 19 67 46 81 60 15 13 44 31 65 38
22 8 33 14 25 15 -26 0 -96 -24 -123 -42 -16 -11 -32 -17 -37 -13 -5 3 -12 1
-16 -5 -3 -5 -14 -10 -25 -10 -15 0 -109 -95 -118 -121 -2 -5 -8 -9 -13 -9
-14 0 44 80 89 123 34 32 193 108 247 119 11 2 15 6 10 10 -6 3 -47 -9 -92
-27 -46 -17 -85 -30 -87 -27 -3 2 4 16 14 30 11 13 20 30 20 36 0 6 7 20 15
30 15 20 15 20 30 0 14 -18 14 -17 5 9 -11 31 -5 34 22 10 11 -9 18 -11 18 -5
0 7 -5 12 -12 12 -6 0 -9 3 -6 6 4 3 15 1 26 -5 17 -9 21 -7 27 17 l8 27 6
-24 c4 -14 12 -26 20 -29 10 -3 11 0 2 16 -6 11 -11 30 -11 41 0 29 -14 26
-28 -4 -9 -20 -19 -25 -48 -25 -41 0 -72 -26 -93 -79 -8 -17 -20 -31 -28 -31
-11 0 -13 -7 -9 -24 5 -20 1 -25 -22 -32 -15 -4 -31 -8 -35 -8 -5 -1 -16 -11
-25 -24 -18 -23 -18 -22 -20 25 -1 26 -4 60 -8 76 -3 16 -1 27 5 27 6 0 13
-23 17 -50 5 -41 9 -48 20 -39 9 7 14 32 14 63 0 37 3 47 10 36 5 -8 10 -25
10 -38 0 -14 4 -21 11 -17 16 11 8 110 -17 205 -12 47 -32 132 -44 190 -30
140 -43 151 -36 30 5 -76 4 -90 -5 -70 -7 14 -14 78 -17 142 -4 97 -8 120 -23
134 -18 16 -18 14 -14 -67 l5 -84 -14 75 c-33 183 -44 216 -59 178 -3 -7 -6
-4 -6 7 -1 12 -14 28 -31 39 -17 9 -39 27 -50 38 -10 11 -23 17 -29 14 -5 -3
-13 4 -17 16 -4 13 -17 33 -30 44 l-22 22 5 -37 c3 -20 9 -43 14 -51 4 -9 17
-79 28 -158 12 -78 33 -174 47 -213 26 -72 26 -98 -1 -63 -30 39 -57 141 -65
242 -4 56 -13 108 -19 116 -7 8 -17 56 -23 108 -10 94 -26 148 -41 148 -9 0
-5 -70 19 -290 14 -135 28 -199 86 -383 17 -54 28 -101 25 -104 -3 -3 -13 21
-22 53 -9 33 -23 77 -32 99 -34 88 -45 121 -54 169 -25 122 -36 226 -31 288 3
51 0 74 -11 92 -13 19 -14 31 -6 60 5 20 13 36 18 36 4 0 37 -38 73 -84 65
-82 157 -166 183 -166 7 0 25 -18 41 -41 48 -70 86 -86 105 -45 6 13 20 27 30
29 11 3 18 2 16 -1 -20 -44 -33 -62 -44 -62 -14 0 -14 -4 8 -155 21 -141 78
-358 100 -378 l21 -20 -7 34 c-7 31 -6 32 9 20 15 -13 18 -12 23 7 3 12 9 19
14 16 5 -3 9 32 9 77 0 74 -3 87 -27 123 -27 38 -28 43 -31 200 -2 109 0 158
7 151 5 -5 12 -54 14 -109 3 -61 9 -101 16 -105 7 -5 10 -18 6 -32 -3 -14 0
-32 9 -44 14 -19 15 -16 16 35 1 30 5 76 9 102 6 34 4 48 -5 52 -10 4 -44 60
-44 73 0 11 54 -40 65 -61 7 -13 16 -60 20 -105 4 -45 11 -83 15 -86 9 -6 21
88 16 128 -2 15 -14 39 -26 52 -13 14 -19 25 -13 25 5 0 19 -10 31 -23 19 -20
22 -35 22 -113 0 -50 3 -94 7 -98 4 -4 6 -35 5 -69 -2 -45 1 -67 13 -82 15
-19 15 -16 11 40 l-5 60 12 -57 c7 -31 16 -60 21 -65 5 -4 7 -4 4 2 -3 6 -9
36 -12 68 -4 33 -12 71 -17 85 -6 15 -14 46 -19 70 -7 42 -7 42 11 26 11 -9
19 -29 19 -43 1 -14 9 -66 20 -116 l19 -90 -5 79 c-5 71 -4 78 11 66 18 -15
41 -93 50 -172 4 -32 11 -58 16 -58 6 0 8 8 6 18 -3 9 -13 61 -23 115 -13 71
-23 101 -35 108 -22 11 -75 120 -88 179 -10 45 -50 90 -79 90 -8 0 -38 25 -69
56 l-54 56 -28 -26 c-15 -14 -36 -26 -48 -26 -14 0 -23 -8 -27 -25 -4 -14 -13
-25 -20 -25 -16 0 -73 62 -88 96 -8 18 -19 24 -41 24 -31 0 -91 53 -167 149
-19 24 -47 58 -62 75 l-28 31 -6 -24z m-33 -176 l-19 -60 -9 35 c-8 26 -7 39
3 51 8 8 14 20 14 25 0 6 6 16 13 23 20 20 20 -7 -2 -74z m76 23 c-2 -13 -4
-3 -4 22 0 25 2 35 4 23 2 -13 2 -33 0 -45z m98 -142 c25 -116 29 -143 20
-135 -4 4 -55 244 -55 258 0 2 2 2 5 -1 3 -3 17 -58 30 -122z m-88 47 c-3 -10
-5 -4 -5 12 0 17 2 24 5 18 2 -7 2 -21 0 -30z m-70 -15 c-3 -8 -6 -5 -6 6 -1
11 2 17 5 13 3 -3 4 -12 1 -19z m553 -18 c0 -5 -4 -10 -10 -10 -5 0 -10 5 -10
10 0 6 5 10 10 10 6 0 10 -4 10 -10z m-341 -116 c39 -160 71 -321 70 -360 l-1
-39 -12 40 c-21 72 -28 20 -16 -123 6 -75 10 -162 8 -192 -3 -60 -29 197 -34
343 -2 43 -5 99 -8 125 l-6 47 14 -50 c8 -27 14 -44 15 -37 1 13 -56 309 -65
340 -5 15 -4 15 5 1 5 -8 19 -51 30 -95z m-269 -21 c-1 -58 -3 -73 -11 -61 -9
16 -3 138 7 138 2 0 4 -35 4 -77z m354 -109 c15 -68 21 -133 12 -123 -3 3 -10
31 -15 64 -10 55 -17 87 -35 170 -6 27 -5 27 8 -5 7 -19 21 -67 30 -106z
m-377 -1 c-3 -10 -5 -2 -5 17 0 19 2 27 5 18 2 -10 2 -26 0 -35z m-37 13 c-6
-8 -18 -12 -26 -9 -19 7 -7 23 18 23 17 0 18 -3 8 -14z m-112 -19 c17 4 20 1
15 -16 -5 -19 -7 -19 -26 -6 -28 20 -47 19 -63 -2 -13 -17 -14 -17 -9 0 15 52
13 50 39 34 13 -9 33 -13 44 -10z m439 -9 c-3 -7 -5 -2 -5 12 0 14 2 19 5 13
2 -7 2 -19 0 -25z m-534 -8 c-3 -11 -9 -20 -15 -20 -5 0 -4 9 2 20 6 11 12 20
14 20 2 0 2 -9 -1 -20z m403 -97 c-12 -12 -19 7 -22 59 l-4 53 16 -53 c9 -29
14 -55 10 -59z m434 48 c0 -32 -6 -24 -14 19 -4 25 -3 31 4 20 5 -8 10 -26 10
-39z m-685 25 c18 -13 18 -14 -8 -9 -15 3 -27 9 -27 14 0 13 13 11 35 -5z
m526 -291 c33 -168 48 -328 32 -338 -14 -9 -21 29 -37 213 -8 84 -19 157 -25
163 -6 6 -10 44 -10 87 1 41 4 64 6 50 2 -14 18 -92 34 -175z m176 53 c-3 -8
-6 -5 -6 6 -1 11 2 17 5 13 3 -3 4 -12 1 -19z m-127 -97 c0 -11 -3 -12 -11 -4
-5 5 -12 34 -14 64 l-5 54 15 -50 c8 -27 15 -57 15 -64z m350 79 c0 -21 -24
-28 -35 -10 -8 14 3 30 21 30 8 0 14 -9 14 -20z m-170 -23 c0 -18 -2 -19 -10
-7 -13 20 -13 43 0 35 6 -3 10 -16 10 -28z m1170 -9 c0 -13 -5 -9 -31 19 l-24
26 27 -19 c15 -10 28 -22 28 -26z m90 -19 c0 -14 -5 -11 -31 17 l-24 27 28
-18 c15 -9 27 -21 27 -26z m-173 14 c-15 -2 -25 -9 -22 -14 4 -5 1 -9 -4 -9
-6 0 -11 7 -11 15 0 11 10 15 33 14 30 -2 30 -2 4 -6z m128 -2 c10 -17 -12
-21 -25 -6 -10 12 -10 15 3 15 9 0 18 -4 22 -9z m120 -14 c0 -6 11 -17 23 -23
39 -19 52 -38 17 -23 -41 17 -69 45 -60 59 8 13 20 5 20 -13z m-299 -19 c3 -5
4 -12 1 -14 -7 -7 -47 15 -47 25 0 11 38 2 46 -11z m-1172 -34 c3 -8 2 -12 -4
-9 -6 3 -10 10 -10 16 0 14 7 11 14 -7z m1103 0 c-3 -3 -12 -4 -19 -1 -8 3 -5
6 6 6 11 1 17 -2 13 -5z m-1213 -148 c9 -76 15 -141 12 -143 -2 -2 -9 33 -15
79 -16 128 -24 214 -18 208 3 -3 13 -68 21 -144z m630 91 l26 -14 -26 -24
c-14 -13 -30 -34 -35 -47 -5 -13 -13 -21 -18 -18 -5 4 -31 -11 -58 -33 -58
-47 -171 -161 -159 -161 5 0 -11 -21 -35 -47 -25 -27 -60 -69 -78 -95 -19 -27
-35 -48 -37 -48 -11 0 16 47 52 91 57 68 107 139 98 139 -3 0 -1 7 6 15 7 8 9
15 4 15 -12 0 87 100 111 111 11 6 -9 -17 -45 -50 -36 -34 -61 -61 -57 -61 9
0 141 107 201 163 31 29 37 40 28 49 -11 11 -16 28 -8 28 2 0 15 -6 30 -13z
m-44 -42 c-7 -8 -17 -15 -22 -15 -6 0 -5 7 2 15 7 8 17 15 22 15 6 0 5 -7 -2
-15z m1217 -7 c-3 -8 -6 -5 -6 6 -1 11 2 17 5 13 3 -3 4 -12 1 -19z m-2883
-40 c9 -12 16 -29 16 -38 0 -8 -10 2 -22 23 -12 20 -26 37 -31 37 -9 0 -5 -45
8 -85 4 -14 2 -12 -9 5 -8 14 -15 42 -16 63 0 34 2 37 19 27 11 -5 27 -20 35
-32z m1773 14 c-10 -10 -17 -26 -17 -35 0 -14 -57 -54 -65 -45 -1 2 4 18 11
36 9 20 21 32 33 32 10 0 24 7 31 15 7 8 15 15 18 15 3 0 -2 -8 -11 -18z
m-1453 -49 c23 -66 13 -65 -11 2 -11 30 -17 52 -13 50 5 -3 15 -26 24 -52z
m755 -122 c1 -18 -2 -22 -10 -14 -6 6 -13 51 -15 100 l-3 88 14 -75 c7 -41 14
-86 14 -99z m-982 132 c-9 -8 -48 8 -42 18 4 5 14 5 26 -2 12 -6 18 -13 16
-16z m2723 18 c0 -6 -4 -12 -8 -15 -5 -3 -9 1 -9 9 0 8 4 15 9 15 4 0 8 -4 8
-9z m-280 -11 c0 -5 -4 -10 -10 -10 -5 0 -10 5 -10 10 0 6 5 10 10 10 6 0 10
-4 10 -10z m270 -31 c0 -14 -16 -11 -29 5 -10 12 -8 13 8 9 12 -3 21 -9 21
-14z m34 -11 c-15 -30 -16 -32 -1 -19 15 12 16 9 15 -23 -1 -27 -4 -33 -13
-26 -14 11 -45 3 -45 -11 0 -5 9 -9 21 -9 12 0 19 -5 17 -12 -3 -7 -11 -13
-19 -13 -10 0 -16 -18 -20 -65 -3 -36 -8 -72 -12 -80 -6 -12 -1 -16 17 -18 21
-1 24 2 20 21 -2 12 -6 31 -8 43 -2 11 0 27 5 35 6 10 9 5 10 -18 2 -37 2 -39
13 -72 11 -32 -4 -44 -38 -31 -15 5 -25 6 -21 1 3 -5 1 -12 -4 -15 -5 -3 -7
-15 -4 -26 4 -13 0 -20 -10 -20 -8 0 -14 -7 -13 -16 0 -9 -9 -20 -22 -25 -20
-8 -25 -4 -39 29 -8 20 -20 43 -26 51 -14 17 -18 43 -6 35 5 -3 6 -10 3 -16
-5 -7 -2 -8 6 -3 9 6 11 4 5 -6 -7 -11 -6 -12 7 -2 8 7 18 10 21 6 4 -3 7 -4
7 0 0 14 -61 34 -96 31 -29 -3 -46 2 -64 17 -14 11 -20 19 -15 16 6 -2 19 -1
30 4 16 6 17 8 3 8 -9 1 -19 5 -23 11 -3 5 9 4 27 -2 18 -6 26 -14 19 -16 -11
-4 -11 -6 0 -14 10 -6 6 -7 -11 -3 -19 6 -22 5 -14 -5 17 -18 47 -8 50 17 3
17 -4 24 -32 33 -19 7 -33 14 -30 17 4 5 95 -33 141 -59 18 -10 19 -10 6 5 -7
10 -20 17 -28 17 -8 0 -11 4 -8 10 10 16 -57 51 -85 45 -19 -4 -22 -3 -10 5 8
5 29 8 45 5 27 -4 27 -3 -10 15 -44 21 -39 25 14 10 52 -15 27 3 -32 22 -47
16 -24 17 31 2 16 -5 22 -3 20 7 -2 8 -7 17 -13 21 -19 14 4 19 27 7 12 -7 28
-12 35 -11 15 3 22 -10 27 -47 3 -26 1 -29 -10 -20 -8 6 -14 8 -14 4 0 -4 -7
-2 -15 5 -9 7 -15 8 -15 2 0 -11 24 -23 57 -27 16 -2 20 1 16 13 -4 9 -2 13 4
9 6 -4 3 9 -5 28 -9 19 -24 38 -34 41 -10 3 -18 10 -18 15 0 6 6 7 13 3 9 -6
8 -3 -1 8 -14 17 -47 14 -36 -3 3 -5 1 -9 -5 -9 -5 0 -13 5 -16 10 -3 6 -1 10
5 10 6 0 9 4 6 9 -10 16 18 19 52 5 18 -7 30 -9 27 -5 -2 5 5 11 16 14 12 3
18 10 15 16 -10 16 10 21 29 7 17 -12 17 -13 1 -19 -11 -5 -15 -3 -10 5 4 7 3
8 -5 4 -9 -6 -9 -11 0 -22 19 -23 34 -16 53 26 10 22 22 40 27 40 5 0 2 -15
-7 -32z m-1876 -90 c10 -53 15 -95 11 -92 -9 5 -25 84 -33 159 -8 71 1 46 22
-67z m-574 23 c20 -33 49 -70 64 -83 15 -13 28 -34 30 -48 l2 -25 -14 25 c-22
37 -19 19 9 -56 14 -37 23 -69 20 -72 -2 -3 -9 6 -14 19 -60 156 -87 209 -105
209 -7 0 -16 12 -19 28 -3 15 -9 35 -12 45 -14 33 3 16 39 -42z m1276 40 c0
-5 -10 -13 -22 -17 -38 -11 -100 -67 -158 -142 -30 -39 -63 -73 -73 -75 -15
-5 -14 0 7 26 14 18 33 46 41 62 18 34 78 84 151 126 58 33 54 31 54 20z
m-310 -16 c-7 -9 -15 -13 -19 -10 -3 3 1 10 9 15 21 14 24 12 10 -5z m-1381
-35 c0 -10 -3 -8 -9 5 -12 27 -12 43 0 25 5 -8 9 -22 9 -30z m2536 20 c3 -6
-1 -7 -9 -4 -18 7 -21 14 -7 14 6 0 13 -4 16 -10z m-1221 -31 c-48 -38 -80
-56 -69 -39 10 15 86 70 98 70 5 0 -8 -14 -29 -31z m-420 -54 c9 -33 23 -82
31 -109 13 -43 13 -47 0 -36 -8 7 -15 19 -15 26 0 32 -44 144 -56 144 -17 0
-18 37 -1 43 18 7 22 -1 41 -68z m1733 49 c-5 -5 -57 13 -57 20 0 3 14 0 31
-6 16 -6 28 -12 26 -14z m-1600 -36 c-3 -8 -6 -5 -6 6 -1 11 2 17 5 13 3 -3 4
-12 1 -19z m602 -110 c5 -50 4 -64 -5 -57 -24 20 -45 143 -29 169 12 19 24
-22 34 -112z m-822 90 c-3 -8 -6 -5 -6 6 -1 11 2 17 5 13 3 -3 4 -12 1 -19z
m1482 -4 c-11 -14 -10 -15 7 -12 24 4 28 -1 19 -24 -4 -10 -15 -15 -26 -13
-11 2 -18 1 -15 -3 2 -4 -13 -15 -35 -24 l-39 -16 11 21 c6 12 27 37 47 54 40
36 52 42 31 17z m61 6 c0 -5 -5 -10 -11 -10 -5 0 -7 5 -4 10 3 6 8 10 11 10 2
0 4 -4 4 -10z m97 4 c11 -3 23 -14 26 -24 4 -17 1 -18 -27 -13 -42 8 -46 13
-10 13 l29 1 -30 14 c-31 14 -25 19 12 9z m-1753 -30 c7 -19 2 -18 -19 6 -16
17 -16 20 -3 15 9 -4 19 -13 22 -21z m-83 -71 c16 -9 35 -31 44 -49 19 -40 19
-50 1 -34 -8 6 -12 18 -9 26 4 10 -2 17 -15 21 -11 3 -23 11 -26 19 -3 7 -12
11 -21 8 -8 -3 -15 -2 -15 3 0 6 -11 22 -25 37 -14 15 -23 32 -20 37 4 5 18
-4 31 -21 14 -16 39 -38 55 -47z m544 -2 c-44 -43 -81 -77 -83 -76 -16 14 100
140 128 140 4 0 12 3 16 8 4 4 10 7 13 7 3 0 -30 -35 -74 -79z m398 34 l6 -40
-15 33 c-8 18 -12 38 -8 43 8 14 10 10 17 -36z m824 39 c-3 -3 -12 -4 -19 -1
-8 3 -5 6 6 6 11 1 17 -2 13 -5z m150 -14 c3 -10 2 -11 -4 -4 -4 6 -15 14 -23
17 -11 5 -9 6 4 4 11 -1 21 -9 23 -17z m-2457 -25 c0 -5 -5 -3 -10 5 -5 8 -10
20 -10 25 0 6 5 3 10 -5 5 -8 10 -19 10 -25z m2375 15 c7 -12 -2 -12 -30 0
-19 8 -19 9 2 9 12 1 25 -3 28 -9z m-1430 -35 c-22 -19 -40 -39 -40 -44 0 -5
-3 -12 -6 -15 -4 -4 -6 2 -5 13 0 10 18 33 40 50 52 42 61 39 11 -4z m1460 26
c3 -5 1 -12 -5 -16 -5 -3 -10 1 -10 9 0 18 6 21 15 7z m200 -1 c3 -6 -1 -7 -9
-4 -18 7 -21 14 -7 14 6 0 13 -4 16 -10z m-1594 -55 c-22 -24 -41 -42 -41 -38
0 8 74 90 79 86 2 -1 -15 -23 -38 -48z m432 14 c5 -19 3 -26 -8 -26 -16 0 -19
15 -9 42 8 19 9 18 17 -16z m863 21 c15 -6 25 -13 22 -16 -9 -8 -88 8 -82 17
7 12 27 11 60 -1z m-1555 -13 c-1 -12 -15 -9 -19 4 -3 6 1 10 8 8 6 -3 11 -8
11 -12z m1444 -6 c-15 -13 -62 -26 -50 -13 6 5 19 12 30 15 11 3 22 5 25 6 2
0 0 -3 -5 -8z m266 -7 c13 -16 12 -16 -10 -5 -18 10 -29 10 -48 2 -13 -6 -28
-9 -31 -7 -4 2 -26 -9 -50 -25 -23 -16 -42 -25 -42 -20 0 5 20 22 45 38 53 35
115 42 136 17z m-1066 -35 c0 -8 -7 -14 -15 -14 -8 0 -14 -8 -14 -17 1 -10 -3
-16 -8 -15 -6 1 -13 -4 -16 -12 -3 -9 0 -11 9 -6 8 5 11 5 7 1 -3 -4 -8 -6
-11 -4 -3 2 -15 -6 -28 -17 -19 -17 -17 -12 8 25 16 25 33 53 36 63 8 21 32
18 32 -4z m735 17 c0 -3 -4 -8 -10 -11 -5 -3 -10 -1 -10 4 0 6 5 11 10 11 6 0
10 -2 10 -4z m-37 -32 c-4 -11 -8 -12 -13 -4 -9 14 -19 13 -46 -5 -19 -12 -24
-12 -40 1 -13 10 -14 14 -4 11 8 -2 33 2 55 9 45 13 57 10 48 -12z m461 -3
c34 -17 49 -33 65 -67 23 -48 25 -58 23 -122 -2 -32 -5 -41 -14 -36 -9 6 -9 3
0 -9 8 -9 12 -24 9 -34 -3 -13 -5 -11 -6 7 l-2 25 -24 -30 c-28 -34 -32 -28
-11 14 14 26 18 71 7 71 -2 0 -14 -8 -25 -17 -12 -10 -15 -11 -8 -3 20 24 13
34 -10 14 -21 -18 -21 -18 2 21 17 28 19 36 7 26 -19 -15 -23 -1 -5 17 6 6 9
14 6 17 -9 10 -67 -55 -98 -109 -17 -28 -30 -47 -30 -43 0 12 61 126 71 133
15 9 50 84 40 84 -5 0 -12 -4 -15 -9 -4 -5 -18 -8 -32 -6 -14 1 -41 -8 -62
-22 l-37 -25 40 42 40 42 -32 -16 c-36 -18 -47 -4 -12 14 11 7 19 14 16 16 -2
3 -22 -5 -43 -17 l-39 -22 30 26 c17 15 25 26 20 27 -6 0 -15 -4 -20 -8 -6 -5
-23 -14 -38 -20 -45 -19 -21 7 27 29 49 23 97 20 160 -10z m-2627 -3 c-3 -8
-6 -5 -6 6 -1 11 2 17 5 13 3 -3 4 -12 1 -19z m996 -13 c-3 -9 -8 -14 -10 -11
-3 3 -2 9 2 15 9 16 15 13 8 -4z m1195 -6 c-10 -5 -18 -18 -19 -27 0 -11 -2
-12 -6 -4 -6 15 14 42 31 42 6 0 3 -5 -6 -11z m82 -29 c-19 -16 -39 -30 -45
-30 -5 0 6 13 25 30 19 16 40 29 45 29 6 0 -6 -13 -25 -29z m290 -13 c0 -2
-12 -14 -27 -28 l-28 -24 24 28 c23 25 31 32 31 24z m-2626 -44 c-18 -19 -18
-29 6 -105 13 -40 22 -102 24 -168 4 -85 3 -92 -3 -40 -18 149 -23 178 -42
242 -20 64 -20 67 -2 85 10 11 21 15 25 9 3 -5 0 -16 -8 -23z m783 15 c-3 -8
-6 -5 -6 6 -1 11 2 17 5 13 3 -3 4 -12 1 -19z m659 -45 c-45 -90 -86 -213 -86
-257 0 -19 -4 -38 -10 -41 -18 -11 -10 35 36 205 15 54 -9 8 -32 -62 -17 -52
-22 -62 -18 -33 3 22 16 63 29 91 24 48 101 164 111 164 2 0 -11 -30 -30 -67z
m-818 -48 c0 -11 -6 -2 -13 20 -8 22 -13 49 -13 60 0 11 6 2 13 -20 8 -22 13
-49 13 -60z m59 73 c-3 -8 -6 -5 -6 6 -1 11 2 17 5 13 3 -3 4 -12 1 -19z m420
0 c-3 -8 -6 -5 -6 6 -1 11 2 17 5 13 3 -3 4 -12 1 -19z m1027 -2 c-3 -8 -12
-12 -21 -9 -12 5 -12 7 -1 14 20 13 28 11 22 -5z m-1247 -88 c17 -51 30 -94
28 -96 -3 -3 -54 121 -65 161 -5 15 -5 27 -1 27 4 0 21 -42 38 -92z m517 67
c-4 -8 -11 -15 -16 -15 -6 0 -5 6 2 15 7 8 14 15 16 15 2 0 1 -7 -2 -15z m656
5 c0 -4 -11 -13 -25 -20 -13 -7 -28 -24 -33 -39 -5 -16 -11 -21 -16 -13 -4 7
4 23 18 37 15 14 26 29 26 34 0 4 7 8 15 8 8 0 15 -3 15 -7z m510 7 c0 -2 -10
-12 -22 -23 l-23 -19 19 23 c18 21 26 27 26 19z m40 -7 c0 -5 -5 -10 -11 -10
-5 0 -7 5 -4 10 3 6 8 10 11 10 2 0 4 -4 4 -10z m231 -48 c0 -20 2 -46 5 -57
6 -28 6 -115 -1 -147 -8 -41 -75 -271 -80 -277 -9 -9 -5 17 10 58 8 23 10 39
5 36 -10 -6 -54 -96 -52 -106 0 -3 -5 -6 -12 -6 -10 0 -7 13 10 44 14 24 20
43 14 43 -5 0 -10 -3 -10 -7 0 -5 -12 -21 -26 -38 -22 -27 -24 -27 -13 -5 6
14 23 40 36 58 27 35 24 59 -3 26 -8 -10 -4 1 10 26 15 25 30 44 35 43 6 -2 8
7 6 19 -3 12 5 38 16 57 l21 36 -23 -20 -23 -20 22 32 c12 17 22 38 22 46 0 9
5 19 11 23 15 9 4 161 -13 182 -12 13 -10 14 10 3 16 -9 22 -21 23 -49z m-101
-32 c0 -5 -5 -10 -11 -10 -5 0 -7 5 -4 10 3 6 8 10 11 10 2 0 4 -4 4 -10z
m-1930 -86 c10 -38 17 -70 15 -72 -4 -4 -45 124 -45 141 0 23 11 -4 30 -69z
m118 31 c-3 -3 -9 2 -12 12 -6 14 -5 15 5 6 7 -7 10 -15 7 -18z m16 -31 c3 -8
2 -12 -4 -9 -6 3 -10 10 -10 16 0 14 7 11 14 -7z m140 0 c3 -8 2 -13 -3 -9 -5
3 -11 -1 -14 -7 -3 -7 -4 -3 -4 10 1 25 12 29 21 6z m1835 -44 c5 -8 9 -51 10
-95 2 -73 0 -83 -25 -115 -24 -31 -26 -32 -21 -10 3 14 9 36 13 49 5 19 4 22
-6 16 -9 -5 -11 -4 -6 4 4 6 11 9 15 6 5 -2 9 6 9 20 0 14 -4 22 -9 19 -11 -7
-11 10 0 59 5 20 5 37 1 37 -5 0 -11 -10 -13 -22 -2 -13 -5 2 -5 32 -1 51 0
54 14 35 9 -11 19 -27 23 -35z m131 -22 l21 -27 -45 25 c-24 13 -47 31 -49 39
-9 23 48 -6 73 -37z m-2963 20 c-3 -8 -6 -5 -6 6 -1 11 2 17 5 13 3 -3 4 -12
1 -19z m896 -31 c4 -11 3 -16 -3 -12 -15 10 -12 -7 8 -38 10 -15 22 -24 25
-20 4 3 12 -8 18 -25 6 -18 15 -32 19 -32 5 0 14 -16 20 -36 10 -29 10 -38 -1
-45 -16 -9 -32 -2 -23 12 3 5 -18 53 -46 105 -29 53 -47 93 -40 89 8 -5 11 -1
8 11 -2 11 -8 19 -15 19 -6 0 -15 4 -20 9 -5 5 -3 6 5 2 7 -4 12 -2 12 6 0 14
23 -17 33 -45z m153 -14 c9 -32 20 -65 25 -73 4 -8 15 -38 24 -67 9 -28 29
-70 46 -92 16 -23 29 -49 29 -58 0 -15 -2 -16 -10 -3 -5 8 -14 16 -20 16 -5 1
-14 2 -20 3 -17 2 -38 55 -54 137 -9 43 -22 101 -31 128 -16 52 -18 66 -10 66
2 0 12 -26 21 -57z m-429 -5 c-3 -7 -5 -2 -5 12 0 14 2 19 5 13 2 -7 2 -19 0
-25z m745 -121 c8 -20 26 -50 39 -65 14 -15 60 -71 102 -124 83 -104 111 -128
169 -147 30 -10 41 -22 64 -69 15 -31 48 -86 73 -122 25 -35 51 -72 56 -81 6
-9 34 -47 63 -84 l52 -68 0 -83 c0 -74 2 -84 22 -98 12 -9 17 -16 11 -16 -24
0 -41 31 -48 87 -13 108 -79 253 -108 237 -7 -4 -9 -4 -6 0 4 4 -8 23 -25 42
-18 20 -54 76 -81 125 -26 49 -51 89 -54 90 -49 6 -71 24 -148 118 -78 94
-171 186 -180 178 -3 -4 2 -17 13 -29 l19 -23 -26 23 c-24 21 -76 102 -66 102
3 0 15 -17 28 -37 34 -57 34 -22 0 80 -17 48 -27 95 -24 104 4 11 12 -4 24
-43 9 -32 24 -76 31 -97z m1592 101 c-5 -7 -64 17 -64 26 0 2 15 -2 34 -8 19
-6 32 -14 30 -18z m66 -23 c0 -19 -13 -25 -29 -15 -19 11 -6 41 14 34 8 -3 15
-12 15 -19z m-2249 -17 c7 -18 33 -62 58 -98 43 -62 97 -178 88 -187 -3 -2
-10 10 -16 27 -6 17 -31 62 -56 99 -25 38 -53 86 -62 108 -10 21 -22 40 -28
42 -5 2 -9 8 -7 14 2 5 -3 14 -10 18 -10 7 -9 9 3 9 9 0 23 -14 30 -32z m259
-103 c18 -66 36 -124 41 -129 5 -5 14 -4 22 3 11 9 17 8 24 -1 10 -12 27 -208
18 -208 -2 0 -9 24 -15 53 -8 40 -20 63 -45 87 -19 19 -35 41 -35 49 0 9 -9
51 -20 93 -20 82 -36 186 -27 178 3 -3 20 -59 37 -125z m1855 93 c26 -12 33
-32 13 -44 -7 -4 -8 -3 -4 4 4 7 1 12 -8 12 -8 0 -20 9 -26 20 -12 23 -10 24
25 8z m165 -18 c0 -11 -4 -20 -9 -20 -14 0 -23 18 -16 30 10 17 25 11 25 -10z
m-96 -29 c6 -10 -22 -37 -29 -29 -8 7 5 38 15 38 5 0 11 -4 14 -9z m146 -7 c0
-11 -5 -14 -16 -10 -9 3 -18 6 -20 6 -3 0 -2 5 1 10 10 16 35 12 35 -6z
m-2700 -36 c0 -10 -4 -18 -10 -18 -5 0 -10 15 -10 33 0 24 3 28 10 17 5 -8 10
-23 10 -32z m658 -13 c0 -16 -2 -15 -8 5 -11 34 -11 60 0 35 5 -11 8 -29 8
-40z m1835 14 c-4 -15 -9 -16 -24 -8 -28 14 -24 37 5 32 17 -4 22 -10 19 -24z
m101 -11 c-10 -16 -26 -8 -20 10 4 13 3 13 -7 -2 -16 -27 -59 -67 -65 -62 -2
3 0 11 4 18 5 7 9 19 10 26 2 8 6 17 10 20 4 4 4 -1 1 -11 -4 -11 -3 -16 3
-12 6 3 10 12 10 20 0 24 32 35 46 17 7 -9 10 -20 8 -24z m50 -13 c3 -8 12
-12 20 -9 9 3 27 -3 41 -14 15 -12 32 -19 38 -16 7 2 18 -5 25 -17 12 -19 11
-24 -3 -38 -12 -11 -19 -13 -22 -4 -2 7 -11 9 -19 6 -8 -3 -14 0 -14 6 0 6 -7
11 -15 11 -8 0 -22 10 -31 23 l-18 23 -34 -38 c-19 -21 -37 -36 -40 -34 -3 3
1 12 8 21 18 21 5 31 -15 11 -29 -28 -30 -17 -2 12 36 38 22 50 -17 15 l-31
-28 29 32 c16 18 32 30 36 28 4 -3 13 2 20 10 16 19 36 19 44 0z m-2574 -50
c7 -25 11 -48 8 -50 -3 -3 -12 20 -20 50 -8 30 -12 52 -8 50 4 -2 13 -25 20
-50z m210 46 c0 -6 -4 -13 -10 -16 -5 -3 -10 1 -10 9 0 9 5 16 10 16 6 0 10
-4 10 -9z m2531 -13 c11 -11 19 -25 19 -29 0 -14 -30 2 -40 22 -20 35 -7 40
21 7z m-1921 -20 c0 -16 -3 -19 -11 -11 -6 6 -8 16 -5 22 11 17 16 13 16 -11z
m-770 -32 c0 -26 -6 -18 -14 19 -5 22 -4 26 4 15 5 -8 10 -24 10 -34z m120 -7
c0 -24 -4 -38 -10 -34 -17 10 -11 75 7 75 2 0 3 -18 3 -41z m61 -113 c18 -131
19 -151 6 -177 -13 -28 -14 -19 -21 118 -3 81 -9 164 -13 183 -3 19 -3 32 1
29 3 -3 15 -72 27 -153z m-151 95 c0 -32 -6 -24 -14 19 -4 25 -3 31 4 20 5 -8
10 -26 10 -39z m198 -206 c10 -150 30 -226 97 -375 35 -79 40 -114 37 -257 -1
-56 -6 -83 -14 -83 -6 0 -22 -9 -34 -21 -26 -24 -27 -21 -39 66 -3 28 -12 75
-20 105 -7 30 -16 78 -19 105 -5 49 -5 49 20 -24 14 -41 30 -106 36 -145 14
-92 21 -110 26 -63 2 20 6 37 10 37 12 0 12 162 1 220 -11 56 -37 110 -51 110
-5 0 -1 -14 7 -31 9 -17 18 -58 20 -92 l4 -62 -30 64 c-21 47 -32 62 -40 54
-25 -25 -81 79 -78 145 1 20 2 22 6 7 2 -11 6 -30 9 -42 2 -13 8 -23 13 -23 5
0 5 16 0 38 -5 20 -8 66 -8 102 l1 65 14 -85 c13 -77 42 -165 52 -156 2 3 -1
28 -7 58 -6 29 -17 143 -26 253 -8 110 -17 218 -20 240 -3 32 -2 29 10 -15 7
-30 18 -118 23 -195z m659 128 c28 -28 89 -76 135 -106 100 -66 188 -149 217
-205 12 -23 26 -42 31 -42 9 0 39 -51 67 -112 18 -42 -8 -26 -32 19 -11 21
-38 59 -60 85 -22 26 -53 64 -69 84 -16 20 -62 57 -102 82 -101 65 -117 78
-61 47 27 -15 51 -24 54 -22 5 6 -46 39 -110 72 -43 22 -72 53 -132 141 -47
69 -57 93 -18 44 15 -19 51 -58 80 -87z m1503 113 c0 -3 -4 -8 -10 -11 -5 -3
-10 -1 -10 4 0 6 5 11 10 11 6 0 10 -2 10 -4z m140 -15 c7 -14 7 -22 -2 -27
-7 -4 -8 -3 -4 4 12 19 -6 14 -31 -10 -30 -28 -30 -8 0 26 27 31 24 30 37 7z
m-1639 -18 c13 -16 12 -17 -3 -4 -10 7 -18 15 -18 17 0 8 8 3 21 -13z m1374
-5 c-4 -13 -12 -27 -17 -33 -5 -6 -5 1 1 16 5 15 7 30 4 33 -4 3 -1 6 6 6 8 0
10 -8 6 -22z m84 8 c-2 -2 -15 -9 -29 -16 -23 -12 -24 -12 -11 3 7 10 20 17
29 17 8 0 13 -2 11 -4z m34 -13 c-5 -12 -2 -15 10 -10 29 11 18 -8 -15 -28
l-33 -18 20 23 20 23 -23 -6 c-23 -5 -23 -5 -6 14 21 23 36 25 27 2z m-2376
-15 c-3 -8 -6 -5 -6 6 -1 11 2 17 5 13 3 -3 4 -12 1 -19z m472 -28 c1 -13 0
-13 -9 0 -5 8 -9 24 -9 35 l0 20 9 -20 c5 -11 9 -27 9 -35z m2070 24 c-13 -16
-12 -16 8 -4 18 11 24 11 37 1 9 -7 14 -16 12 -20 -2 -3 7 -7 20 -7 13 -1 22
2 19 6 -8 13 22 19 34 7 21 -21 11 -53 -26 -88 -20 -18 -32 -27 -26 -19 7 9
17 29 23 45 l11 29 -22 -19 c-12 -11 -19 -15 -16 -9 8 13 -20 29 -55 33 -6 1
-4 10 8 24 17 20 16 20 -9 -2 -23 -21 -27 -22 -27 -7 0 10 -5 14 -11 10 -6 -3
-3 5 6 20 10 15 20 24 23 22 3 -3 -1 -13 -9 -22z m211 -154 c10 -73 8 -113 -9
-195 l-8 -40 -6 55 c-4 30 -9 109 -12 175 -3 66 -8 134 -11 150 -3 21 2 15 16
-20 11 -27 24 -83 30 -125z m-650 145 c0 -8 -4 -15 -10 -15 -5 0 -7 7 -4 15 4
8 8 15 10 15 2 0 4 -7 4 -15z m-2193 -27 c-3 -7 -5 -2 -5 12 0 14 2 19 5 13 2
-7 2 -19 0 -25z m1018 12 c10 -11 16 -20 13 -20 -3 0 -13 9 -23 20 -10 11 -16
20 -13 20 3 0 13 -9 23 -20z m1494 1 c-34 -25 -69 -43 -69 -34 0 11 62 52 79
52 8 1 3 -7 -10 -18z m20 -20 c-29 -22 -89 -54 -89 -46 0 7 92 65 104 65 5 0
-2 -8 -15 -19z m-232 -13 c-3 -8 -6 -5 -6 6 -1 11 2 17 5 13 3 -3 4 -12 1 -19z
m-1723 -76 c9 -48 14 -102 10 -118 -4 -20 3 -57 21 -110 15 -43 28 -85 28 -92
0 -6 2 -10 5 -7 2 2 14 -10 26 -28 12 -18 27 -32 33 -32 6 0 15 -4 20 -9 4 -5
3 -6 -4 -2 -21 12 -26 -34 -6 -56 10 -11 18 -23 18 -27 0 -3 4 -5 8 -3 5 1 7
-8 5 -20 -2 -14 2 -22 9 -21 6 1 28 -20 48 -48 19 -27 39 -48 44 -45 5 3 17
-4 27 -17 l19 -22 -22 19 c-33 28 -28 2 8 -38 l31 -35 -34 1 c-29 1 -38 8 -66
51 -34 52 -41 73 -19 61 8 -5 8 -2 -2 9 -16 20 -25 22 -16 5 4 -7 -1 -4 -10 7
-26 32 -85 135 -85 149 0 7 -12 24 -28 37 -30 27 -142 162 -142 173 0 4 -11
19 -25 34 -14 15 -25 31 -25 36 0 6 -12 22 -27 38 -14 15 -24 30 -21 33 5 5
37 -37 165 -212 26 -35 40 -42 40 -18 0 8 -3 13 -6 11 -3 -2 -6 8 -7 23 0 15
-9 40 -20 56 -14 21 -20 50 -21 105 -1 41 -4 103 -6 138 -2 34 -1 62 3 62 5 0
15 -40 24 -88z m1776 79 c0 -5 -7 -12 -16 -15 -14 -5 -15 -4 -4 9 14 17 20 19
20 6z m210 4 c0 -7 -63 -45 -75 -45 -5 0 8 11 30 25 44 27 45 27 45 20z
m-2060 -40 c0 -5 -5 -3 -10 5 -5 8 -10 20 -10 25 0 6 5 3 10 -5 5 -8 10 -19
10 -25z m2074 14 l-19 -22 32 17 c37 19 43 20 43 7 0 -13 -38 -26 -77 -26 -35
0 -35 1 4 26 37 23 40 23 17 -2z m-204 -9 c-24 -15 -37 -11 -16 5 11 8 22 12
25 9 3 -3 -1 -9 -9 -14z m-2320 -21 c0 -6 -4 -7 -10 -4 -5 3 -10 11 -10 16 0
6 5 7 10 4 6 -3 10 -11 10 -16z m167 -26 c-3 -10 -5 -2 -5 17 0 19 2 27 5 18
2 -10 2 -26 0 -35z m604 -20 c12 -38 42 -97 67 -133 l45 -65 -37 35 c-45 42
-76 97 -93 165 -14 56 -15 65 -9 65 2 0 14 -30 27 -67z m1819 52 c-7 -9 -15
-13 -19 -10 -3 3 1 10 9 15 21 14 24 12 10 -5z m-2633 -152 c-2 -32 -3 -8 -3
52 0 61 1 87 3 58 2 -29 2 -78 0 -110z m2388 147 c-3 -5 -12 -10 -18 -10 -7 0
-6 4 3 10 19 12 23 12 15 0z m-260 -93 c-15 -39 -32 -76 -38 -82 -6 -7 -8 -5
-4 5 3 8 18 51 33 95 15 44 29 74 32 67 2 -6 -9 -45 -23 -85z m550 84 c3 -5 0
-13 -6 -17 -8 -4 -9 -3 -5 4 10 16 -16 15 -34 0 -12 -11 -12 -10 -1 5 15 19
36 22 46 8z m-1935 -91 c17 -46 41 -100 52 -120 12 -19 29 -46 37 -60 15 -25
15 -25 -6 -7 -27 23 -109 191 -118 242 -10 56 -1 42 35 -55z m1800 80 c0 -5
-8 -10 -17 -10 -15 0 -16 2 -3 10 19 12 20 12 20 0z m167 -26 c-3 -3 -12 -4
-19 -1 -8 3 -5 6 6 6 11 1 17 -2 13 -5z m-2765 -122 c-3 -15 -8 -29 -12 -32
-3 -3 -12 -25 -18 -50 l-11 -45 5 50 c3 28 10 79 17 115 11 64 12 64 18 27 3
-21 4 -50 1 -65z m266 21 c-6 -79 3 -202 20 -281 6 -26 6 -45 0 -48 -5 -4 -7
-18 -4 -33 4 -17 3 -21 -3 -11 -8 14 -21 82 -37 188 -3 23 -10 42 -15 42 -5 0
-9 15 -9 33 0 22 3 28 9 18 14 -22 21 1 28 88 3 45 8 81 11 81 3 0 3 -35 0
-77z m109 55 c-3 -8 -6 -5 -6 6 -1 11 2 17 5 13 3 -3 4 -12 1 -19z m1842 -322
c-8 -8 -9 0 -4 29 5 31 4 37 -5 25 -9 -11 -9 -4 -3 30 4 25 8 70 8 100 2 148
10 146 12 -4 3 -114 0 -173 -8 -180z m461 334 c-8 -5 -19 -10 -25 -10 -5 0 -3
5 5 10 8 5 20 10 25 10 6 0 3 -5 -5 -10z m20 -15 c-7 -8 -20 -15 -29 -15 -11
0 -8 5 9 14 33 19 35 19 20 1z m-305 -5 c4 -7 12 -7 18 -2 17 12 57 13 57 1 0
-6 -4 -7 -10 -4 -5 3 -10 -1 -10 -10 0 -9 5 -13 10 -10 6 3 10 0 10 -8 0 -8
-7 -17 -15 -21 -9 -3 -15 0 -15 10 0 11 -6 15 -20 11 -10 -3 -19 -2 -18 2 2
16 -5 18 -37 11 -39 -9 -47 1 -12 18 29 14 34 14 42 2z m-1468 -159 c-3 -10
43 -63 171 -197 56 -59 105 -118 108 -131 4 -13 9 -23 13 -23 11 0 41 -57 40
-77 0 -14 -2 -15 -6 -3 -4 8 -33 44 -65 80 -32 36 -56 70 -54 77 3 6 -3 17
-12 25 -16 12 -16 11 -3 -7 8 -11 -11 5 -43 35 -54 51 -146 169 -146 186 0 4
-12 22 -27 38 -19 20 -20 24 -5 12 33 -29 27 -11 -18 45 -22 28 -40 60 -40 72
0 14 15 -4 45 -52 24 -40 44 -76 42 -80z m-738 35 c1 -42 -1 -47 -14 -36 -10
8 -15 31 -15 70 0 105 26 75 29 -34z m198 82 c-3 -8 -6 -5 -6 6 -1 11 2 17 5
13 3 -3 4 -12 1 -19z m-991 -25 c-10 -10 -19 5 -10 18 6 11 8 11 12 0 2 -7 1
-15 -2 -18z m1323 -23 c6 -19 7 -30 2 -25 -5 6 -13 24 -17 40 -9 39 0 30 15
-15z m367 -12 c29 -31 29 -31 2 -12 -15 10 -29 25 -32 32 -8 18 -2 15 30 -20z
m-689 -10 c-3 -7 -5 -2 -5 12 0 14 2 19 5 13 2 -7 2 -19 0 -25z m2033 22 c13
-9 13 -11 1 -19 -15 -10 -43 8 -34 22 6 9 15 9 33 -3z m-280 -91 c-5 -35 -11
-111 -11 -169 l-2 -105 -8 110 c-6 84 -4 124 7 168 8 32 14 61 14 64 0 4 2 4
5 1 3 -3 1 -34 -5 -69z m410 61 c0 -5 -2 -10 -4 -10 -3 0 -8 5 -11 10 -3 6 -1
10 4 10 6 0 11 -4 11 -10z m-1251 -48 c10 -20 26 -55 35 -76 l16 -39 -20 18
c-12 11 -28 35 -36 54 -9 20 -20 44 -25 53 -5 10 -9 23 -9 28 0 19 20 0 39
-38z m-1282 -9 c-3 -10 -5 -2 -5 17 0 19 2 27 5 18 2 -10 2 -26 0 -35z m472
-90 c36 -46 43 -62 52 -130 6 -43 9 -102 6 -130 -3 -30 -1 -53 4 -53 5 0 9 -7
9 -16 0 -13 -3 -14 -14 -5 -10 8 -16 9 -21 1 -4 -6 -1 -9 7 -8 7 2 12 -3 10
-11 -2 -8 3 -11 11 -8 15 6 16 -10 3 -49 -6 -16 -14 -20 -33 -16 -23 4 -24 8
-19 46 27 197 8 367 -43 384 -11 4 -12 -4 -7 -34 5 -31 1 -26 -19 26 -14 36
-25 81 -25 100 l0 35 19 -40 c10 -22 37 -64 60 -92z m1923 115 c3 -7 9 -8 19
-3 18 12 50 7 71 -12 14 -13 17 -12 27 4 9 15 10 12 11 -19 0 -20 2 -45 5 -55
3 -10 -2 -4 -11 14 -30 56 -94 65 -94 12 0 -11 -3 -19 -6 -19 -10 0 -34 28
-34 39 0 6 -13 11 -30 11 -38 0 -39 15 -2 28 36 14 40 14 44 0z m-2135 -30
c-3 -7 -5 -2 -5 12 0 14 2 19 5 13 2 -7 2 -19 0 -25z m903 7 c13 -14 21 -25
18 -25 -2 0 -15 11 -28 25 -13 14 -21 25 -18 25 2 0 15 -11 28 -25z m2470 -5
c0 -5 -2 -10 -4 -10 -3 0 -8 5 -11 10 -3 6 -1 10 4 10 6 0 11 -4 11 -10z
m-3589 -170 c-10 -73 -10 -72 -6 35 5 136 8 154 12 90 2 -27 -1 -84 -6 -125z
m974 91 l18 -24 -32 24 c-17 12 -39 34 -48 48 l-16 25 30 -24 c16 -14 38 -36
48 -49z m78 -10 c42 -34 77 -65 77 -68 0 -3 -7 0 -15 7 -24 20 -17 6 8 -18 18
-17 24 -19 24 -8 0 8 -5 12 -10 9 -6 -3 -7 -1 -3 6 9 14 36 -4 36 -24 0 -15
83 -140 117 -176 l24 -26 -25 -5 c-19 -4 -27 0 -32 15 -7 22 -89 133 -106 143
-6 4 -8 3 -4 -4 3 -6 2 -13 -2 -16 -5 -3 -24 11 -43 32 -32 35 -32 36 -3 9 21
-19 34 -25 39 -17 8 13 -14 42 -26 34 -5 -3 -13 6 -18 19 -11 29 -50 59 -64
50 -6 -3 -7 -2 -4 4 3 5 -12 27 -33 48 -22 22 -40 45 -40 53 0 17 -6 20 103
-67z m187 -3 c0 -13 -5 -10 -41 29 l-34 36 37 -29 c21 -16 38 -32 38 -36z
m1550 43 c1 -33 18 -157 25 -185 6 -20 5 -27 -3 -22 -6 3 -16 32 -24 64 -11
51 -13 54 -18 27 -3 -16 -3 -32 1 -35 12 -9 22 -73 10 -66 -6 4 -11 18 -11 31
0 13 -4 26 -9 29 -5 3 -7 25 -6 48 1 24 3 61 4 84 1 29 5 41 16 41 8 0 15 -7
15 -16z m-1964 -31 c15 -22 30 -38 34 -35 8 5 26 -14 45 -45 5 -10 16 -28 23
-40 14 -22 14 -22 -18 2 -34 25 -132 158 -116 158 3 0 18 -18 32 -40z m-745
-267 c-10 -22 -14 -23 -29 -12 -15 12 -16 12 -5 -2 7 -9 9 -20 5 -25 -4 -4 0
-3 9 4 14 10 18 10 22 -3 4 -9 -2 -19 -13 -25 -17 -9 -22 -7 -29 14 -6 13 -15
27 -21 31 -8 5 -8 11 0 19 5 7 17 60 26 117 27 183 27 183 37 40 6 -95 6 -141
-2 -158z m2380 226 c-10 -23 -10 -23 -10 7 -1 17 2 34 7 38 11 12 14 -18 3
-45z m1407 26 c-3 -3 -9 2 -12 12 -6 14 -5 15 5 6 7 -7 10 -15 7 -18z m-3730
-70 c0 -29 0 -29 -8 -5 -4 14 -8 41 -8 60 l0 35 8 -30 c4 -16 8 -43 8 -60z
m542 50 c0 -5 -5 -3 -10 5 -5 8 -10 20 -10 25 0 6 5 3 10 -5 5 -8 10 -19 10
-25z m680 -18 c0 -5 16 -45 35 -88 19 -44 35 -91 35 -104 0 -17 7 -25 23 -28
20 -4 20 -4 -4 -6 -23 -1 -27 4 -37 51 -7 28 -30 92 -52 142 -25 57 -33 82
-20 66 11 -14 20 -29 20 -33z m70 12 c12 -23 20 -43 18 -45 -3 -2 -14 17 -26
41 -27 56 -20 60 8 4z m-2170 0 c-10 -34 -20 -50 -20 -31 0 14 18 62 24 62 3
0 1 -14 -4 -31z m3067 25 c-3 -3 -12 -4 -19 -1 -8 3 -5 6 6 6 11 1 17 -2 13
-5z m934 -41 c13 -15 12 -15 -8 -4 -24 12 -29 21 -14 21 5 0 15 -7 22 -17z
m-2491 -47 c0 -12 -14 5 -31 39 -8 16 -6 15 10 -4 12 -13 21 -28 21 -35z
m1667 40 c0 -8 -6 -12 -14 -9 -7 3 -13 9 -13 14 0 5 6 9 13 9 8 0 14 -6 14
-14z m-2010 -38 c-3 -7 -5 -2 -5 12 0 14 2 19 5 13 2 -7 2 -19 0 -25z m514 15
c13 -16 12 -17 -3 -4 -17 13 -22 21 -14 21 2 0 10 -8 17 -17z m124 6 c12 -19
-5 -23 -22 -6 -16 16 -16 17 -1 17 9 0 20 -5 23 -11z m1336 -21 c9 -19 9 -21
-1 -11 -11 10 -16 9 -26 -5 -8 -10 -13 -12 -14 -4 0 17 -18 15 -23 -3 -4 -11
-5 -10 -3 2 1 13 36 42 53 43 1 0 8 -10 14 -22z m1286 -34 c21 -31 48 -70 59
-88 25 -36 143 -148 200 -189 21 -16 58 -34 82 -40 26 -7 41 -16 38 -23 -3 -9
3 -10 22 -5 15 4 34 7 42 7 24 -1 64 -75 109 -201 24 -66 48 -125 53 -132 6
-8 4 -11 -9 -9 -10 2 -19 8 -19 14 -1 7 -2 13 -3 15 -2 1 -5 13 -7 27 -2 13
-10 33 -17 45 -7 11 -23 47 -36 80 -13 33 -30 67 -37 76 -8 8 -14 27 -14 42 0
29 -20 48 -21 20 0 -10 0 -52 0 -93 l1 -75 -29 47 c-36 56 -45 62 -61 43 -7
-8 -16 -12 -21 -9 -5 3 -4 -7 2 -23 9 -25 7 -24 -26 12 l-36 40 26 -45 26 -45
-30 35 c-17 19 -31 38 -31 43 0 4 -9 7 -19 7 -11 0 -23 5 -26 10 -3 6 -11 10
-17 10 -6 0 -3 -9 7 -20 10 -11 21 -18 25 -15 4 2 18 -8 31 -23 20 -22 20 -24
3 -9 -16 14 -23 15 -26 5 -4 -12 -67 48 -68 65 0 4 -5 7 -11 7 -8 0 -8 -5 1
-15 7 -8 9 -15 4 -15 -4 0 1 -7 12 -15 10 -8 15 -15 9 -15 -5 0 -27 17 -49 38
-22 20 -33 28 -23 16 9 -11 17 -25 17 -31 0 -6 7 -16 16 -23 8 -8 20 -23 26
-34 5 -12 -7 -2 -28 20 -40 43 -104 81 -104 62 0 -5 28 -38 61 -71 56 -56 85
-100 81 -120 -1 -4 3 -6 10 -5 7 2 15 -13 18 -34 4 -21 6 -38 5 -38 -4 0 -65
101 -65 108 0 3 -10 16 -21 28 -12 13 -27 34 -34 46 -6 13 -17 22 -24 20 -8
-1 -10 3 -5 10 5 10 4 10 -6 1 -11 -10 -17 -10 -29 0 -12 8 -11 6 2 -9 9 -11
17 -25 17 -31 0 -6 9 -22 21 -37 11 -14 17 -26 13 -26 -4 0 1 -9 12 -21 10
-12 18 -24 17 -28 -1 -5 31 -82 44 -103 2 -5 0 -8 -5 -8 -5 0 -17 19 -28 42
-10 22 -31 58 -45 78 -21 29 -25 40 -16 49 9 9 8 11 -3 8 -9 -3 -33 15 -60 47
-40 46 -41 47 -7 17 20 -19 37 -30 37 -24 0 13 -67 99 -101 129 -46 41 -181
104 -244 114 -7 1 -27 8 -60 22 -30 12 -30 12 -5 15 14 2 59 -6 100 -17 41
-12 111 -31 155 -44 44 -12 94 -29 112 -38 21 -11 49 -14 91 -11 33 2 80 -1
104 -7 23 -6 50 -12 58 -14 8 -2 24 0 35 4 18 6 17 8 -10 25 -42 26 -85 67
-80 75 3 4 -5 7 -17 6 -13 -1 -22 6 -24 17 -4 26 -33 69 -44 62 -9 -6 -50 41
-50 58 0 6 -10 21 -22 35 -13 13 -35 45 -49 70 -15 26 -32 46 -39 44 -6 -1 -9
2 -5 8 12 19 23 10 62 -46z m-3580 14 c-3 -7 -5 -2 -5 12 0 14 2 19 5 13 2 -7
2 -19 0 -25z m-897 18 c0 -2 -8 -10 -17 -17 -16 -13 -17 -12 -4 4 13 16 21 21
21 13z m767 -28 c-3 -7 -5 -2 -5 12 0 14 2 19 5 13 2 -7 2 -19 0 -25z m867
-88 c15 0 146 -132 146 -147 0 -7 -2 -13 -5 -13 -9 0 -90 93 -88 101 2 5 -4 6
-12 3 -8 -4 -34 14 -65 45 -28 28 -55 51 -60 51 -13 0 -60 63 -54 72 3 5 33
-19 66 -52 34 -33 66 -60 72 -60z m7 88 c17 -24 18 -29 6 -19 -18 14 -42 51
-33 51 3 0 15 -15 27 -32z m1662 26 c8 -8 -3 -34 -14 -34 -4 0 -6 7 -3 15 5
11 2 13 -12 8 -12 -4 -15 -3 -10 5 8 13 29 16 39 6z m37 -14 c8 -16 8 -20 -2
-18 -8 2 -13 -8 -13 -27 0 -22 -5 -31 -20 -33 l-20 -4 20 16 c12 9 15 15 7 16
-10 0 -10 4 0 23 7 12 11 28 10 35 -4 19 6 14 18 -8z m-375 -130 c16 -121 18
-131 27 -146 4 -6 10 -26 13 -44 3 -18 10 -41 15 -51 6 -10 10 -24 10 -31 -1
-24 -41 75 -60 148 -10 40 -21 117 -24 171 -6 111 -2 102 19 -47z m1196 123
c13 -16 12 -17 -3 -4 -17 13 -22 21 -14 21 2 0 10 -8 17 -17z m-2934 -30 c-3
-10 -5 -4 -5 12 0 17 2 24 5 18 2 -7 2 -21 0 -30z m1877 22 c-4 -8 -8 -15 -10
-15 -2 0 -4 7 -4 15 0 8 4 15 10 15 5 0 7 -7 4 -15z m741 -3 c-3 -3 -11 0 -18
7 -9 10 -8 11 6 5 10 -3 15 -9 12 -12z m1021 -84 c12 -52 11 -79 -2 -42 -16
48 -35 81 -58 103 -38 36 -31 45 11 16 31 -20 40 -34 49 -77z m-1786 82 c0 -5
-4 -10 -10 -10 -5 0 -10 5 -10 10 0 6 5 10 10 10 6 0 10 -4 10 -10z m340 -52
c0 -16 -19 -7 -23 10 -3 9 -6 -5 -7 -33 -1 -27 -6 -61 -11 -75 -7 -20 -8 -17
-4 15 3 22 5 65 5 95 l0 55 20 -30 c11 -16 20 -33 20 -37z m287 14 c30 -19 50
-39 46 -45 -3 -6 -1 -7 6 -3 6 4 35 -4 64 -17 89 -41 112 -51 120 -49 7 2 33
-8 117 -46 25 -11 25 -11 -7 -11 -17 -1 -34 3 -37 8 -3 4 -20 11 -37 15 -18 3
-39 12 -47 18 -8 7 -19 13 -26 14 -7 1 -34 12 -61 24 -28 13 -57 23 -65 24
-17 1 -60 32 -118 84 -42 38 -31 34 45 -16z m-464 -9 c3 -21 9 -49 12 -63 l6
-25 -11 25 c-15 33 -29 111 -20 105 4 -2 10 -21 13 -42z m538 29 c-7 -2 -18 1
-23 6 -8 8 -4 9 13 5 13 -4 18 -8 10 -11z m-3024 -39 c-3 -10 -5 -2 -5 17 0
19 2 27 5 18 2 -10 2 -26 0 -35z m1036 -22 c27 -46 15 -37 -23 17 -19 26 -25
39 -14 30 10 -9 27 -30 37 -47z m-1022 -32 l-11 -34 5 34 c3 18 6 45 6 60 l2
26 4 -26 c2 -15 -1 -42 -6 -60z m2911 7 c42 -64 92 -91 196 -105 84 -11 122
-24 122 -42 0 -6 -9 -5 -22 2 -13 6 2 -15 33 -47 66 -70 100 -117 40 -56 -42
42 -59 53 -45 30 4 -7 -4 -4 -17 7 -48 40 -88 65 -93 57 -3 -5 19 -33 49 -62
30 -30 55 -61 55 -69 0 -7 41 -56 92 -107 50 -52 88 -94 83 -94 -5 0 7 -17 27
-37 26 -29 42 -60 62 -128 15 -49 35 -101 44 -115 14 -23 14 -24 -1 -12 -9 8
-28 50 -43 95 -33 100 -50 135 -80 166 -13 13 -22 27 -19 31 3 4 -2 13 -10 20
-8 7 -15 9 -15 5 0 -4 -6 -2 -13 4 -8 6 -18 7 -22 3 -5 -4 -5 -1 -1 5 9 16
-11 54 -26 50 -5 -1 -18 12 -28 28 -9 17 -22 30 -28 30 -7 0 -21 15 -32 33
-11 18 -24 30 -29 27 -5 -3 -13 0 -17 6 -4 8 -3 9 4 5 7 -4 12 -4 12 1 -1 12
-40 60 -40 49 0 -5 -9 -1 -20 9 -11 10 -20 15 -20 12 0 -3 -23 16 -52 44 -28
27 -53 47 -56 44 -3 -3 -16 11 -29 30 -13 20 -28 33 -33 30 -10 -6 -70 61 -70
80 0 7 -3 22 -6 32 -5 16 12 -6 48 -61z m1102 58 c3 -8 2 -12 -4 -9 -6 3 -10
10 -10 16 0 14 7 11 14 -7z m-4847 -9 c0 -8 -4 -12 -9 -9 -5 3 -6 10 -3 15 9
13 12 11 12 -6z m1070 -17 c-3 -7 -5 -2 -5 12 0 14 2 19 5 13 2 -7 2 -19 0
-25z m-1107 7 c-7 -8 -21 -15 -31 -15 -10 0 -20 -4 -23 -8 -7 -12 -76 -14 -76
-3 0 6 15 10 33 9 18 -1 46 6 62 14 39 21 50 22 35 3z m1483 -37 c-2 -23 -7
-46 -10 -52 -3 -5 -1 -6 5 -2 8 5 12 -5 13 -33 3 -88 2 -94 -13 -85 -7 4 -2
-3 10 -16 21 -20 22 -24 8 -38 -12 -13 -18 -13 -30 -3 -9 8 -13 17 -10 23 3 5
7 57 8 117 2 94 8 131 21 131 2 0 1 -19 -2 -42z m2165 -6 c4 -35 -5 -25 -12
12 -3 16 -2 25 1 22 4 -4 9 -19 11 -34z m45 18 c3 -11 1 -20 -4 -20 -5 0 -9 9
-9 20 0 11 2 20 4 20 2 0 6 -9 9 -20z m-3698 -20 c-10 -11 -22 -20 -28 -20 -5
0 1 9 14 20 31 25 37 25 14 0z m2972 -17 c-3 -10 -5 -4 -5 12 0 17 2 24 5 18
2 -7 2 -21 0 -30z m-3173 -28 c-9 -14 -19 -23 -22 -20 -5 4 26 45 35 45 2 0
-4 -11 -13 -25z m3784 0 c-3 -3 -9 2 -12 12 -6 14 -5 15 5 6 7 -7 10 -15 7
-18z m-1450 -21 c-3 -14 -5 -12 -10 9 -3 19 -2 25 4 19 6 -6 8 -18 6 -28z
m1631 -32 c17 -32 57 -84 91 -117 57 -55 88 -101 76 -112 -3 -3 -16 13 -30 35
-14 22 -30 43 -36 47 -14 9 -13 -18 3 -34 6 -8 7 -11 2 -8 -6 3 -33 41 -60 84
-27 43 -54 83 -61 88 -9 8 -34 67 -34 82 0 16 25 -18 49 -65z m-427 33 c3 -13
1 -22 -3 -19 -9 5 -13 44 -5 44 2 0 6 -11 8 -25z m-1907 -14 c0 -19 -4 -27
-12 -24 -7 3 -11 8 -9 12 1 3 6 14 9 24 9 24 12 21 12 -12z m28 4 c-7 -21 -13
-19 -13 6 0 11 4 18 10 14 5 -3 7 -12 3 -20z m987 -7 c25 -17 35 -32 38 -58 4
-40 -5 -38 -10 2 -5 35 -17 46 -29 28 -7 -12 -11 -12 -17 -2 -5 7 -13 12 -18
11 -20 -3 -35 2 -29 10 3 5 0 13 -6 17 -8 4 -9 3 -5 -5 6 -9 -4 -11 -37 -8
-32 3 -44 1 -44 -9 0 -7 5 -10 11 -6 17 10 35 11 41 2 2 -4 -5 -7 -18 -6 -13
1 -21 -4 -19 -12 2 -10 -2 -10 -20 0 -13 7 -26 13 -30 14 -5 1 -9 2 -10 4 -12
9 -39 5 -49 -6 -13 -15 -12 -15 31 -19 56 -5 55 -4 42 -17 -8 -8 -15 -8 -26 1
-8 7 -17 8 -20 2 -8 -12 -46 -3 -68 16 -11 10 -18 11 -23 3 -3 -5 -10 -8 -15
-5 -4 3 -7 -6 -6 -19 3 -25 -12 -26 -41 -4 -9 7 -11 4 -8 -11 3 -18 0 -20 -28
-14 -18 3 -34 6 -37 5 -39 0 -50 -4 -45 -12 3 -5 -1 -10 -10 -10 -10 0 -13 -5
-9 -12 5 -9 2 -9 -9 1 -9 7 -17 10 -17 5 0 -4 -5 -3 -12 4 -6 6 -16 8 -22 3
-7 -5 -24 -1 -41 10 -16 11 -24 19 -16 19 8 0 23 -7 33 -17 17 -15 18 -15 18
0 0 20 18 23 26 4 3 -8 12 -14 20 -14 10 0 11 4 4 11 -23 23 -17 25 94 30 19
0 33 3 31 6 -3 5 179 63 230 74 11 2 47 4 81 5 48 1 68 -4 94 -21z m747 -10
c-3 -8 -6 -5 -6 6 -1 11 2 17 5 13 3 -3 4 -12 1 -19z m-2184 -58 c4 -21 3 -29
-2 -20 -5 8 -11 33 -15 55 -7 48 8 18 17 -35z m1974 8 c-2 -13 -4 -3 -4 22 0
25 2 35 4 23 2 -13 2 -33 0 -45z m500 43 c0 -11 -5 -18 -9 -15 -4 3 -5 11 -1
19 7 21 12 19 10 -4z m-1834 -14 c12 -19 13 -24 2 -24 -8 0 -12 4 -9 8 2 4 0
10 -6 14 -9 6 -14 25 -6 25 2 0 11 -10 19 -23z m591 2 c3 -3 -5 -5 -19 -5 -13
0 -22 3 -19 7 4 8 30 6 38 -2z m1164 -30 c12 -47 0 -41 -16 9 -6 17 -7 32 -3
32 5 0 13 -19 19 -41z m-1583 13 c-3 -3 -11 0 -18 7 -9 10 -8 11 6 5 10 -3 15
-9 12 -12z m559 2 c3 -8 2 -12 -4 -9 -6 3 -10 10 -10 16 0 14 7 11 14 -7z
m921 6 c3 -5 1 -10 -4 -10 -6 0 -11 5 -11 10 0 6 2 10 4 10 3 0 8 -4 11 -10z
m-2819 -26 c-23 -16 -50 -19 -41 -3 8 12 48 29 55 22 3 -3 -4 -11 -14 -19z
m1669 6 c-3 -5 5 -10 17 -12 12 -2 23 -9 26 -16 2 -8 -8 -6 -31 7 -19 11 -39
17 -43 13 -5 -4 -2 1 5 10 13 17 37 15 26 -2z m-1592 -5 c19 -8 49 -17 66 -20
34 -6 141 -51 141 -59 0 -7 -99 23 -132 40 -15 8 -33 14 -40 14 -7 0 -25 6
-40 14 -16 8 -30 10 -35 5 -6 -6 -10 -4 -10 6 0 19 6 19 50 0z m1792 5 c3 -6
-1 -7 -9 -4 -18 7 -21 14 -7 14 6 0 13 -4 16 -10z m892 -12 c-3 -8 -6 -5 -6 6
-1 11 2 17 5 13 3 -3 4 -12 1 -19z m1030 -30 c51 -28 92 -57 90 -62 -3 -6 3
-20 12 -31 8 -11 -5 -1 -30 23 -45 42 -73 57 -48 25 7 -10 1 -7 -14 6 -46 41
-39 17 8 -29 25 -24 45 -47 45 -51 0 -4 -17 10 -38 32 -41 42 -55 49 -45 23 3
-8 -12 1 -33 20 -22 20 -43 36 -47 36 -5 0 -5 5 -2 10 4 6 1 9 -7 8 -7 -2 -12
3 -10 10 1 8 -2 11 -7 8 -5 -3 -14 1 -21 9 -11 13 -8 15 20 15 21 0 67 -19
127 -52z m-2840 20 c-3 -8 -6 -5 -6 6 -1 11 2 17 5 13 3 -3 4 -12 1 -19z m873
2 c6 -11 8 -20 6 -20 -3 0 -10 9 -16 20 -6 11 -8 20 -6 20 3 0 10 -9 16 -20z
m707 -66 c-1 -2 -8 1 -16 5 -9 6 -10 19 -5 47 l8 39 8 -44 c4 -25 6 -46 5 -47z
m-1198 32 c22 -26 -11 -13 -44 18 l-30 29 31 -16 c17 -9 36 -22 43 -31z m2351
-1 c24 -24 42 -47 39 -50 -3 -2 -27 18 -54 45 -27 28 -45 50 -39 50 5 0 30
-20 54 -45z m-2420 20 c17 -9 30 -18 30 -21 0 -4 -59 23 -69 32 -10 9 13 3 39
-11z m604 -16 c12 -23 12 -28 2 -20 -12 11 -29 51 -21 51 2 0 10 -14 19 -31z
m99 11 c3 -11 1 -18 -4 -14 -5 3 -9 12 -9 20 0 20 7 17 13 -6z m-1983 -3 c-37
-14 -45 -14 -37 0 3 5 20 9 39 10 l33 2 -35 -12z m106 -3 c27 -9 56 -18 64
-21 8 -4 18 -7 23 -8 4 -2 9 -4 12 -5 3 -1 10 -4 15 -5 6 -1 12 -4 15 -5 8 -4
24 -7 41 -9 8 0 12 -6 9 -11 -4 -6 -12 -7 -18 -3 -7 4 -20 9 -29 10 -19 3 -61
11 -65 12 -2 1 -6 2 -10 3 -57 13 -117 36 -121 46 -5 16 5 15 64 -4z m1146 -9
c3 3 10 -1 16 -8 22 -26 -17 -15 -40 12 -20 22 -20 23 -2 8 11 -9 23 -15 26
-12z m293 7 c-3 -3 -11 0 -18 7 -9 10 -8 11 6 5 10 -3 15 -9 12 -12z m99 -8
c7 -19 2 -18 -19 6 -16 17 -16 20 -3 15 9 -4 19 -13 22 -21z m399 1 c-7 -21
-13 -19 -13 6 0 11 4 18 10 14 5 -3 7 -12 3 -20z m992 15 c-3 -5 -11 -10 -16
-10 -6 0 -7 5 -4 10 3 6 11 10 16 10 6 0 7 -4 4 -10z m130 -1 c-4 -5 -17 -15
-28 -20 -21 -9 -46 -23 -75 -42 -7 -5 -10 -13 -6 -18 4 -6 11 -6 19 1 8 7 15
7 19 1 4 -5 1 -13 -6 -18 -20 -12 -38 -12 -35 0 1 7 -6 12 -15 12 -10 0 -18 5
-18 10 0 6 3 10 8 10 6 0 68 33 122 65 20 12 22 12 15 -1z m-1378 -14 c9 -25
-4 -29 -17 -6 -7 15 -7 21 0 21 6 0 13 -7 17 -15z m2904 -7 c10 -13 19 -30 19
-38 0 -8 11 -39 25 -69 15 -31 19 -49 11 -42 -11 9 -57 101 -61 121 0 3 -6 15
-13 28 -7 12 -10 22 -6 22 3 0 14 -10 25 -22z m-3081 -10 c0 -6 -6 -5 -15 2
-8 7 -15 14 -15 16 0 2 7 1 15 -2 8 -4 15 -11 15 -16z m80 -10 c0 -6 -7 -5
-15 2 -8 7 -15 17 -15 22 0 6 7 5 15 -2 8 -7 15 -17 15 -22z m230 22 c0 -5 -2
-10 -4 -10 -3 0 -8 5 -11 10 -3 6 -1 10 4 10 6 0 11 -4 11 -10z m41 -7 c13
-16 12 -17 -3 -4 -17 13 -22 21 -14 21 2 0 10 -8 17 -17z m1089 2 c-14 -17
-30 -20 -30 -6 0 5 8 12 18 14 9 3 19 5 21 6 2 0 -2 -6 -9 -14z m-2110 -21
c16 -16 10 -16 -74 1 -18 4 -35 1 -45 -8 -9 -8 -23 -18 -31 -22 -13 -7 -13 -6
0 8 43 45 116 55 150 21z m451 9 c13 -16 12 -17 -3 -4 -17 13 -22 21 -14 21 2
0 10 -8 17 -17z m-164 -10 c3 -7 -3 -9 -17 -6 -28 8 -34 20 -8 19 12 0 23 -6
25 -13z m333 7 c0 -5 -2 -10 -4 -10 -3 0 -8 5 -11 10 -3 6 -1 10 4 10 6 0 11
-4 11 -10z m220 -32 c0 -14 -19 1 -31 25 -12 22 -12 22 10 3 11 -11 21 -23 21
-28z m227 20 c-3 -8 -6 -5 -6 6 -1 11 2 17 5 13 3 -3 4 -12 1 -19z m-662 2 c3
-5 1 -10 -4 -10 -6 0 -11 5 -11 10 0 6 2 10 4 10 3 0 8 -4 11 -10z m245 -10
c9 -16 8 -18 -5 -14 -8 4 -15 12 -15 20 0 20 7 17 20 -6z m477 -2 c-3 -8 -6
-5 -6 6 -1 11 2 17 5 13 3 -3 4 -12 1 -19z m-517 -14 c0 -8 -4 -12 -10 -9 -5
3 -10 13 -10 21 0 8 5 12 10 9 6 -3 10 -13 10 -21z m300 -7 c0 -5 -4 -5 -10
-2 -5 3 -10 14 -10 23 0 15 2 15 10 2 5 -8 10 -19 10 -23z m316 -32 c12 -18
25 -46 28 -61 13 -65 14 -84 5 -89 -5 -4 -9 4 -10 17 -1 41 -10 82 -20 94 -5
6 -7 13 -4 16 3 3 -1 11 -10 18 -12 10 -15 10 -16 -1 -1 -19 -17 31 -17 56 -1
19 0 19 11 1 7 -10 22 -33 33 -51z m536 29 c-9 -16 -10 -14 -9 8 1 15 6 23 11
18 4 -4 4 -16 -2 -26z m112 20 c3 -8 2 -12 -4 -9 -6 3 -10 10 -10 16 0 14 7
11 14 -7z m-2406 -56 c-3 -27 -10 -54 -16 -60 -8 -8 -8 0 0 26 10 31 9 39 -2
46 -8 5 -11 12 -7 16 4 4 2 13 -4 20 -8 10 -5 11 12 7 19 -5 21 -11 17 -55z
m499 38 c18 -21 18 -21 -3 -3 -11 9 -23 14 -26 11 -3 -3 -8 -1 -12 4 -11 18
25 8 41 -12z m483 3 c0 -6 -4 -7 -10 -4 -5 3 -10 11 -10 16 0 6 5 7 10 4 6 -3
10 -11 10 -16z m290 0 c0 -6 -4 -7 -10 -4 -5 3 -10 11 -10 16 0 6 5 7 10 4 6
-3 10 -11 10 -16z m277 -8 c7 -19 7 -34 1 -42 -8 -11 -9 -11 -5 1 3 9 -1 24
-9 35 -16 21 -18 35 -6 35 4 0 13 -13 19 -29z m-942 9 c3 -6 -1 -7 -9 -4 -18
7 -21 14 -7 14 6 0 13 -4 16 -10z m145 1 c0 -5 -8 -15 -17 -22 -14 -12 -16
-12 -8 0 6 11 3 13 -13 9 -29 -8 -28 0 1 12 29 12 37 12 37 1z m467 -13 c-3
-8 -6 -5 -6 6 -1 11 2 17 5 13 3 -3 4 -12 1 -19z m133 -21 c0 -20 -25 2 -26
23 -1 23 -1 23 12 5 8 -10 14 -23 14 -28z m161 21 c11 -21 11 -22 -4 -9 -10 7
-17 17 -17 22 0 15 9 10 21 -13z m1243 0 c-10 -13 -23 -26 -29 -30 -5 -4 -6
-8 -1 -8 5 0 3 -7 -4 -15 -7 -8 -16 -13 -20 -10 -5 3 -12 0 -16 -6 -5 -8 -3
-9 7 -4 8 5 11 4 6 -1 -5 -5 -11 -8 -13 -7 -2 2 -20 -6 -39 -17 -19 -11 -35
-15 -35 -10 0 6 3 10 8 10 7 0 60 42 116 92 38 33 45 36 20 6z m-2661 -2 c8 3
18 1 22 -5 3 -6 1 -11 -5 -11 -6 0 -9 -4 -6 -9 3 -5 -1 -15 -10 -22 -8 -7 -14
-8 -13 -3 4 23 -3 26 -23 8 -13 -10 -17 -12 -11 -4 7 10 8 21 3 30 -12 19 -1
34 15 20 7 -6 19 -8 28 -4z m492 -6 c10 -11 16 -20 13 -20 -3 0 -13 9 -23 20
-10 11 -16 20 -13 20 3 0 13 -9 23 -20z m594 -8 c0 -11 -2 -12 -6 -4 -2 6 -9
10 -14 7 -5 -4 -6 1 -3 9 8 20 24 11 23 -12z m-499 3 c0 -11 -31 -11 -39 -1
-9 10 -6 12 14 8 14 -2 25 -6 25 -7z m165 5 c3 -5 2 -10 -4 -10 -5 0 -13 5
-16 10 -3 6 -2 10 4 10 5 0 13 -4 16 -10z m175 -11 c0 -6 -4 -7 -10 -4 -5 3
-10 11 -10 16 0 6 5 7 10 4 6 -3 10 -11 10 -16z m657 -1 c-3 -8 -6 -5 -6 6 -1
11 2 17 5 13 3 -3 4 -12 1 -19z m1728 2 c10 -11 16 -20 13 -20 -3 0 -13 9 -23
20 -10 11 -16 20 -13 20 3 0 13 -9 23 -20z m-3205 -5 c10 -3 21 -13 24 -21 4
-10 2 -13 -7 -8 -9 5 -9 4 1 -7 17 -19 15 -59 -3 -59 -8 0 -14 -3 -14 -7 1 -5
0 -11 -1 -15 -1 -5 -3 -12 -4 -18 -1 -10 -16 -15 -16 -5 1 14 15 42 28 58 10
11 11 17 4 17 -7 0 -12 8 -12 17 0 13 -5 12 -26 -8 l-25 -24 3 27 c2 15 8 31
13 35 4 5 4 1 0 -7 -7 -12 -6 -13 7 -3 8 7 18 11 21 8 4 -3 4 -2 1 3 -3 4 -15
7 -26 7 -12 0 -23 5 -25 12 -4 12 15 11 57 -2z m355 -5 c10 -11 16 -20 13 -20
-3 0 -13 9 -23 20 -10 11 -16 20 -13 20 3 0 13 -9 23 -20z m375 -1 c0 -6 -4
-7 -10 -4 -5 3 -10 11 -10 16 0 6 5 7 10 4 6 -3 10 -11 10 -16z m155 11 c3 -5
1 -10 -4 -10 -6 0 -11 5 -11 10 0 6 2 10 4 10 3 0 8 -4 11 -10z m223 -15 c-3
-3 -9 2 -12 12 -6 14 -5 15 5 6 7 -7 10 -15 7 -18z m124 -10 c4 -20 2 -23 -8
-14 -7 5 -12 19 -11 29 2 25 13 16 19 -15z m561 -15 c3 0 22 -11 41 -24 32
-21 33 -24 18 -39 -15 -16 -14 -20 18 -54 30 -33 29 -32 -11 5 -25 24 -65 71
-89 105 -36 52 -38 58 -13 35 16 -16 32 -28 36 -28z m2314 -49 c28 -36 51 -68
50 -71 -1 -3 19 -27 45 -54 26 -27 45 -53 42 -57 -3 -5 0 -9 5 -9 6 0 11 -5
11 -12 0 -6 6 -19 13 -28 6 -9 1 -4 -13 11 -14 15 -33 38 -43 51 -16 22 -16
21 0 -17 9 -22 24 -48 32 -57 8 -10 11 -18 7 -18 -4 0 4 -15 18 -33 15 -19 26
-39 26 -45 0 -6 4 -12 9 -14 6 -1 30 -29 54 -60 25 -31 46 -55 49 -53 2 3 24
-17 49 -43 l44 -47 -44 40 c-31 29 -42 34 -37 20 5 -17 2 -16 -15 5 -12 14
-26 24 -31 22 -5 -1 -7 1 -4 6 3 5 -6 20 -19 32 -14 13 -25 29 -25 37 0 7 -4
13 -9 13 -5 0 -16 16 -25 35 -10 20 -21 33 -25 30 -5 -2 -26 29 -47 71 -52
100 -59 111 -99 164 -40 51 -95 153 -94 172 0 8 5 5 12 -6 7 -10 35 -48 64
-85z m-4665 62 c-3 -16 -7 -22 -10 -15 -4 13 4 42 11 42 2 0 2 -12 -1 -27z
m888 2 c13 -14 21 -25 18 -25 -2 0 -15 11 -28 25 -13 14 -21 25 -18 25 2 0 15
-11 28 -25z m718 0 c-3 -3 -9 2 -12 12 -6 14 -5 15 5 6 7 -7 10 -15 7 -18z
m130 0 c-3 -3 -9 2 -12 12 -6 14 -5 15 5 6 7 -7 10 -15 7 -18z m1079 3 c-3 -8
-6 -5 -6 6 -1 11 2 17 5 13 3 -3 4 -12 1 -19z m-2756 -11 c-10 -9 -11 -8 -5 6
3 10 9 15 12 12 3 -3 0 -11 -7 -18z m1509 8 c0 -8 -4 -15 -10 -15 -5 0 -10 7
-10 15 0 8 5 15 10 15 6 0 10 -7 10 -15z m834 -14 c-2 -3 -12 3 -22 13 -16 17
-16 18 5 5 12 -7 20 -15 17 -18z m970 13 c3 -8 2 -12 -4 -9 -6 3 -10 10 -10
16 0 14 7 11 14 -7z m136 -49 c0 -8 11 -34 24 -59 14 -26 22 -46 19 -46 -4 0
0 -8 8 -17 8 -10 21 -31 29 -48 8 -16 16 -33 18 -37 2 -5 0 -8 -5 -8 -4 0 -21
28 -37 63 -16 34 -47 98 -68 142 -33 69 -34 76 -13 52 14 -15 25 -34 25 -42z
m-2807 41 c12 2 17 -5 17 -22 0 -14 -4 -23 -9 -19 -6 3 -13 -10 -16 -29 -4
-19 -13 -37 -21 -40 -7 -3 -11 -12 -8 -21 3 -8 1 -15 -5 -15 -16 0 -14 25 3
39 21 18 29 61 14 79 -11 13 -11 14 1 7 10 -5 12 -4 7 4 -4 6 -12 9 -17 5 -5
-3 -7 -9 -4 -14 3 -5 1 -11 -4 -14 -5 -3 -12 2 -16 12 -16 35 -14 40 14 32 14
-4 34 -6 44 -4z m822 3 c11 -17 -1 -21 -15 -4 -8 9 -8 15 -2 15 6 0 14 -5 17
-11z m432 -36 c-3 -10 -5 -2 -5 17 0 19 2 27 5 18 2 -10 2 -26 0 -35z m38 20
c-3 -16 -11 -32 -16 -37 -5 -6 -4 5 1 25 6 18 10 35 10 36 0 2 3 3 6 3 3 0 3
-12 -1 -27z m770 7 c10 -11 16 -20 13 -20 -3 0 -13 9 -23 20 -10 11 -16 20
-13 20 3 0 13 -9 23 -20z m-2849 -26 c2 -12 0 -14 -9 -5 -6 6 -12 18 -13 27
-2 12 0 14 9 5 6 -6 12 -18 13 -27z m1519 27 c3 -5 1 -12 -5 -16 -5 -3 -10 1
-10 9 0 18 6 21 15 7z m220 0 c3 -5 1 -12 -5 -16 -5 -3 -10 1 -10 9 0 18 6 21
15 7z m2795 -7 c8 -8 9 -14 4 -13 -20 3 -26 -2 -16 -14 13 -16 37 -76 24 -62
-5 6 -18 26 -30 46 -16 27 -19 38 -10 47 15 15 13 15 28 -4z m-4480 -14 c0
-11 -4 -20 -9 -20 -5 0 -7 9 -4 20 3 11 7 20 9 20 2 0 4 -9 4 -20z m788 -11
c-3 -8 -7 -3 -11 10 -4 17 -3 21 5 13 5 -5 8 -16 6 -23z m852 10 c0 -6 -4 -7
-10 -4 -5 3 -10 11 -10 16 0 6 5 7 10 4 6 -3 10 -11 10 -16z m154 6 c3 -9 0
-15 -9 -15 -9 0 -12 6 -9 15 4 8 7 15 9 15 2 0 5 -7 9 -15z m163 -7 c-3 -8 -6
-5 -6 6 -1 11 2 17 5 13 3 -3 4 -12 1 -19z m713 12 c0 -5 -2 -10 -4 -10 -3 0
-8 5 -11 10 -3 6 -1 10 4 10 6 0 11 -4 11 -10z m487 -6 c7 -1 15 2 19 7 3 5
10 7 15 3 5 -3 7 -9 4 -14 -3 -5 6 -8 19 -7 14 1 26 -2 26 -8 0 -5 -10 -10
-22 -10 -13 -1 -29 -4 -36 -9 -8 -5 -11 -3 -10 5 5 21 -25 17 -51 -5 l-24 -21
16 25 c24 35 21 47 -5 24 l-23 -19 19 22 c10 13 24 19 30 16 6 -4 17 -8 23 -9z
m-3062 -13 c-3 -6 -11 -11 -17 -11 -6 0 -6 6 2 15 14 17 26 13 15 -4z m153
-12 c-6 -16 -12 -28 -14 -26 -5 5 13 57 20 57 3 0 0 -14 -6 -31z m599 16 c5
-4 3 -5 -4 -1 -6 3 -14 2 -17 -3 -4 -5 2 -8 11 -6 10 2 18 4 18 5 0 6 35 6 46
0 10 -7 10 -13 1 -32 l-13 -23 5 22 c2 13 -1 26 -6 30 -6 3 -8 2 -5 -3 3 -6 2
-16 -4 -24 -6 -10 -9 -11 -9 -2 0 17 -37 15 -44 -3 -10 -26 -21 -16 -21 20 0
27 4 34 17 31 10 -1 21 -6 25 -11z m493 -6 c0 -6 -4 -7 -10 -4 -5 3 -10 11
-10 16 0 6 5 7 10 4 6 -3 10 -11 10 -16z m200 6 c7 -9 8 -15 2 -15 -5 0 -12 7
-16 15 -3 8 -4 15 -2 15 2 0 9 -7 16 -15z m1236 -24 c21 -19 28 -27 14 -18
-14 9 -40 24 -57 33 -37 18 -42 25 -15 21 10 -1 36 -18 58 -36z m-2754 -3 c-7
-7 -10 -5 -7 8 5 29 6 30 12 16 3 -8 1 -18 -5 -24z m1098 22 c0 -5 -4 -10 -10
-10 -5 0 -10 5 -10 10 0 6 5 10 10 10 6 0 10 -4 10 -10z m810 0 c0 -5 -4 -10
-10 -10 -5 0 -10 5 -10 10 0 6 5 10 10 10 6 0 10 -4 10 -10z m-1815 -20 c-10
-11 -23 -20 -28 -20 -6 0 -2 9 8 20 10 11 23 20 28 20 6 0 2 -9 -8 -20z m871
-1 c6 -5 14 -6 18 -2 8 9 26 -16 26 -36 0 -11 -3 -11 -15 -1 -8 7 -12 17 -9
24 3 6 -2 2 -10 -8 -9 -11 -16 -15 -16 -9 0 7 -8 14 -18 17 -10 4 -19 13 -19
20 0 14 21 11 43 -5z m424 0 c0 -5 -4 -9 -10 -9 -5 0 -10 7 -10 16 0 8 5 12
10 9 6 -3 10 -10 10 -16z m253 -17 c-5 -12 -7 -12 -15 2 -11 20 1 44 12 25 5
-6 6 -19 3 -27z m34 16 c-3 -8 -6 -5 -6 6 -1 11 2 17 5 13 3 -3 4 -12 1 -19z
m2483 -9 c15 -28 5 -23 -15 7 -9 15 -12 23 -6 20 6 -4 16 -16 21 -27z m121 14
c13 -16 12 -17 -3 -4 -17 13 -22 21 -14 21 2 0 10 -8 17 -17z m-4151 -8 c-7
-8 -17 -15 -23 -15 -6 0 -2 7 9 15 25 19 30 19 14 0z m1424 -19 c-5 -13 -9
-14 -14 -5 -11 16 0 43 12 31 5 -5 6 -17 2 -26z m46 8 c0 -8 -4 -12 -10 -9 -5
3 -10 13 -10 21 0 8 5 12 10 9 6 -3 10 -13 10 -21z m257 11 c0 -8 -4 -12 -9
-9 -5 3 -6 10 -3 15 9 13 12 11 12 -6z m708 -45 c33 -33 56 -60 51 -60 -5 0
-2 -8 5 -17 13 -16 12 -17 -3 -4 -10 7 -16 17 -13 21 2 4 -7 18 -20 30 -14 13
-25 20 -25 15 0 -5 -16 6 -35 25 -34 33 -43 50 -27 50 4 0 34 -27 67 -60z
m-2023 38 c-7 -7 -12 -20 -12 -29 0 -10 -5 -21 -11 -25 -8 -4 -9 1 -4 17 8 26
24 49 33 49 3 0 1 -5 -6 -12z m121 -3 c-3 -9 -8 -14 -10 -11 -3 3 -2 9 2 15 9
16 15 13 8 -4z m598 -2 c13 -16 12 -17 -3 -4 -17 13 -22 21 -14 21 2 0 10 -8
17 -17z m39 1 c0 -8 -5 -12 -10 -9 -6 4 -8 11 -5 16 9 14 15 11 15 -7z m767
-6 c-3 -8 -6 -5 -6 6 -1 11 2 17 5 13 3 -3 4 -12 1 -19z m674 -4 c8 -8 20 -14
24 -14 5 0 23 -13 40 -29 16 -17 46 -40 65 -53 24 -16 35 -32 35 -48 1 -14 6
-24 12 -23 6 1 18 -6 28 -17 17 -19 17 -19 -23 0 -24 12 -39 25 -36 33 6 17
-90 109 -156 147 -30 17 -44 28 -30 25 14 -4 32 -14 41 -21z m-1702 -11 c0
-25 -1 -26 -9 -8 -12 27 -12 35 0 35 6 0 10 -12 9 -27z m70 12 c9 -2 17 -4 19
-4 1 -1 4 0 5 2 2 1 11 -4 20 -11 16 -13 14 -68 -4 -86 -5 -6 -5 3 0 21 5 18
7 34 4 37 -10 9 -23 -4 -23 -24 0 -10 -5 -22 -11 -26 -8 -4 -9 1 -4 15 4 13 1
29 -7 38 -7 9 -8 14 -2 10 6 -3 11 0 11 8 0 11 -4 12 -14 4 -7 -6 -11 -15 -8
-19 2 -4 -1 -15 -9 -25 -11 -15 -12 -13 -10 20 3 32 2 36 -9 21 -11 -15 -13
-14 -15 9 -2 23 1 25 19 20 12 -4 29 -9 38 -10z m401 5 c0 -5 -5 -10 -11 -10
-5 0 -7 5 -4 10 3 6 8 10 11 10 2 0 4 -4 4 -10z m206 -13 c1 -7 5 -21 10 -32
5 -14 4 -17 -4 -10 -6 6 -13 23 -16 39 -3 16 -2 26 1 22 4 -4 8 -12 9 -19z
m114 2 c0 -5 -4 -9 -8 -9 -5 0 -9 7 -9 15 0 8 4 12 9 9 4 -3 8 -9 8 -15z m207
-1 c-3 -8 -6 -5 -6 6 -1 11 2 17 5 13 3 -3 4 -12 1 -19z m423 -13 c0 -6 9 -20
20 -30 11 -10 20 -22 20 -26 0 -5 -18 11 -39 34 -22 23 -37 45 -34 50 6 10 33
-12 33 -28z m1983 5 c3 -11 2 -18 -3 -15 -4 3 -10 14 -13 25 -3 11 -2 18 3 15
4 -3 10 -14 13 -25z m1667 -12 c0 -38 -5 -34 -13 10 -4 21 -3 31 3 27 6 -3 10
-20 10 -37z m-5666 17 c-4 -8 -10 -15 -15 -15 -4 0 -6 7 -3 15 4 8 10 15 15
15 4 0 6 -7 3 -15z m1870 -52 c9 -20 3 -16 -39 29 l-40 42 37 -30 c20 -16 39
-35 42 -41z m21 47 c10 -11 16 -20 13 -20 -3 0 -13 9 -23 20 -10 11 -16 20
-13 20 3 0 13 -9 23 -20z m2063 -16 c-4 -3 -12 5 -18 18 -12 22 -12 22 6 6 10
-10 15 -20 12 -24z m-4378 20 c0 -3 -4 -24 -9 -47 -38 -170 -55 -233 -62 -242
-5 -5 -9 -22 -9 -37 0 -15 -4 -28 -9 -28 -10 0 -8 12 21 115 31 111 38 139 37
160 l0 20 -9 -20 c-5 -11 -9 -16 -9 -11 -2 18 -41 -33 -41 -52 0 -20 -64 -97
-81 -97 -6 0 -22 -13 -35 -30 -12 -16 -26 -26 -29 -23 -10 9 24 68 43 75 34
14 124 142 138 198 4 18 13 25 30 25 13 0 24 -3 24 -6z m1743 -26 c6 -22 5
-22 -8 -4 -17 22 -20 40 -6 32 5 -3 11 -16 14 -28z m4161 -50 c-67 -99 -70
-102 -53 -63 18 41 94 145 105 145 2 0 -22 -37 -52 -82z m-5726 24 c-18 -20
-36 -39 -39 -42 -4 -3 -16 -21 -28 -40 -25 -42 -28 -75 -6 -66 12 4 11 -2 -4
-32 -24 -47 -61 -83 -61 -59 0 9 4 18 9 21 4 3 14 27 20 53 7 27 16 64 21 84
11 39 96 133 112 123 5 -4 -5 -22 -24 -42z m738 33 c-1 -8 -5 -17 -8 -21 -5
-4 -4 16 1 34 3 9 9 -1 7 -13z m304 2 c8 -4 25 -8 38 -10 12 -2 27 -8 32 -13
15 -15 20 -93 6 -101 -6 -3 -8 -3 -4 2 4 4 3 14 -3 21 -7 8 -7 14 1 19 8 5 8
11 -1 21 -14 17 -29 18 -29 3 0 -5 6 -7 13 -3 7 5 7 1 -3 -12 -22 -29 -24 -30
-17 -11 6 17 -3 23 -17 10 -12 -13 -33 -11 -33 3 0 9 4 11 12 4 8 -7 12 -5 12
4 0 14 -14 16 -33 4 -6 -4 -11 -2 -11 5 0 7 -3 25 -7 40 -7 28 3 31 44 14z
m340 -2 c0 -8 -4 -15 -10 -15 -5 0 -10 7 -10 15 0 8 5 15 10 15 6 0 10 -7 10
-15z m85 5 c3 -5 1 -10 -4 -10 -6 0 -11 5 -11 10 0 6 2 10 4 10 3 0 8 -4 11
-10z m2525 -10 c6 -11 8 -20 6 -20 -3 0 -10 9 -16 20 -6 11 -8 20 -6 20 3 0
10 -9 16 -20z m-3860 0 c0 -5 -6 -10 -14 -10 -34 0 -144 -152 -133 -183 3 -7
12 4 20 23 12 28 97 122 97 107 0 -2 -11 -27 -25 -55 -27 -57 -31 -77 -13 -66
7 5 9 2 5 -9 -3 -9 -1 -17 4 -19 17 -6 -17 -61 -73 -119 -29 -31 -42 -42 -28
-25 14 17 28 32 33 34 4 2 7 10 7 17 0 7 6 15 13 18 6 2 9 8 5 12 -4 5 -17 -4
-29 -19 -23 -29 -26 -32 -93 -94 -25 -24 -46 -40 -46 -37 0 4 30 40 68 81 37
41 67 78 67 82 1 4 7 18 14 30 7 13 10 27 6 30 -4 4 -11 -2 -17 -13 -16 -28
-160 -176 -166 -170 -3 3 4 15 15 28 37 40 102 142 142 223 40 81 80 128 116
137 11 3 21 5 23 6 1 0 2 -3 2 -9z m630 -27 c-11 -17 -11 -17 -6 0 3 10 6 24
7 30 0 9 2 9 5 0 3 -7 0 -20 -6 -30z m41 0 c-12 -20 -14 -14 -5 12 4 9 9 14
11 11 3 -2 0 -13 -6 -23z m1254 17 c3 -5 1 -10 -4 -10 -6 0 -11 5 -11 10 0 6
2 10 4 10 3 0 8 -4 11 -10z m-2033 -27 c-11 -16 -30 -37 -43 -48 l-24 -20 16
20 c36 45 63 75 66 75 3 0 -4 -12 -15 -27z m155 -31 c-42 -57 -87 -107 -87
-96 0 24 98 154 116 154 9 0 -3 -23 -29 -58z m1729 45 c11 -11 -19 -8 -36 3
-12 8 -10 9 7 7 12 -2 26 -6 29 -10z m3279 3 c-3 -5 -12 -10 -18 -10 -7 0 -6
4 3 10 19 12 23 12 15 0z m-3939 -21 c16 -13 19 -39 3 -39 -5 0 -8 -4 -4 -9 3
-5 0 -13 -6 -17 -7 -4 -9 -3 -6 3 4 6 0 16 -8 23 -14 12 -19 7 -16 -13 1 -5
-3 -6 -9 -2 -8 5 -8 11 -1 19 6 7 7 17 3 22 -4 4 0 3 9 -4 9 -6 20 -8 24 -4 5
4 5 1 0 -7 -6 -10 -4 -12 4 -7 9 6 9 11 1 21 -13 15 -35 14 -52 -3 -18 -18
-24 -15 -24 13 0 22 3 24 34 20 19 -2 40 -10 48 -16z m-972 -18 c-21 -16 -41
-27 -44 -24 -3 2 3 9 13 14 9 6 23 16 30 24 6 8 18 14 26 15 8 0 -3 -13 -25
-29z m386 14 c0 -8 -4 -15 -10 -15 -5 0 -7 7 -4 15 4 8 8 15 10 15 2 0 4 -7 4
-15z m1303 8 c-7 -2 -19 -2 -25 0 -7 3 -2 5 12 5 14 0 19 -2 13 -5z m243 -21
c-4 -3 -14 2 -24 12 -16 18 -16 18 6 6 13 -6 21 -14 18 -18z m3609 -104 c-22
-56 -30 -67 -41 -57 -8 6 -11 16 -7 23 4 6 8 13 8 16 1 3 8 19 17 35 9 17 22
50 29 75 l14 45 3 -35 c2 -20 -7 -61 -23 -102z m-3875 105 c15 -6 45 -11 85
-17 45 -6 103 -18 145 -31 107 -30 131 -39 140 -50 10 -12 -70 -12 -180 -1
-19 2 -43 4 -53 5 -10 1 -16 5 -12 10 3 5 1 12 -4 15 -5 4 -13 1 -17 -5 -5 -8
-3 -9 6 -4 9 5 11 4 6 -3 -4 -8 -15 -8 -31 -2 -14 5 -41 10 -61 12 -30 2 -41
9 -60 40 -13 21 -24 40 -24 42 0 4 35 -2 60 -11z m1600 -4 c0 -6 -4 -7 -10 -4
-5 3 -10 11 -10 16 0 6 5 7 10 4 6 -3 10 -11 10 -16z m-2820 -4 c0 -8 -4 -15
-10 -15 -5 0 -7 7 -4 15 4 8 8 15 10 15 2 0 4 -7 4 -15z m632 6 c11 -1 5 -32
-11 -56 -8 -13 -11 -14 -7 -3 7 22 -4 30 -22 15 -13 -10 -14 -9 -7 2 6 11 4
13 -8 8 -13 -5 -17 -1 -17 18 0 24 1 24 72 16z m-947 -10 c5 -10 -45 -51 -63
-51 -6 0 2 14 16 30 28 32 37 36 47 21z m354 -8 c-6 -7 -15 -10 -20 -7 -13 8
-3 21 15 21 12 0 13 -4 5 -14z m645 10 c4 -5 22 -8 39 -8 19 0 32 -5 32 -13 0
-7 7 -17 15 -22 9 -6 10 -10 3 -10 -6 0 -15 5 -19 11 -7 12 -31 -35 -38 -77
-6 -32 -25 -65 -26 -43 0 8 5 20 12 27 7 7 9 12 5 12 -3 0 0 19 8 41 19 54 18
59 -5 30 -18 -21 -20 -21 -20 -4 0 10 -5 24 -12 31 -7 7 -8 12 -2 12 5 0 2 5
-6 10 -8 5 -10 10 -4 10 6 0 14 -3 18 -7z m926 -8 c7 -9 8 -15 2 -15 -5 0 -12
7 -16 15 -3 8 -4 15 -2 15 2 0 9 -7 16 -15z m200 -50 c0 4 9 0 20 -10 11 -10
17 -21 14 -26 -2 -4 9 -15 26 -24 33 -17 40 -28 13 -18 -10 3 -36 23 -59 45
-22 21 -43 36 -46 33 -3 -3 -11 1 -18 10 -7 8 -9 15 -5 15 4 0 1 8 -6 18 -7 9
4 1 24 -17 20 -19 37 -31 37 -26z m-1990 35 c0 -5 -5 -10 -11 -10 -5 0 -7 5
-4 10 3 6 8 10 11 10 2 0 4 -4 4 -10z m343 -5 c-3 -9 -8 -14 -10 -11 -3 3 -2
9 2 15 9 16 15 13 8 -4z m1342 5 c3 -6 -1 -7 -9 -4 -18 7 -21 14 -7 14 6 0 13
-4 16 -10z m608 3 c-7 -2 -19 -2 -25 0 -7 3 -2 5 12 5 14 0 19 -2 13 -5z m77
-9 c0 -2 -13 -4 -30 -4 -16 0 -30 4 -30 8 0 5 14 7 30 4 17 -2 30 -6 30 -8z
m1494 -63 c-7 -8 -12 4 -18 44 l-5 40 13 -40 c7 -22 12 -42 10 -44z m-3383 56
c-6 -8 -8 -16 -5 -19 3 -3 1 -9 -4 -12 -6 -3 -9 0 -8 6 2 16 15 38 23 38 3 0
0 -6 -6 -13z m584 -1 c44 -2 54 -12 51 -49 -3 -34 -17 -44 -22 -14 -1 10 2 14
8 11 7 -4 8 -2 4 5 -6 9 -11 9 -22 0 -7 -6 -11 -16 -7 -22 3 -6 1 -7 -6 -3 -6
4 -9 12 -6 17 4 5 -1 12 -10 16 -10 3 -21 0 -26 -8 -6 -9 -9 -10 -9 -2 0 17
30 30 62 28 15 -1 25 1 23 5 -5 8 -69 5 -83 -4 -4 -3 -14 5 -21 16 -12 19 -11
20 11 14 12 -4 37 -9 53 -10z m1388 7 c-7 -2 -21 -2 -30 0 -10 3 -4 5 12 5 17
0 24 -2 18 -5z m-2009 -18 c-4 -8 -11 -15 -16 -15 -6 0 -5 6 2 15 7 8 14 15
16 15 2 0 1 -7 -2 -15z m1778 -11 c21 -15 38 -29 38 -31 0 -2 -4 -2 -9 1 -15
9 -66 29 -72 28 -3 0 -6 6 -6 14 0 19 5 18 49 -12z m2025 -10 c-7 -7 -57 18
-57 28 0 5 14 1 31 -7 17 -9 29 -19 26 -21z m376 -5 c-30 -63 -54 -92 -67 -79
-8 8 -6 15 9 26 11 8 19 17 17 20 -3 5 51 74 55 70 2 -1 -4 -18 -14 -37z
m-3438 16 c6 0 10 -7 10 -15 0 -8 5 -22 9 -30 5 -8 6 -12 1 -8 -4 4 -13 4 -19
-1 -7 -6 -18 -4 -30 5 -17 12 -17 14 -3 20 10 3 17 10 17 15 0 4 -7 6 -15 3
-11 -5 -13 -2 -9 10 3 9 11 13 18 9 6 -4 16 -8 21 -8z m143 1 c-7 -8 -15 -12
-17 -11 -5 6 10 25 20 25 5 0 4 -6 -3 -14z m547 -34 c0 -6 4 -14 8 -18 11 -11
38 -14 31 -3 -3 5 -10 6 -16 3 -7 -5 -8 -2 -3 6 6 9 4 11 -5 5 -8 -5 -11 -4
-6 3 4 7 16 6 37 -5 24 -12 28 -18 18 -29 -13 -16 -160 -19 -239 -5 -36 7 -25
8 52 7 53 0 99 2 103 5 13 14 -9 39 -43 50 -21 6 -41 15 -46 20 -5 4 18 -1 50
-11 33 -10 59 -22 59 -28z m2605 33 c-7 -9 -15 -13 -19 -10 -3 3 1 10 9 15 21
14 24 12 10 -5z m-5340 1 c0 -2 -8 -10 -17 -17 -16 -13 -17 -12 -4 4 13 16 21
21 21 13z m1370 -17 c0 -5 -8 -9 -17 -8 -11 0 -13 3 -5 6 6 2 9 10 6 15 -4 7
-2 8 4 4 7 -4 12 -11 12 -17z m480 -10 c0 -16 -4 -28 -9 -25 -8 5 -3 56 5 56
2 0 4 -14 4 -31z m2614 14 c4 -10 18 -38 32 -62 14 -24 19 -39 11 -33 -8 7
-17 9 -21 5 -4 -4 -4 0 0 10 4 11 -3 30 -20 51 -28 37 -31 46 -17 46 5 0 12
-8 15 -17z m588 -18 c3 3 11 -1 18 -10 7 -8 19 -15 26 -15 7 0 28 -8 46 -18
38 -22 90 -39 133 -46 17 -2 32 -5 34 -5 2 -1 -2 -8 -9 -16 -11 -13 -10 -14 3
-10 8 4 18 1 22 -5 13 -21 -60 0 -152 45 -50 25 -96 45 -100 45 -5 0 -25 17
-44 37 -18 21 -22 28 -8 15 14 -12 28 -20 31 -17z m-4182 10 c-7 -8 -17 -15
-23 -15 -6 0 -2 7 9 15 25 19 30 19 14 0z m521 -8 c-10 -9 -11 -8 -5 6 3 10 9
15 12 12 3 -3 0 -11 -7 -18z m419 2 c0 -11 -4 -18 -10 -14 -5 3 -7 12 -3 20 7
21 13 19 13 -6z m-387 -4 c-3 -9 -8 -14 -10 -11 -3 3 -2 9 2 15 9 16 15 13 8
-4z m107 11 c0 -3 -4 -8 -10 -11 -5 -3 -10 -1 -10 4 0 6 5 11 10 11 6 0 10 -2
10 -4z m709 1 c-2 -1 -13 -9 -24 -17 -19 -14 -19 -14 -6 3 7 9 18 17 24 17 6
0 8 -1 6 -3z m90 -13 c2 -2 -12 -4 -32 -4 -20 0 -38 4 -41 9 -5 8 64 4 73 -5z
m1513 -111 c31 -33 73 -110 69 -126 -1 -5 3 -6 8 -3 5 3 15 -1 22 -10 11 -14
10 -15 -11 -12 -19 2 -33 18 -56 63 -17 33 -30 63 -28 66 2 4 -3 12 -11 19
-12 10 -15 10 -15 -1 0 -8 -16 17 -35 55 -45 87 -44 95 1 26 20 -30 45 -65 56
-77z m957 87 c0 -10 -3 -8 -9 5 -12 27 -12 43 0 25 5 -8 9 -22 9 -30z m-2614
21 c3 -5 2 -12 -3 -15 -5 -3 -9 1 -9 9 0 17 3 19 12 6z m2650 -41 l5 -35 -14
35 c-18 42 -20 58 -6 44 5 -5 12 -25 15 -44z m-4035 37 c0 -2 -20 -18 -45 -37
-25 -19 -50 -48 -56 -65 -9 -24 -24 -37 -64 -54 -29 -13 -87 -45 -130 -73 -42
-27 -78 -48 -80 -46 -7 7 195 183 213 186 11 2 25 15 32 30 7 16 15 22 17 15
7 -19 19 -16 65 17 39 29 48 34 48 27z m744 -12 c-4 -8 -11 -15 -16 -15 -6 0
-5 6 2 15 7 8 14 15 16 15 2 0 1 -7 -2 -15z m823 9 c-3 -3 -12 -4 -19 -1 -8 3
-5 6 6 6 11 1 17 -2 13 -5z m788 -4 c3 -5 2 -10 -4 -10 -5 0 -13 5 -16 10 -3
6 -2 10 4 10 5 0 13 -4 16 -10z m2256 -13 c-10 -9 -11 -8 -5 6 3 10 9 15 12
12 3 -3 0 -11 -7 -18z m-4919 -29 c-125 -133 -167 -182 -164 -193 3 -14 -14
-29 -43 -38 -20 -7 -20 -7 -1 8 11 8 14 15 7 15 -17 0 -116 -63 -176 -113 -27
-23 -44 -34 -36 -24 19 23 136 117 147 117 13 0 134 119 167 163 15 20 34 37
41 37 8 0 30 16 49 35 50 50 57 44 9 -7z m1931 35 c-7 -2 -19 -2 -25 0 -7 3
-2 5 12 5 14 0 19 -2 13 -5z m452 -13 c3 -5 -4 -6 -15 -3 -11 3 -22 9 -25 13
-3 5 4 6 15 3 11 -3 22 -9 25 -13z m3119 7 c-2 -7 -14 -19 -27 -26 -21 -13
-21 -12 2 13 27 29 33 32 25 13z m-5084 -7 c-8 -5 -19 -10 -25 -10 -5 0 -3 5
5 10 8 5 20 10 25 10 6 0 3 -5 -5 -10z m1086 -18 c-17 -16 -18 -16 -5 5 7 12
15 20 18 17 3 -2 -3 -12 -13 -22z m1184 -18 c0 -7 -58 25 -65 36 -3 5 10 1 29
-11 20 -12 36 -23 36 -25z m48 24 c26 -12 56 -23 67 -25 10 -2 30 -10 42 -18
13 -9 23 -13 23 -9 0 4 7 1 15 -6 8 -7 12 -17 8 -24 -4 -6 -1 -6 9 2 12 10 18
9 28 -3 7 -8 16 -13 20 -10 4 3 13 -1 19 -9 22 -26 -62 -7 -87 20 -13 13 -28
24 -35 24 -14 0 -176 79 -164 79 4 1 29 -9 55 -21z m-1515 -3 c-3 -9 -8 -14
-10 -11 -3 3 -2 9 2 15 9 16 15 13 8 -4z m460 0 c-3 -9 -8 -14 -10 -11 -3 3
-2 9 2 15 9 16 15 13 8 -4z m-1314 -8 c13 4 12 2 -2 -10 -11 -9 -26 -13 -35
-10 -9 4 -13 2 -9 -4 3 -5 -9 -17 -28 -26 -19 -9 -35 -13 -35 -8 0 16 75 70
84 61 5 -5 16 -6 25 -3z m1071 9 c0 -2 -8 -10 -17 -17 -16 -13 -17 -12 -4 4
13 16 21 21 21 13z m-1390 -36 c-12 -16 -24 -30 -26 -30 -3 0 4 14 16 30 12
17 24 30 26 30 3 0 -4 -13 -16 -30z m1547 -2 c-3 -8 -6 -5 -6 6 -1 11 2 17 5
13 3 -3 4 -12 1 -19z m948 -8 c55 -11 103 -24 107 -28 3 -4 9 -20 13 -37 l6
-30 -16 32 c-10 18 -22 30 -27 27 -6 -4 -6 -10 1 -17 14 -14 14 -37 1 -37 -5
0 -7 6 -4 14 3 8 0 17 -5 21 -6 3 -9 10 -6 15 3 4 -2 10 -10 14 -8 3 -17 0
-21 -6 -5 -7 -2 -8 6 -3 9 5 11 4 6 -4 -6 -9 -11 -9 -21 -1 -8 7 -20 8 -26 4
-8 -5 -9 -3 -4 5 5 9 0 12 -16 9 -13 -2 -33 5 -43 14 -21 19 -43 14 -26 -7 8
-10 8 -15 0 -20 -14 -9 -23 0 -25 23 -1 19 -20 29 -20 10 0 -6 -7 -13 -15 -15
-13 -4 -13 -3 0 6 8 6 13 11 10 12 -3 0 -13 2 -22 4 -10 2 -18 -2 -18 -8 0 -5
-2 -8 -5 -5 -3 3 -3 12 0 21 8 19 42 16 180 -13z m2252 24 c-3 -3 -12 -4 -19
-1 -8 3 -5 6 6 6 11 1 17 -2 13 -5z m736 -9 c-3 -9 -8 -14 -10 -11 -3 3 -2 9
2 15 9 16 15 13 8 -4z m-635 -20 c-3 -3 -15 -8 -28 -10 -22 -4 -22 -4 -4 16
12 13 21 16 28 9 5 -5 7 -12 4 -15z m-2561 0 c0 -8 -4 -15 -9 -15 -4 0 -8 7
-8 15 0 8 4 15 8 15 5 0 9 -7 9 -15z m-967 -5 c0 -5 -5 -10 -11 -10 -5 0 -7 5
-4 10 3 6 8 10 11 10 2 0 4 -4 4 -10z m1637 -12 c-3 -8 -6 -5 -6 6 -1 11 2 17
5 13 3 -3 4 -12 1 -19z m1053 -18 c28 -55 25 -64 -5 -11 -26 44 -28 51 -20 51
2 0 14 -18 25 -40z m1390 35 c0 -2 -10 -9 -22 -15 -22 -11 -22 -10 -4 4 21 17
26 19 26 11z m146 -22 c-4 -38 -24 -51 -35 -22 -10 26 0 46 23 46 9 0 13 -9
12 -24z m-5625 -6 c-10 -9 -11 -8 -5 6 3 10 9 15 12 12 3 -3 0 -11 -7 -18z
m1474 13 c-3 -5 -12 -10 -18 -10 -7 0 -6 4 3 10 19 12 23 12 15 0z m58 -5 c-3
-9 -8 -14 -10 -11 -3 3 -2 9 2 15 9 16 15 13 8 -4z m4197 11 c0 -2 -8 -10 -17
-17 -16 -13 -17 -12 -4 4 13 16 21 21 21 13z m-1351 -61 l0 -20 -9 20 c-5 11
-9 29 -9 40 l0 20 9 -20 c5 -11 9 -29 9 -40z m-1925 24 c-3 -5 -9 -7 -14 -4
-5 3 -11 1 -15 -5 -7 -12 -25 -4 -25 12 0 5 7 8 15 5 8 -4 17 -2 20 4 4 5 11
7 16 3 5 -3 7 -10 3 -15z m266 5 c0 -8 -4 -12 -10 -9 -5 3 -10 10 -10 16 0 5
5 9 10 9 6 0 10 -7 10 -16z m2195 6 c3 -5 -1 -10 -10 -10 -9 0 -13 5 -10 10 3
6 8 10 10 10 2 0 7 -4 10 -10z m205 -15 c25 -13 41 -24 35 -24 -5 0 -30 11
-55 24 -25 13 -40 24 -35 24 6 0 30 -11 55 -24z m-5400 1 c0 -2 -18 -24 -40
-48 -22 -23 -40 -46 -40 -50 0 -12 14 -9 30 5 11 9 11 8 0 -8 -25 -33 -210
-212 -210 -202 0 5 41 48 90 96 50 48 90 91 90 96 0 5 -12 -2 -27 -16 -15 -13
2 11 36 54 59 71 71 84 71 73z m2807 -18 c-3 -8 -6 -5 -6 6 -1 11 2 17 5 13 3
-3 4 -12 1 -19z m2433 12 c0 -5 -2 -10 -4 -10 -3 0 -8 5 -11 10 -3 6 -1 10 4
10 6 0 11 -4 11 -10z m-4969 -38 c-47 -60 -70 -73 -26 -15 22 29 44 52 48 53
5 0 -5 -17 -22 -38z m2409 28 c0 -5 -4 -10 -10 -10 -5 0 -10 5 -10 10 0 6 5
10 10 10 6 0 10 -4 10 -10z m171 -13 c-10 -9 -11 -8 -5 6 3 10 9 15 12 12 3
-3 0 -11 -7 -18z m2462 3 c3 -11 1 -20 -4 -20 -5 0 -9 9 -9 20 0 11 2 20 4 20
2 0 6 -9 9 -20z m373 5 c-20 -15 -36 -19 -36 -10 0 5 38 23 50 24 3 0 -4 -6
-14 -14z m-5346 1 c0 -2 -8 -10 -17 -17 -16 -13 -17 -12 -4 4 13 16 21 21 21
13z m2410 -6 c0 -5 -4 -10 -9 -10 -6 0 -13 5 -16 10 -3 6 1 10 9 10 9 0 16 -4
16 -10z m275 -27 c4 -14 2 -23 -4 -23 -6 0 -11 6 -11 14 0 8 -3 23 -6 33 -5
12 -4 15 3 8 6 -5 14 -20 18 -32z m-2785 23 c0 -2 -8 -10 -17 -17 -16 -13 -17
-12 -4 4 13 16 21 21 21 13z m290 0 c0 -2 -25 -18 -56 -36 -31 -17 -54 -34
-51 -37 3 -3 23 5 43 18 21 12 34 18 31 12 -4 -6 -29 -23 -55 -38 -26 -14 -42
-21 -35 -14 6 6 9 17 7 23 -3 7 6 18 18 24 13 7 39 21 58 32 37 21 40 22 40
16z m1401 -19 c-10 -9 -11 -8 -5 6 3 10 9 15 12 12 3 -3 0 -11 -7 -18z m891 1
c-7 -7 -12 -8 -12 -2 0 14 12 26 19 19 2 -3 -1 -11 -7 -17z m1635 -10 c3 2 26
-17 53 -42 26 -25 50 -43 52 -41 2 3 20 -12 39 -33 33 -35 33 -36 2 -8 -17 15
-36 25 -41 22 -6 -3 -13 1 -16 10 -3 8 -11 12 -17 9 -12 -8 -68 52 -69 73 0 7
-4 11 -9 8 -4 -3 -17 4 -27 17 l-19 22 24 -20 c13 -11 25 -18 28 -17z m272 2
c11 -24 11 -24 -3 -6 -9 11 -16 24 -16 30 0 12 5 7 19 -24z m1124 11 c-3 -11
-14 -28 -24 -37 -19 -17 -19 -17 -16 4 2 17 30 49 44 52 0 0 -1 -9 -4 -19z
m-6168 -62 c-19 -35 -35 -69 -35 -76 0 -18 -62 -175 -66 -170 -11 11 39 155
81 232 26 47 49 84 51 82 2 -2 -12 -32 -31 -68z m3199 56 c-4 -8 -8 -15 -10
-15 -2 0 -4 7 -4 15 0 8 4 15 10 15 5 0 7 -7 4 -15z m43 -17 c-3 -8 -6 -5 -6
6 -1 11 2 17 5 13 3 -3 4 -12 1 -19z m40 -8 c-2 -24 -17 -15 -17 11 0 11 4 18
9 14 6 -3 9 -14 8 -25z m2258 -3 c-9 -4 -13 -12 -10 -17 3 -5 1 -12 -5 -15 -6
-4 -9 -2 -8 3 2 6 -1 10 -7 10 -5 0 -9 -5 -7 -11 2 -7 -2 -6 -11 1 -8 7 -18 8
-23 4 -4 -4 -2 1 5 11 8 9 16 15 19 12 8 -8 32 16 26 27 -3 5 3 4 15 -4 17
-10 18 -14 6 -21z m288 26 c-7 -2 -21 -2 -30 0 -10 3 -4 5 12 5 17 0 24 -2 18
-5z m-3456 -35 c-3 -7 -5 -2 -5 12 0 14 2 19 5 13 2 -7 2 -19 0 -25z m30 10
c-3 -8 -6 -5 -6 6 -1 11 2 17 5 13 3 -3 4 -12 1 -19z m1044 -11 c-8 -8 -11 -7
-11 4 0 20 13 34 18 19 3 -7 -1 -17 -7 -23z m794 -18 c26 -26 32 -37 18 -30
-18 9 -71 71 -61 71 2 0 22 -19 43 -41z m1723 36 c-11 -11 -68 -23 -68 -15 0
5 10 11 23 13 35 7 51 7 45 2z m-5052 -20 c-20 -15 -36 -19 -36 -10 0 5 38 23
50 24 3 0 -4 -6 -14 -14z m2654 -10 c0 -8 -4 -17 -10 -20 -6 -4 -10 5 -10 20
0 15 4 24 10 20 6 -3 10 -12 10 -20z m2530 9 c0 -8 -5 -12 -11 -9 -6 4 -5 -2
2 -13 10 -17 10 -23 -1 -37 -7 -9 -17 -12 -21 -8 -11 11 -20 65 -10 58 5 -2
14 2 21 10 16 19 20 19 20 -1z m-2617 -9 c-3 -9 -8 -14 -10 -11 -3 3 -2 9 2
15 9 16 15 13 8 -4z m120 -5 c3 -11 1 -18 -4 -14 -5 3 -9 12 -9 20 0 20 7 17
13 -6z m-2888 -9 c-32 -30 -148 -111 -153 -107 -6 7 35 41 102 83 51 33 68 41
51 24z m1655 -5 c0 -8 -7 -16 -15 -20 -12 -4 -13 -2 -2 14 14 24 17 25 17 6z
m1337 -18 c-1 -17 -8 -33 -15 -36 -12 -4 -12 0 -1 19 7 13 12 25 11 27 -4 5
-2 22 2 22 2 0 4 -14 3 -32z m-1297 7 c0 -8 -4 -15 -10 -15 -5 0 -7 7 -4 15 4
8 8 15 10 15 2 0 4 -7 4 -15z m1322 -7 c-7 -7 -12 -8 -12 -2 0 14 12 26 19 19
2 -3 -1 -11 -7 -17z m1738 -15 c-11 -17 -11 -17 -6 0 3 10 6 24 7 30 0 9 2 9
5 0 3 -7 0 -20 -6 -30z m309 21 c12 -12 -10 -11 -54 1 l-50 15 50 -6 c28 -3
52 -8 54 -10z m-5475 -6 c-3 -7 -30 -33 -60 -58 -31 -25 -89 -80 -131 -123
-41 -43 -77 -77 -79 -74 -3 2 21 33 53 68 130 143 187 199 204 199 11 0 16 -5
13 -12z m3241 2 c3 -5 1 -10 -4 -10 -6 0 -11 5 -11 10 0 6 2 10 4 10 3 0 8 -4
11 -10z m216 -23 c-8 -8 -11 -7 -11 4 0 20 13 34 18 19 3 -7 -1 -17 -7 -23z
m78 -42 c0 -20 0 -20 -14 -1 -8 11 -15 34 -14 50 l1 31 13 -30 c8 -16 14 -39
14 -50z m2346 63 c5 4 5 2 2 -5 -4 -6 -16 -9 -27 -6 -11 3 -17 9 -14 15 3 5
11 5 18 -1 7 -6 17 -7 21 -3z m-5700 -18 c-10 -11 -15 -20 -10 -20 4 0 -14
-18 -41 -40 -26 -21 -52 -37 -57 -33 -11 7 36 58 83 89 44 29 48 29 25 4z
m3375 -15 c0 -5 -5 -3 -10 5 -5 8 -10 20 -10 25 0 6 5 3 10 -5 5 -8 10 -19 10
-25z m1667 20 c0 -8 -4 -12 -9 -9 -5 3 -6 10 -3 15 9 13 12 11 12 -6z m232 -1
c9 -8 -45 -2 -64 6 -14 7 -8 8 20 3 22 -3 42 -7 44 -9z m126 -4 c-3 -5 -21 -9
-38 -9 l-32 2 35 7 c19 4 36 8 38 9 2 0 0 -3 -3 -9z m145 -6 c0 -13 -38 -26
-52 -18 -14 9 -9 22 10 26 31 7 42 5 42 -8z m-590 -18 c0 -2 -8 -10 -17 -17
-16 -13 -17 -12 -4 4 13 16 21 21 21 13z m720 1 c0 -2 -12 -14 -27 -28 l-28
-24 24 28 c23 25 31 32 31 24z m-640 -11 c0 -2 -8 -10 -17 -17 -16 -13 -17
-12 -4 4 13 16 21 21 21 13z m263 -30 c-17 -22 -43 -25 -43 -5 0 4 6 6 13 3 8
-3 20 2 27 11 20 24 23 17 3 -9z m317 14 c0 -5 -4 -10 -10 -10 -5 0 -10 5 -10
10 0 6 5 10 10 10 6 0 10 -4 10 -10z m-570 -20 c-6 -11 -13 -20 -16 -20 -2 0
0 9 6 20 6 11 13 20 16 20 2 0 0 -9 -6 -20z m-4900 -14 c0 -2 -8 -10 -17 -17
-16 -13 -17 -12 -4 4 13 16 21 21 21 13z m5295 -5 c3 -5 2 -12 -3 -15 -5 -3
-9 1 -9 9 0 17 3 19 12 6z m-754 -18 c13 -16 12 -17 -3 -4 -10 7 -18 15 -18
17 0 8 8 3 21 -13z m1069 13 c0 -2 -8 -10 -17 -17 -16 -13 -17 -12 -4 4 13 16
21 21 21 13z m-5660 -31 c-7 -9 -15 -13 -19 -10 -3 3 1 10 9 15 21 14 24 12
10 -5z m4962 -4 c-8 -24 -23 -41 -36 -41 -6 0 -4 5 4 10 8 5 11 10 6 10 -5 0
-3 6 3 13 6 8 9 16 6 19 -3 2 1 5 9 5 9 0 12 -7 8 -16z m-3122 3 c0 -8 -19
-13 -24 -6 -3 5 1 9 9 9 8 0 15 -2 15 -3z m3620 -39 c-43 -44 -65 -61 -40 -30
19 23 -1 18 -27 -7 -13 -12 -23 -19 -23 -17 0 3 21 25 47 49 26 25 39 35 29
22 -29 -34 -13 -36 17 -2 15 16 30 30 34 30 4 0 -13 -20 -37 -45z m-5525 26
c-6 -5 -41 -32 -80 -61 -38 -28 -54 -37 -35 -20 41 37 110 90 119 90 3 0 1 -4
-4 -9z m5088 -16 c-10 -13 -22 -25 -27 -25 -5 0 1 11 14 25 30 32 36 32 13 0z
m-5446 -24 c-9 -24 -52 -61 -71 -61 -4 0 72 84 81 89 1 1 -4 -12 -10 -28z
m482 26 c-2 -2 -17 -11 -34 -22 l-30 -18 19 21 c11 12 26 22 34 22 9 0 13 -1
11 -3z m-85 -18 c-3 -6 -1 -15 6 -19 9 -5 9 -9 1 -14 -6 -4 -11 -2 -11 4 0 6
-5 8 -10 5 -6 -4 -8 -10 -5 -15 5 -8 -84 -54 -91 -48 -2 3 106 95 114 97 2 1
0 -4 -4 -10z m-504 -2 c0 -2 -10 -12 -22 -23 l-23 -19 19 23 c18 21 26 27 26
19z m2917 -23 c-3 -3 -12 -4 -19 -1 -8 3 -5 6 6 6 11 1 17 -2 13 -5z m-52 -24
c8 -13 -5 -13 -25 0 -13 8 -13 10 2 10 9 0 20 -4 23 -10z m-2582 -15 c-3 -9
-8 -14 -10 -11 -3 3 -2 9 2 15 9 16 15 13 8 -4z m1752 5 c-11 -5 -27 -9 -35
-9 -9 0 -8 4 5 9 11 5 27 9 35 9 9 0 8 -4 -5 -9z m175 6 c0 -2 -7 -7 -16 -10
-8 -3 -12 -2 -9 4 6 10 25 14 25 6z m380 -6 c0 -5 -2 -10 -4 -10 -3 0 -8 5
-11 10 -3 6 -1 10 4 10 6 0 11 -4 11 -10z m338 -13 c6 -5 12 -6 12 -2 0 4 6 2
14 -4 8 -6 18 -11 22 -10 22 4 35 -2 28 -13 -5 -7 -2 -9 9 -5 8 3 21 -1 27 -8
7 -8 17 -12 23 -8 6 3 7 1 3 -5 -8 -14 -33 -9 -79 17 -20 11 -39 21 -42 21
-20 3 -65 24 -65 31 0 9 28 1 48 -14z m2848 11 c3 -4 -1 -5 -10 -4 -8 1 -18 5
-22 8 -3 4 1 5 10 4 8 -1 18 -5 22 -8z m289 -8 c-10 -11 -20 -18 -23 -15 -3 3
-12 -1 -21 -7 -10 -8 -9 -4 3 9 10 13 22 20 27 18 4 -3 10 -1 14 5 3 5 9 10
12 10 3 0 -2 -9 -12 -20z m-3612 -14 c15 -22 15 -24 0 -22 -9 2 -17 12 -18 24
-2 28 -1 27 18 -2z m241 12 c-3 -4 -1 -8 5 -8 5 0 11 4 13 9 2 4 12 0 22 -10
18 -18 18 -18 -13 -16 -17 1 -31 5 -31 9 0 4 -15 12 -32 17 l-33 10 37 -2 c20
0 34 -5 32 -9z m-2550 -30 c-16 -18 -30 -35 -31 -37 -2 -2 -3 0 -3 6 0 15 40
63 53 63 6 0 -2 -15 -19 -32z m1987 18 c-16 -19 -48 -26 -48 -11 0 7 8 10 18
8 9 -3 20 0 23 6 4 6 10 11 13 11 3 0 0 -6 -6 -14z m204 5 c-8 -13 -65 -41
-65 -32 0 4 15 15 33 24 39 19 40 19 32 8z m3765 -13 c-13 -10 -25 -16 -28
-13 -8 8 17 32 34 32 14 0 12 -4 -6 -19z m-5946 -33 c-20 -25 -39 -45 -42 -45
-5 0 8 17 52 68 35 40 28 23 -10 -23z m2979 38 c-7 -2 -19 -2 -25 0 -7 3 -2 5
12 5 14 0 19 -2 13 -5z m-1208 -13 c3 -5 1 -10 -4 -10 -6 0 -11 5 -11 10 0 6
2 10 4 10 3 0 8 -4 11 -10z m335 -14 c0 -3 -4 -8 -10 -11 -5 -3 -10 -1 -10 4
0 6 5 11 10 11 6 0 10 -2 10 -4z m-116 -14 c2 -4 -5 -9 -17 -9 -17 -2 -19 0
-7 7 18 12 18 12 24 2z m486 4 c0 -2 -7 -7 -16 -10 -8 -3 -12 -2 -9 4 6 10 25
14 25 6z m956 -7 c5 -8 -55 -4 -63 5 -4 4 8 5 26 4 18 -1 34 -5 37 -9z m-3392
-11 c-19 -31 -64 -90 -64 -84 0 10 60 96 66 96 3 0 2 -6 -2 -12z m52 -16 c-17
-16 -18 -16 -5 5 7 12 15 20 18 17 3 -2 -3 -12 -13 -22z m2588 16 c-3 -4 -14
-8 -25 -8 -11 0 -18 4 -14 9 3 6 14 9 25 8 10 -1 16 -5 14 -9z m-984 -22 c0
-2 -8 -10 -17 -17 -16 -13 -17 -12 -4 4 13 16 21 21 21 13z m1398 -3 c-16 -2
-40 -2 -55 0 -16 2 -3 4 27 4 30 0 43 -2 28 -4z m409 1 c-3 -3 -12 -4 -19 -1
-8 3 -5 6 6 6 11 1 17 -2 13 -5z m80 -10 c-3 -3 -12 -4 -19 -1 -8 3 -5 6 6 6
11 1 17 -2 13 -5z m-399 -11 c-10 -2 -26 -2 -35 0 -10 3 -2 5 17 5 19 0 27 -2
18 -5z m91 -9 c3 -3 -10 -3 -28 -2 -18 1 -34 5 -37 9 -4 8 58 0 65 -7z m253 1
c3 0 9 -3 12 -6 4 -3 -6 -5 -21 -3 -36 3 -35 2 -28 14 4 6 12 7 18 3 7 -4 15
-8 19 -8z m-665 -1 c-3 -3 -12 -4 -19 -1 -8 3 -5 6 6 6 11 1 17 -2 13 -5z
m748 -6 c5 4 5 1 0 -6 -5 -9 -11 -10 -17 -4 -6 6 -18 8 -27 5 -13 -4 -14 -3
-1 5 9 7 19 7 26 2 6 -6 15 -6 19 -2z m31 -24 c1 -9 0 -13 -4 -10 -3 4 -7 14
-8 22 -1 9 0 13 4 10 3 -4 7 -14 8 -22z m-576 6 c0 -5 -5 -10 -11 -10 -5 0 -7
5 -4 10 3 6 8 10 11 10 2 0 4 -4 4 -10z m74 -1 c3 -3 -10 -5 -29 -5 -19 0 -35
3 -35 7 0 8 56 6 64 -2z m-3414 -3 c0 -3 -4 -8 -10 -11 -5 -3 -10 -1 -10 4 0
6 5 11 10 11 6 0 10 -2 10 -4z m4020 -27 c0 -5 6 -6 14 -3 8 3 17 0 21 -5 3
-6 10 -9 15 -6 4 3 14 -3 21 -12 12 -15 12 -16 -1 -8 -8 5 -21 11 -27 12 -30
7 -48 12 -50 13 -4 3 -20 7 -34 9 -5 0 -8 5 -5 10 7 11 46 2 46 -10z m-3751
-51 c-15 -21 -24 -27 -27 -18 -3 7 5 22 18 32 32 26 34 22 9 -14z m3871 16 c0
-8 -19 -13 -24 -6 -3 5 1 9 9 9 8 0 15 -2 15 -3z m330 -30 c14 -1 26 -3 28 -4
1 -1 10 -3 20 -5 20 -2 72 -23 72 -28 0 -2 -11 -2 -25 1 -14 2 -25 7 -25 11 0
4 -10 7 -22 8 -55 2 -80 8 -91 22 -10 12 -9 13 3 6 8 -5 26 -10 40 -11z m306
-47 c10 -10 -99 23 -110 33 -5 5 17 1 47 -9 31 -9 59 -20 63 -24z m111 6 c0
-9 -4 -10 -14 -2 -7 6 -13 12 -13 14 0 1 6 2 13 2 8 0 14 -6 14 -14z m90 -9
c-3 -3 -12 -4 -19 -1 -8 3 -5 6 6 6 11 1 17 -2 13 -5z m43 0 c0 -8 -19 -13
-24 -6 -3 5 1 9 9 9 8 0 15 -2 15 -3z m-175 -22 c-3 -3 -11 0 -18 7 -9 10 -8
11 6 5 10 -3 15 -9 12 -12z m60 -20 c-6 -7 -45 9 -45 18 0 4 11 3 24 -3 14 -7
23 -13 21 -15z"/>
<path d="M3384 3242 c2 -9 7 -17 12 -17 5 0 15 -4 23 -9 10 -7 12 -6 6 4 -6
10 -4 12 9 7 13 -5 15 -3 8 10 -13 23 -61 27 -58 5z"/>
<path d="M3391 3187 c2 -1 13 -9 24 -17 19 -14 19 -14 6 3 -7 9 -18 17 -24 17
-6 0 -8 -1 -6 -3z"/>
<path d="M3375 3110 c3 -5 1 -10 -6 -10 -7 0 -10 -2 -7 -5 8 -9 38 6 32 16 -3
5 -10 9 -15 9 -6 0 -7 -4 -4 -10z"/>
<path d="M1899 3153 c-13 -16 -12 -17 4 -4 9 7 17 15 17 17 0 8 -8 3 -21 -13z"/>
<path d="M3743 2468 c-4 -7 -9 -21 -10 -32 -3 -16 -1 -17 13 -5 11 9 12 15 5
17 -9 3 -9 7 0 18 6 8 9 14 6 14 -3 0 -9 -6 -14 -12z"/>
<path d="M2340 2115 c7 -9 15 -13 17 -11 7 7 -7 26 -19 26 -6 0 -6 -6 2 -15z"/>
<path d="M1860 1776 c0 -2 8 -10 18 -17 15 -13 16 -12 3 4 -13 16 -21 21 -21
13z"/>
<path d="M1926 1668 c3 -5 10 -6 15 -3 13 9 11 12 -6 12 -8 0 -12 -4 -9 -9z"/>
<path d="M2015 1540 c-3 -5 -5 -10 -3 -11 33 -8 38 -7 27 7 -14 17 -16 17 -24
4z"/>
<path d="M2340 1625 c13 -14 26 -25 28 -25 3 0 -5 11 -18 25 -13 14 -26 25
-28 25 -3 0 5 -11 18 -25z"/>
<path d="M1666 1498 c3 -4 11 -5 19 -1 21 7 19 12 -4 10 -11 0 -18 -5 -15 -9z"/>
<path d="M2450 1625 c13 -14 26 -25 28 -25 3 0 -5 11 -18 25 -13 14 -26 25
-28 25 -3 0 5 -11 18 -25z"/>
<path d="M4920 1236 c0 -2 8 -10 18 -17 15 -13 16 -12 3 4 -13 16 -21 21 -21
13z"/>
<path d="M4324 1512 c3 -6 25 -25 49 -43 l42 -33 -30 33 c-30 33 -74 63 -61
43z"/>
<path d="M4145 1410 c3 -5 8 -10 11 -10 2 0 4 5 4 10 0 6 -5 10 -11 10 -5 0
-7 -4 -4 -10z"/>
<path d="M4525 1430 c21 -24 26 -25 19 -6 -3 8 -13 17 -22 21 -13 5 -13 2 3
-15z"/>
<path d="M3180 1282 c0 -5 9 -17 20 -27 22 -20 26 -14 10 16 -11 19 -30 26
-30 11z"/>
<path d="M1513 1295 c0 -8 4 -12 9 -9 5 3 6 10 3 15 -9 13 -12 11 -12 -6z"/>
<path d="M3965 1291 c-3 -5 -2 -12 3 -15 5 -3 9 1 9 9 0 17 -3 19 -12 6z"/>
<path d="M1750 1256 c0 -2 7 -7 16 -10 8 -3 12 -2 9 4 -6 10 -25 14 -25 6z"/>
<path d="M1933 1204 c0 -9 4 -11 12 -4 7 5 14 9 16 7 2 -1 3 0 1 2 -7 11 -29
7 -29 -5z"/>
<path d="M2026 1202 c-3 -5 1 -15 8 -21 11 -10 14 -9 12 3 -3 21 -13 29 -20
18z"/>
<path d="M2934 1121 c9 -10 13 -22 9 -26 -5 -5 -1 -4 8 3 9 6 18 10 21 7 2 -3
5 2 5 9 0 8 -3 15 -6 14 -3 0 -8 1 -11 2 -3 1 -13 3 -23 5 -17 3 -17 2 -3 -14z"/>
<path d="M3046 1112 c-3 -5 1 -9 9 -9 8 0 12 4 9 9 -3 4 -7 8 -9 8 -2 0 -6 -4
-9 -8z"/>
<path d="M3125 1070 c-3 -5 -2 -10 2 -12 13 -7 33 -3 36 6 3 12 -31 17 -38 6z"/>
<path d="M3233 1057 c0 -7 11 -13 23 -13 20 0 25 11 6 11 -4 0 -12 3 -18 7 -6
4 -11 1 -11 -5z"/>
<path d="M2311 1123 c7 -7 14 -11 17 -8 3 3 11 0 18 -6 9 -7 12 -6 10 7 -2 12
-12 19 -29 19 -22 2 -25 -1 -16 -12z"/>
<path d="M2424 1109 c-2 -4 0 -10 5 -13 5 -4 12 -2 16 4 4 6 10 8 15 5 5 -3
11 -2 14 3 2 4 -7 8 -20 8 -14 0 -27 -3 -30 -7z"/>
<path d="M2727 1058 c-7 -20 -7 -28 0 -30 3 -2 8 7 9 20 4 24 -1 30 -9 10z"/>
<path d="M5370 785 c13 -14 26 -25 28 -25 3 0 -5 11 -18 25 -13 14 -26 25 -28
25 -3 0 5 -11 18 -25z"/>
<path d="M2125 3881 c-4 -50 -2 -107 5 -150 12 -74 30 -96 30 -38 0 19 3 37 8
41 4 4 12 29 17 54 10 42 8 52 -12 91 -13 24 -23 52 -23 62 0 11 -4 19 -9 19
-5 0 -12 -36 -16 -79z"/>
<path d="M4700 1934 c0 -14 37 -47 56 -50 19 -3 14 28 -5 34 -10 3 -12 0 -7
-14 4 -11 -3 -7 -18 11 -14 17 -25 25 -26 19z"/>
<path d="M4420 1786 c0 -2 8 -10 18 -17 15 -13 16 -12 3 4 -13 16 -21 21 -21
13z"/>
<path d="M4472 750 c1 -14 -1 -30 -4 -36 -10 -16 2 -54 17 -54 7 0 15 6 18 13
3 8 10 6 21 -8 8 -11 16 -15 16 -8 0 14 35 6 50 -12 6 -7 20 -11 30 -8 12 3
20 0 20 -7 0 -7 5 -6 15 4 9 9 12 22 8 33 -6 16 -5 16 10 4 13 -10 14 -17 6
-27 -7 -9 -7 -18 0 -31 9 -16 10 -16 11 -1 0 9 6 18 13 21 9 3 6 12 -9 33 -11
16 -23 37 -27 48 -5 11 -13 16 -23 12 -9 -4 -23 -1 -30 5 -9 8 -14 8 -14 1 0
-6 5 -14 10 -17 6 -3 10 -13 10 -22 0 -11 -7 -7 -21 11 -17 21 -24 24 -35 15
-11 -9 -14 -7 -14 11 0 15 -5 20 -14 17 -8 -3 -17 -1 -20 6 -5 9 -8 9 -12 -1
-5 -10 -9 -9 -20 5 -14 17 -14 16 -12 -7z m38 -39 c-5 -11 -15 -23 -22 -27 -6
-4 -9 -3 -6 2 3 5 8 17 11 27 4 9 11 17 17 17 8 0 8 -6 0 -19z m27 -13 c-3 -8
-6 -5 -6 6 -1 11 2 17 5 13 3 -3 4 -12 1 -19z m111 -13 c-1 -19 -6 -35 -11
-35 -5 0 -7 10 -3 23 3 12 6 28 6 35 0 6 2 12 5 12 2 0 4 -16 3 -35z m-62 13
c4 -7 3 -8 -4 -4 -7 4 -12 0 -12 -10 0 -10 -3 -15 -6 -11 -7 6 2 37 10 37 3 0
8 -5 12 -12z"/>
<path d="M4168 723 c7 -3 16 -2 19 1 4 3 -2 6 -13 5 -11 0 -14 -3 -6 -6z"/>
<path d="M4680 712 c0 -4 11 -23 25 -42 19 -25 22 -37 14 -47 -9 -10 -8 -13 5
-13 9 0 16 8 16 19 0 11 4 22 8 25 5 3 7 -9 5 -27 l-3 -32 17 38 c8 20 20 37
24 37 13 0 11 -7 -7 -36 -15 -22 -15 -24 0 -18 11 4 16 1 16 -10 0 -19 16 -21
23 -3 4 10 6 10 6 0 1 -7 5 -13 9 -13 4 0 7 17 5 38 l-3 37 14 -40 c9 -26 15
-33 16 -20 1 17 4 15 14 -9 8 -18 16 -24 20 -17 4 6 4 16 0 23 -4 7 -3 8 4 4
7 -4 12 -13 12 -20 0 -8 9 -16 20 -19 11 -3 20 0 20 5 0 6 7 4 17 -3 14 -13
14 -11 -1 19 -25 49 -12 51 16 3 27 -49 38 -52 38 -11 0 17 5 30 11 30 7 0 9
-9 5 -24 -4 -15 0 -28 9 -36 8 -7 15 -9 15 -5 0 4 6 3 13 -2 19 -15 78 -15 76
-1 -3 26 1 39 12 33 6 -4 8 -13 5 -20 -3 -8 2 -19 10 -25 8 -7 14 -9 14 -4 0
5 4 2 10 -6 5 -8 12 -11 16 -7 4 4 -1 16 -10 26 -10 11 -19 31 -20 46 -2 14
-9 32 -16 38 -10 10 -12 7 -7 -10 3 -13 3 -23 1 -23 -2 0 -13 10 -25 23 -16
16 -20 18 -16 5 7 -20 -9 -35 -16 -16 -3 8 -9 3 -15 -12 l-11 -25 0 23 c-1 23
-31 64 -31 43 0 -6 -4 -11 -10 -11 -5 0 -10 8 -10 18 0 13 -2 14 -9 3 -7 -11
-9 -11 -13 0 -4 12 -8 11 -23 -1 -17 -14 -18 -13 -12 4 5 13 3 17 -7 13 -7 -3
-19 0 -25 6 -6 6 -11 7 -11 3 0 -5 -8 -2 -17 5 -15 13 -16 12 -11 -8 7 -25 -7
-32 -16 -8 -3 8 -12 15 -20 15 -8 0 -17 6 -20 13 -5 13 -26 -13 -38 -48 -5
-16 -6 -14 -7 10 -1 17 -6 37 -11 45 -9 13 -11 13 -20 0 -6 -10 -10 -11 -10
-2 0 18 -18 15 -23 -5 -4 -14 -5 -12 -6 5 0 12 -6 22 -12 22 -6 0 -8 -9 -4
-22 6 -22 6 -22 -9 -4 -9 11 -16 23 -16 28 0 4 -4 8 -10 8 -5 0 -10 -4 -10 -8z
m204 -68 c3 -8 2 -12 -4 -9 -6 3 -10 10 -10 16 0 14 7 11 14 -7z m66 -52 c0
-7 -4 -10 -10 -7 -5 3 -10 16 -10 28 0 18 2 19 10 7 5 -8 10 -21 10 -28z m130
4 c0 -3 -4 -8 -10 -11 -5 -3 -10 -1 -10 4 0 6 5 11 10 11 6 0 10 -2 10 -4z
m57 -38 c-3 -8 -6 -5 -6 6 -1 11 2 17 5 13 3 -3 4 -12 1 -19z m-17 2 c0 -5 -5
-10 -11 -10 -5 0 -7 5 -4 10 3 6 8 10 11 10 2 0 4 -4 4 -10z"/>
<path d="M5240 616 c0 -4 5 -17 11 -29 12 -22 11 -22 -13 1 -24 22 -26 22 -30
4 -6 -21 26 -71 38 -60 4 4 1 16 -7 25 -13 16 -12 17 4 4 9 -7 17 -19 16 -25
-3 -27 2 -36 21 -36 12 0 20 7 20 17 0 14 3 13 23 -5 30 -28 45 -28 58 1 l10
22 -5 -22 c-5 -29 9 -39 24 -16 10 17 10 17 8 -1 -4 -25 19 -33 25 -9 4 14 5
14 6 2 1 -18 71 -44 71 -27 0 6 9 3 19 -6 11 -10 24 -15 30 -12 5 3 12 0 15
-6 4 -7 4 -3 2 9 -6 32 12 39 20 8 3 -14 10 -25 15 -25 14 0 11 10 -16 57 -28
47 -40 56 -29 21 6 -20 5 -21 -10 -9 -9 7 -16 20 -16 27 0 8 -5 14 -11 14 -7
0 -9 -10 -5 -27 5 -21 4 -24 -4 -13 -5 8 -10 24 -11 35 -1 18 -2 18 -6 2 -4
-14 -8 -16 -19 -6 -11 9 -14 9 -14 -1 0 -9 -6 -8 -19 4 -18 17 -19 17 -24 -1
-3 -11 -5 -7 -6 12 l-2 30 -14 -25 -14 -25 -1 24 c0 16 -4 21 -14 18 -8 -3
-17 -1 -20 6 -5 9 -7 9 -12 0 -4 -9 -11 -10 -24 -3 -15 8 -20 6 -25 -11 -9
-27 -29 -19 -33 14 -3 22 -32 61 -32 43z m87 -78 c-3 -8 -6 -5 -6 6 -1 11 2
17 5 13 3 -3 4 -12 1 -19z m35 -20 c-15 -15 -24 -6 -16 16 5 12 10 14 17 7 8
-8 8 -14 -1 -23z m148 -29 c0 -6 -4 -7 -10 -4 -5 3 -10 11 -10 16 0 6 5 7 10
4 6 -3 10 -11 10 -16z m60 -32 c0 -5 -4 -5 -10 -2 -5 3 -10 14 -10 23 0 15 2
15 10 2 5 -8 10 -19 10 -23z"/>
<path d="M5280 581 c0 -5 5 -13 10 -16 6 -3 10 -2 10 4 0 5 -4 13 -10 16 -5 3
-10 2 -10 -4z"/>
<path d="M5610 517 c0 -14 51 -97 61 -97 4 0 6 7 3 15 -4 8 -1 15 5 15 6 0 11
-5 11 -11 0 -8 6 -7 17 2 15 13 16 12 11 -8 -6 -23 5 -32 16 -14 9 13 28 8 63
-17 20 -14 33 -18 35 -11 3 9 9 9 26 0 17 -9 22 -9 22 0 0 8 3 9 13 0 11 -9
17 -3 30 29 8 22 12 40 7 40 -5 0 -10 -5 -12 -11 -5 -15 -34 -1 -47 24 l-11
22 6 -22 c6 -27 -4 -30 -22 -5 -12 16 -13 15 -14 -7 l0 -23 -21 23 -20 24 6
-25 7 -25 -17 23 c-9 12 -20 22 -25 22 -5 0 -12 -10 -16 -22 -7 -21 -9 -20
-14 12 -7 35 -7 35 -18 10 l-11 -25 0 28 c-1 28 -21 39 -21 11 0 -8 -5 -12
-10 -9 -6 4 -8 10 -5 15 3 5 1 11 -5 15 -5 3 -10 -1 -10 -9 0 -21 -10 -20 -26
2 -7 9 -14 13 -14 9z m250 -98 c0 -11 -4 -17 -10 -14 -5 3 -10 13 -10 21 0 8
5 14 10 14 6 0 10 -9 10 -21z m40 0 c0 -5 -4 -9 -10 -9 -5 0 -10 7 -10 16 0 8
5 12 10 9 6 -3 10 -10 10 -16z"/>
<path d="M5936 418 c-8 -33 -7 -48 4 -48 6 0 10 8 10 18 0 9 5 24 11 32 8 12
9 9 5 -11 -4 -17 -1 -31 9 -39 13 -11 15 -8 15 14 0 17 4 25 11 21 6 -4 8 -13
5 -21 -3 -7 -1 -16 4 -19 6 -4 10 0 10 7 1 9 5 7 14 -4 15 -20 31 -24 20 -5
-4 6 3 3 16 -8 17 -15 24 -17 27 -7 4 10 9 8 19 -5 11 -14 13 -15 14 -3 0 12
3 12 11 -2 10 -19 38 -14 52 9 12 20 25 16 29 -9 4 -33 44 -37 50 -6 3 13 9
32 13 43 6 19 6 19 -8 3 -19 -24 -27 -23 -27 5 -1 20 -2 20 -13 5 -12 -15 -14
-15 -25 0 -10 16 -12 16 -23 -2 -11 -18 -12 -18 -30 5 l-19 24 0 -25 c-1 -24
-2 -24 -11 -5 -13 26 -49 51 -49 34 0 -7 -9 -4 -21 7 -21 19 -22 19 -15 -3 l7
-21 -38 19 c-49 25 -69 24 -77 -3z m172 -43 c-3 -3 -9 2 -12 12 -6 14 -5 15 5
6 7 -7 10 -15 7 -18z m-24 -1 c3 -8 2 -12 -4 -9 -6 3 -10 10 -10 16 0 14 7 11
14 -7z m91 -24 c3 -5 1 -10 -4 -10 -6 0 -11 5 -11 10 0 6 2 10 4 10 3 0 8 -4
11 -10z m75 -16 c0 -8 -4 -12 -10 -9 -5 3 -10 10 -10 16 0 5 5 9 10 9 6 0 10
-7 10 -16z"/>
<path d="M6295 364 c-12 -28 -11 -57 2 -61 13 -5 22 37 13 62 -6 18 -7 18 -15
-1z"/>
<path d="M6373 363 c3 -13 1 -23 -4 -23 -5 0 -9 7 -9 15 0 8 -5 15 -11 15 -6
0 -9 -6 -6 -14 3 -8 0 -16 -7 -18 -10 -2 -11 -9 -4 -28 5 -13 12 -20 16 -15
10 14 52 14 52 0 0 -7 10 -12 23 -11 16 1 21 7 19 21 -3 16 2 14 30 -12 40
-39 46 -40 57 -10 9 22 9 22 16 -5 8 -33 31 -37 40 -8 4 11 11 17 17 14 7 -4
7 -9 0 -13 -23 -14 7 -31 62 -34 56 -3 58 -3 53 19 -2 13 0 21 5 17 6 -3 7
-18 4 -34 -5 -28 8 -42 16 -17 3 8 11 7 28 -5 19 -13 27 -14 39 -4 10 8 13 8
8 1 -4 -7 0 -15 9 -18 26 -10 34 -7 27 12 -5 14 -2 14 18 -4 26 -24 49 -22 49
4 0 12 6 8 18 -10 21 -36 34 -36 27 0 -6 25 -5 25 6 7 23 -36 35 -45 48 -32 8
8 11 7 11 -3 1 -9 7 -4 15 10 l14 25 1 -30 c0 -22 3 -26 12 -17 9 9 16 8 29
-4 19 -17 44 -10 33 8 -4 7 -2 8 4 4 7 -4 12 -15 13 -24 0 -11 2 -12 6 -4 2 6
10 9 16 5 17 -11 61 -10 70 2 4 6 10 0 13 -12 7 -26 34 -32 34 -8 0 8 5 15 10
15 6 0 10 -6 10 -14 0 -18 31 -30 41 -15 10 17 1 37 -22 50 -14 7 -19 6 -19
-3 -1 -8 -7 -5 -15 6 -13 18 -20 15 -16 -7 2 -15 -16 -6 -44 23 -16 17 -33 30
-38 30 -5 0 2 -12 17 -27 14 -14 24 -28 21 -31 -2 -3 -17 7 -32 22 -16 16 -34
25 -44 23 -10 -3 -25 3 -34 13 -9 10 -23 16 -31 13 -8 -3 -14 0 -14 7 0 6 -5
8 -10 5 -6 -4 -8 -11 -5 -16 3 -5 -1 -6 -9 -3 -10 4 -16 1 -16 -7 0 -7 -16 3
-37 22 -20 18 -33 28 -29 21 10 -18 -4 -15 -27 6 -19 17 -20 16 -7 -8 13 -24
12 -25 -7 -7 -24 21 -37 22 -29 2 3 -8 1 -15 -4 -15 -6 0 -10 6 -10 14 0 8 -5
18 -11 22 -8 4 -9 -4 -4 -27 7 -31 6 -32 -9 -20 -10 8 -15 23 -13 33 3 10 1
21 -4 24 -5 3 -9 -9 -9 -26 0 -20 -4 -29 -11 -25 -6 4 -8 13 -5 20 2 7 -2 21
-9 32 -14 17 -14 17 -15 -2 -1 -11 -4 -14 -7 -7 -2 6 -8 10 -13 7 -4 -2 -15 4
-25 15 -10 11 -23 20 -29 20 -6 0 -2 -7 8 -15 20 -15 35 -62 16 -50 -5 3 -10
12 -10 19 0 7 -12 23 -26 37 l-26 24 8 -30 7 -30 -21 25 c-20 23 -21 24 -22 5
l-1 -20 -9 20 c-5 11 -9 16 -9 11 -1 -5 -8 -3 -16 4 -12 10 -15 10 -15 -1 -1
-9 -5 -8 -15 5 -14 19 -15 19 -15 2 0 -15 -3 -16 -15 -6 -8 7 -15 9 -15 4 0
-4 -12 3 -27 17 -21 19 -25 20 -20 6 4 -10 3 -16 -2 -12 -5 3 -13 0 -16 -6 -5
-7 -12 -3 -21 10 -9 12 -22 18 -34 16 -13 -2 -20 2 -20 11 0 8 -4 14 -10 14
-5 0 -7 -8 -4 -17 3 -10 -2 -7 -11 7 -16 24 -16 24 -12 3z m140 -73 c3 -11 1
-20 -4 -20 -5 0 -9 9 -9 20 0 11 2 20 4 20 2 0 6 -9 9 -20z m51 4 c3 -8 2 -12
-4 -9 -6 3 -10 10 -10 16 0 14 7 11 14 -7z m71 -14 c3 -5 1 -10 -4 -10 -6 0
-11 5 -11 10 0 6 2 10 4 10 3 0 8 -4 11 -10z m142 -52 c-3 -8 -6 -5 -6 6 -1
11 2 17 5 13 3 -3 4 -12 1 -19z m340 -48 c-2 -23 -10 -17 -12 10 -1 10 2 17 6
14 4 -2 7 -13 6 -24z m78 -19 c3 -5 1 -12 -5 -16 -5 -3 -10 1 -10 9 0 18 6 21
15 7z m140 -21 c3 -5 1 -10 -4 -10 -6 0 -11 5 -11 10 0 6 2 10 4 10 3 0 8 -4
11 -10z"/>
<path d="M6475 340 c3 -5 8 -10 11 -10 2 0 4 5 4 10 0 6 -5 10 -11 10 -5 0 -7
-4 -4 -10z"/>
<path d="M6450 280 c0 -5 5 -10 10 -10 6 0 10 5 10 10 0 6 -4 10 -10 10 -5 0
-10 -4 -10 -10z"/>
</g>
</svg>
