<?xml version="1.0" standalone="no"?>
<!DOCTYPE svg PUBLIC "-//W3C//DTD SVG 20010904//EN"
 "http://www.w3.org/TR/2001/REC-SVG-20010904/DTD/svg10.dtd">
<svg version="1.0" xmlns="http://www.w3.org/2000/svg"
 width="410.000000pt" height="546.000000pt" viewBox="0 0 410.000000 546.000000"
 preserveAspectRatio="xMidYMid meet">

<g transform="translate(0.000000,546.000000) scale(0.100000,-0.100000)"
fill="#000000" stroke="none">
<path d="M1859 3786 c-67 -20 -176 -86 -216 -129 -60 -65 -67 -82 -47 -112 19
-28 54 -52 54 -36 0 5 9 13 20 16 27 9 25 25 -2 26 -19 1 -18 2 6 10 17 4 32
6 35 4 2 -3 -1 -5 -9 -5 -24 0 11 -30 62 -52 26 -11 48 -24 48 -28 0 -16 -71
-21 -93 -7 -29 18 -59 29 -53 18 3 -5 19 -14 36 -21 16 -7 28 -15 26 -19 -6
-9 58 -8 65 2 6 9 182 57 209 57 10 0 20 3 22 8 2 4 41 24 87 45 68 30 87 35
97 25 6 -7 19 -53 28 -102 15 -86 14 -116 -3 -87 -6 10 -10 10 -16 1 -16 -26
-257 -111 -373 -131 -37 -6 -77 -15 -89 -20 -28 -10 -144 8 -162 26 -7 7 -19
37 -26 67 -7 29 -14 44 -14 33 -1 -40 18 -98 41 -122 21 -22 23 -32 20 -103
-3 -60 0 -83 13 -103 14 -22 15 -32 5 -61 -15 -46 -66 -89 -98 -83 -16 3 -20
1 -13 -6 5 -5 27 -12 49 -14 31 -3 44 2 66 22 31 29 47 34 24 8 -41 -48 -41
-133 1 -192 l23 -31 -34 -42 c-18 -23 -27 -39 -20 -35 14 10 16 -11 2 -33 -8
-13 -10 -13 -10 2 0 11 -5 15 -15 12 -15 -6 -19 3 -16 41 1 18 1 18 -9 3 -19
-31 38 -110 70 -100 13 5 13 3 1 -12 -14 -17 -16 -17 -28 0 -7 10 -13 13 -13
8 0 -6 5 -15 12 -22 14 -14 -9 -43 -54 -70 -16 -9 -28 -24 -28 -34 0 -10 -24
-82 -54 -161 -60 -161 -91 -275 -83 -314 3 -15 -4 -55 -14 -89 -15 -49 -24
-63 -41 -66 -25 -4 -43 -50 -93 -248 -33 -132 -61 -214 -124 -374 -18 -43 -30
-81 -27 -83 3 -3 0 -11 -7 -17 -8 -8 -44 -11 -112 -9 -110 3 -153 -9 -181 -52
-14 -22 -13 -27 10 -74 14 -28 36 -56 48 -62 12 -6 55 -13 95 -14 41 -2 77 -5
80 -9 3 -3 0 -19 -6 -35 -7 -16 -11 -42 -9 -57 3 -26 16 -36 123 -91 66 -35
126 -70 132 -80 29 -39 16 -67 -62 -137 l-75 -68 52 -26 c30 -16 53 -33 52
-42 0 -8 -4 -47 -8 -86 -7 -67 -5 -73 19 -102 14 -16 25 -38 25 -49 0 -10 7
-29 16 -41 14 -20 23 -22 108 -22 l93 0 6 53 c3 28 9 63 12 77 3 14 8 32 9 40
2 8 9 14 16 12 6 -1 9 2 5 8 -3 6 -11 8 -16 5 -5 -4 -9 1 -9 10 0 9 4 14 9 10
5 -3 12 -1 16 5 3 5 1 10 -6 10 -7 0 -9 3 -6 6 4 4 13 1 22 -6 13 -10 15 -9
15 8 0 12 5 24 12 28 8 5 9 0 5 -17 -4 -13 -7 -30 -7 -37 0 -7 -5 -10 -12 -6
-7 5 -9 0 -6 -14 3 -12 1 -20 -4 -19 -11 2 -19 -21 -22 -60 0 -13 -5 -23 -9
-23 -5 0 -6 -13 -3 -30 2 -16 0 -30 -5 -30 -5 0 -9 -7 -9 -15 0 -13 43 -15
317 -14 230 1 320 4 325 12 6 9 8 9 8 0 0 -19 21 -16 36 5 12 15 13 15 8 0 -5
-14 6 -16 90 -16 53 0 96 2 96 4 0 3 -6 19 -13 37 -18 41 -19 47 -9 47 4 0 7
-3 7 -7 1 -5 7 -25 15 -45 15 -41 35 -53 25 -15 l-6 22 20 -23 c15 -17 30 -22
70 -22 31 0 51 4 51 11 0 8 5 8 15 -1 10 -8 15 -9 15 -2 0 6 -12 17 -27 24
-33 15 -45 72 -15 66 9 -3 16 -10 15 -16 -2 -7 3 -11 9 -9 7 1 21 -15 31 -35
10 -21 22 -38 27 -38 15 0 -13 70 -35 84 -11 8 -27 32 -35 55 -7 23 -17 41
-21 41 -5 0 -4 -12 1 -26 14 -37 13 -49 -5 -34 -11 9 -15 33 -15 86 0 61 5 83
27 124 15 28 31 50 36 50 4 0 6 4 3 9 -4 5 7 21 24 34 16 14 30 29 30 34 0 4
6 20 14 35 8 15 17 42 20 60 3 18 3 26 0 18 -40 -97 -74 -152 -74 -121 0 6 4
11 8 11 9 0 10 53 1 60 -4 3 -9 14 -12 25 -5 15 2 25 28 42 37 24 51 28 58 16
2 -5 2 -3 1 4 -2 6 4 14 12 17 25 10 74 7 74 -4 0 -6 9 -2 19 7 65 59 71 57
55 -24 -7 -38 -14 -86 -15 -108 l-1 -40 -11 42 c-16 58 -22 59 -21 6 1 -31 7
-49 18 -55 9 -5 16 -22 16 -38 0 -17 4 -30 8 -30 8 0 22 -35 37 -90 7 -24 7
-24 -9 -5 -8 11 -16 15 -16 9 0 -6 9 -23 20 -37 22 -28 73 -136 82 -174 5 -18
-7 -33 -27 -33 -1 0 -8 21 -15 46 -9 30 -20 49 -32 52 -10 2 -18 13 -18 26 0
29 -13 46 -39 51 -12 2 -19 0 -16 -6 4 -5 11 -7 16 -4 5 4 9 -2 9 -12 0 -11 5
-24 11 -30 6 -6 12 -17 13 -24 2 -8 6 -21 9 -29 3 -8 11 -38 17 -67 l12 -51
68 -1 c63 0 69 1 73 22 l4 22 2 -22 c0 -13 6 -23 11 -23 6 0 11 42 11 103 1
56 3 113 4 127 2 14 -3 36 -10 50 -19 39 -56 152 -51 157 2 3 14 -1 26 -7 16
-9 25 -8 36 1 14 11 13 13 0 21 -11 6 -16 23 -16 53 0 43 0 43 33 40 71 -6
260 -49 290 -66 24 -13 47 1 80 48 33 48 36 98 6 113 -11 6 -41 15 -67 20 -80
14 -322 93 -322 105 0 16 29 41 63 54 15 6 32 22 37 37 11 29 -2 318 -20 419
-21 122 -29 235 -31 418 -3 246 -14 327 -88 625 -23 89 -41 168 -41 176 0 34
-101 190 -174 269 -79 86 -79 86 -80 144 -1 53 -4 59 -33 79 l-31 21 26 29
c15 15 18 21 6 11 -34 -28 -35 -20 -4 31 28 43 54 112 44 112 -2 0 -11 -17
-19 -37 -18 -42 -41 -70 -70 -85 -16 -8 -14 -5 6 18 31 33 69 102 69 123 0 8
-12 -8 -26 -37 -25 -50 -74 -102 -96 -102 -6 0 -3 10 8 21 19 22 19 22 -3 10
-20 -10 -23 -9 -23 7 0 10 -6 24 -12 30 -10 10 -10 15 2 22 8 5 11 10 5 10 -5
0 -3 5 5 10 13 9 13 10 0 10 -8 0 -23 14 -33 32 l-18 32 31 29 c16 15 28 32
25 37 -3 5 11 14 31 20 19 7 33 14 31 16 -2 2 -43 -10 -90 -27 l-87 -30 -44
30 c-25 17 -68 37 -96 44 -62 16 -75 34 -83 115 -6 58 -25 107 -52 138 -5 6
-17 22 -25 35 -30 45 -84 101 -113 116 -36 18 -148 23 -198 9z m41 -23 c-69
-23 -73 -23 -60 -8 7 8 27 15 44 14 17 0 24 -3 16 -6z m-170 -79 c0 -8 -5 -12
-10 -9 -6 4 -8 11 -5 16 9 14 15 11 15 -7z m-60 -54 c0 -5 -7 -7 -15 -4 -8 4
-15 8 -15 10 0 2 7 4 15 4 8 0 15 -4 15 -10z m130 -10 c22 -11 40 -23 40 -25
0 -3 -14 2 -31 11 -26 13 -33 13 -40 3 -4 -8 -11 -10 -15 -6 -4 4 -12 3 -18
-3 -14 -11 -44 5 -32 17 5 4 11 2 13 -5 4 -10 9 -8 20 7 17 26 15 26 63 1z
m-50 -71 c0 -4 -7 -6 -15 -3 -8 4 -15 10 -15 15 0 4 7 6 15 3 8 -4 15 -10 15
-15z m544 -229 c-4 -8 -7 -23 -8 -32 0 -9 -3 -15 -7 -12 -4 2 -18 0 -31 -5
-83 -33 -184 -44 -390 -42 -98 1 -117 15 -35 26 28 4 75 13 103 20 29 7 69 11
90 8 22 -3 55 0 74 6 33 10 32 10 -22 8 -32 -2 -58 -3 -58 -1 0 1 21 10 48 20
26 9 67 26 91 37 79 36 103 38 129 8 13 -15 19 -32 16 -41z m71 30 l20 -9 -20
0 c-11 0 -27 4 -35 9 -13 9 -13 10 0 9 8 0 24 -4 35 -9z m64 -40 c7 -4 -11 -5
-40 -2 -30 2 -61 9 -69 14 -18 11 88 0 109 -12z m151 6 c0 -5 -65 -46 -74 -46
-17 0 -2 18 27 33 33 16 47 20 47 13z m-296 -72 c5 -14 4 -15 -9 -4 -17 14
-19 20 -6 20 5 0 12 -7 15 -16z m135 0 c2 -2 2 -6 0 -9 -8 -7 -49 7 -49 17 0
8 38 2 49 -8z m121 -41 c0 -20 -16 -8 -23 17 -4 17 -3 19 9 9 8 -6 14 -18 14
-26z m-765 5 c14 -6 25 -15 25 -19 0 -4 14 -12 31 -18 24 -8 36 -7 57 5 25 14
18 14 -25 -2 -14 -5 -13 -2 4 15 17 16 35 21 71 21 46 0 52 -3 105 -57 32 -31
57 -58 57 -61 0 -2 -9 -2 -21 1 -16 4 -18 3 -8 -9 13 -16 39 -19 39 -4 0 6 5
10 10 10 15 0 12 -21 -7 -42 -10 -12 -12 -18 -4 -18 8 0 4 -12 -9 -30 -24 -33
-29 -95 -11 -113 14 -14 14 -27 1 -27 -6 0 -15 10 -20 23 -5 14 -9 16 -9 6 -1
-8 10 -26 24 -39 l24 -23 -19 -25 c-11 -13 -20 -31 -20 -38 0 -31 -18 -11 -31
34 -14 49 -13 90 1 126 8 20 9 20 10 1 0 -11 10 5 21 35 22 63 33 108 23 98
-3 -4 -13 -1 -21 7 -19 20 -39 20 -23 0 12 -14 7 -19 -13 -16 -5 1 -6 -3 -2
-8 6 -11 -25 -52 -34 -47 -7 5 -32 -20 -31 -31 0 -5 -3 -9 -7 -9 -36 -7 -53
-18 -48 -32 4 -12 3 -13 -10 -2 -13 11 -14 10 -9 -5 5 -12 4 -16 -3 -12 -6 4
-14 1 -16 -5 -3 -8 -6 -6 -6 5 -1 19 -21 24 -21 5 0 -9 -4 -8 -10 2 -5 8 -10
11 -10 6 0 -11 -30 14 -30 25 0 5 9 9 19 9 37 0 31 19 -6 23 -34 3 -32 4 12 6
28 1 59 9 70 18 19 15 19 15 -12 10 -22 -4 -33 -2 -37 8 -3 8 -10 15 -15 15
-6 0 -8 -7 -5 -15 5 -12 -2 -15 -31 -15 -36 0 -46 18 -15 28 8 3 10 0 5 -8 -5
-8 -3 -11 5 -8 28 9 22 28 -9 28 -16 0 -42 5 -56 10 -26 10 -26 11 -19 78 4
37 7 73 7 80 0 15 28 16 62 0z m675 2 c0 -5 -2 -10 -4 -10 -3 0 -8 5 -11 10
-3 6 -1 10 4 10 6 0 11 -4 11 -10z m-380 -64 c0 -4 -11 5 -25 20 -14 15 -25
31 -25 36 0 5 11 -4 25 -20 14 -17 25 -33 25 -36z m29 50 c9 -10 8 -15 -4 -19
-8 -4 -14 -3 -14 1 3 18 -2 26 -10 14 -7 -11 -9 -11 -14 2 -8 20 26 22 42 2z
m230 -61 c-1 -29 -1 -29 -8 -5 -4 14 -11 39 -14 55 l-7 30 15 -25 c8 -14 14
-38 14 -55z m-639 24 c0 -44 -14 -45 -24 -3 -6 23 4 43 22 44 1 0 2 -18 2 -41z
m488 -14 c-3 -4 -16 9 -28 27 l-23 33 28 -27 c16 -15 26 -30 23 -33z m-547 8
c-12 -20 -14 -14 -5 12 4 9 9 14 11 11 3 -2 0 -13 -6 -23z m489 -9 c0 -8 -4
-12 -10 -9 -5 3 -10 10 -10 16 0 5 5 9 10 9 6 0 10 -7 10 -16z m369 -3 c7 -5
12 -14 9 -21 -2 -7 -10 -4 -22 9 -19 21 -12 28 13 12z m-339 -27 c0 -8 -4 -12
-10 -9 -5 3 -10 10 -10 16 0 5 5 9 10 9 6 0 10 -7 10 -16z m-493 -46 c-3 -8
-6 -5 -6 6 -1 11 2 17 5 13 3 -3 4 -12 1 -19z m988 -28 c-3 -5 -14 -10 -23 -9
-14 0 -13 2 3 9 27 11 27 11 20 0z m-579 -23 c-3 -30 -15 -49 -27 -42 -5 4 -9
-2 -9 -13 0 -10 -5 -33 -11 -51 -9 -25 -14 -29 -25 -20 -19 16 -17 26 6 32 11
3 20 10 20 16 0 6 -7 8 -15 5 -24 -10 -17 4 20 40 19 19 35 39 35 45 0 6 2 11
4 11 3 0 4 -10 2 -23z m49 -67 c-11 -37 -14 -40 -14 -17 -1 23 18 71 26 64 1
-2 -4 -23 -12 -47z m556 30 c31 -25 18 -25 -23 0 -20 12 -26 20 -17 20 9 0 27
-9 40 -20z m-4 -26 c30 -17 43 -33 48 -55 10 -42 2 -45 -33 -10 -16 17 -27 33
-24 36 3 3 -1 5 -9 5 -8 0 -30 14 -49 32 l-35 31 30 -7 c17 -4 49 -18 72 -32z
m-1027 -6 c-19 -35 -41 -58 -57 -58 -8 0 -2 11 16 25 16 14 33 35 36 46 4 11
9 18 12 16 2 -3 -1 -16 -7 -29z m31 -1 c-10 -9 -11 -8 -5 6 3 10 9 15 12 12 3
-3 0 -11 -7 -18z m46 -44 c-3 -10 -5 -2 -5 17 0 19 2 27 5 18 2 -10 2 -26 0
-35z m50 -5 c-3 -8 -6 -5 -6 6 -1 11 2 17 5 13 3 -3 4 -12 1 -19z m440 -20
c-3 -7 -5 -2 -5 12 0 14 2 19 5 13 2 -7 2 -19 0 -25z m-532 -41 c-15 -36 -11
-69 12 -102 15 -23 17 -35 3 -35 -13 0 -40 65 -40 96 0 27 20 74 31 74 4 0 2
-15 -6 -33z m185 1 c0 -5 -4 -8 -10 -8 -5 0 -10 10 -10 23 0 18 2 19 10 7 5
-8 10 -18 10 -22z m-137 -15 c6 -31 -18 -87 -33 -78 -13 8 -13 71 1 96 13 24
25 18 32 -18z m417 -102 c0 -10 -39 -41 -52 -41 -4 0 -2 11 4 25 11 24 48 36
48 16z m-455 -71 c-16 -16 -33 -30 -39 -30 -5 0 3 14 19 30 16 17 33 30 39 30
5 0 -3 -13 -19 -30z m399 -8 c3 -5 -10 -33 -29 -63 -19 -29 -35 -60 -35 -69
-1 -19 -28 -56 -36 -48 -9 9 59 148 72 148 7 0 10 8 7 20 -5 20 11 28 21 12z
m-378 -28 c-21 -12 -25 -18 -16 -24 11 -7 11 -11 1 -24 -17 -20 -40 -20 -48
-1 -7 19 22 52 51 58 39 8 41 6 12 -9z m941 -6 c-3 -8 -6 -5 -6 6 -1 11 2 17
5 13 3 -3 4 -12 1 -19z m-747 -137 c0 -11 -4 -23 -10 -26 -6 -4 -10 5 -10 19
0 14 5 26 10 26 6 0 10 -9 10 -19z m-70 -66 c0 -14 -4 -25 -9 -25 -4 0 -6 11
-3 25 2 14 6 25 8 25 2 0 4 -11 4 -25z m346 -41 c-4 -9 -9 -15 -11 -12 -3 3
-3 13 1 22 4 9 9 15 11 12 3 -3 3 -13 -1 -22z m-293 -4 c-3 -11 -7 -20 -9 -20
-2 0 -4 9 -4 20 0 11 4 20 9 20 5 0 7 -9 4 -20z m-53 -4 c0 -3 -4 -8 -10 -11
-5 -3 -10 -1 -10 4 0 6 5 11 10 11 6 0 10 -2 10 -4z m26 -38 c-8 -55 -16 -61
-16 -11 0 36 6 53 18 53 2 0 1 -19 -2 -42z m851 -20 c-3 -8 -6 -5 -6 6 -1 11
2 17 5 13 3 -3 4 -12 1 -19z m46 -2 c12 2 16 2 10 -2 -7 -3 -13 -12 -13 -21 0
-13 -2 -13 -15 1 -8 8 -15 21 -14 28 0 8 2 9 5 2 3 -7 15 -10 27 -8z m-1043
-46 c0 -5 -4 -10 -10 -10 -5 0 -10 5 -10 10 0 6 5 10 10 10 6 0 10 -4 10 -10z
m140 -14 c0 -2 -7 -7 -16 -10 -8 -3 -12 -2 -9 4 6 10 25 14 25 6z m32 -78 c-7
-7 -12 -8 -12 -2 0 6 3 14 7 17 3 4 9 5 12 2 2 -3 -1 -11 -7 -17z m-325 -40
c-3 -8 -6 -5 -6 6 -1 11 2 17 5 13 3 -3 4 -12 1 -19z m153 -13 c0 -8 -4 -15
-10 -15 -5 0 -7 7 -4 15 4 8 8 15 10 15 2 0 4 -7 4 -15z m22 -7 c-3 -13 -8
-25 -12 -28 -4 -3 -11 -18 -17 -35 -5 -16 -12 -24 -16 -19 -3 6 1 21 8 35 8
13 19 34 24 47 6 12 12 22 15 22 2 0 2 -10 -2 -22z m419 -31 c-10 -9 -11 -8
-5 6 3 10 9 15 12 12 3 -3 0 -11 -7 -18z m613 -2 c-4 -8 -8 -15 -10 -15 -2 0
-4 7 -4 15 0 8 4 15 10 15 5 0 7 -7 4 -15z m-1224 -35 c0 -5 -5 -10 -11 -10
-5 0 -7 5 -4 10 3 6 8 10 11 10 2 0 4 -4 4 -10z m260 -4 c0 -3 -4 -8 -10 -11
-5 -3 -10 -1 -10 4 0 6 5 11 10 11 6 0 10 -2 10 -4z m-116 -33 c4 -10 4 -14 0
-10 -4 4 -16 -5 -26 -20 -22 -34 -24 -23 -3 17 18 35 21 36 29 13z m1142 -13
c9 0 12 -5 8 -11 -3 -6 -1 -15 6 -19 9 -6 10 -13 2 -26 -10 -17 -12 -16 -18
13 -3 18 -9 31 -13 29 -4 -3 -7 5 -8 17 0 12 1 16 4 10 3 -7 11 -13 19 -13z
m-1316 -31 c0 -6 -4 -7 -10 -4 -5 3 -10 11 -10 16 0 6 5 7 10 4 6 -3 10 -11
10 -16z m520 -9 c-6 -11 -13 -20 -16 -20 -2 0 0 9 6 20 6 11 13 20 16 20 2 0
0 -9 -6 -20z m780 -6 c0 -2 -7 -4 -15 -4 -8 0 -15 4 -15 10 0 5 7 7 15 4 8 -4
15 -8 15 -10z m-803 -46 c-3 -8 -6 -5 -6 6 -1 11 2 17 5 13 3 -3 4 -12 1 -19z
m483 8 c0 -2 -7 -7 -16 -10 -8 -3 -12 -2 -9 4 6 10 25 14 25 6z m360 -22 c0
-8 -4 -14 -10 -14 -5 0 -10 9 -10 21 0 11 5 17 10 14 6 -3 10 -13 10 -21z
m-869 -37 c-10 -9 -11 -8 -5 6 3 10 9 15 12 12 3 -3 0 -11 -7 -18z m871 -9
c-7 -7 -12 -8 -12 -2 0 14 12 26 19 19 2 -3 -1 -11 -7 -17z m-1041 -39 c-9
-22 -10 -22 -10 -3 -1 11 2 24 6 27 12 12 14 0 4 -24z m-348 3 c-6 -4 -13 -16
-16 -27 -4 -16 -5 -14 -6 7 0 14 5 28 12 31 16 6 24 -2 10 -11z m1397 2 c0 -7
-4 -16 -10 -19 -5 -3 -10 -4 -10 -1 0 2 -2 11 -5 19 -4 8 0 14 10 14 8 0 15
-6 15 -13z m-1111 -15 c-16 -10 -23 -4 -14 10 3 6 11 8 17 5 6 -4 5 -9 -3 -15z
m82 -16 c-12 -20 -14 -14 -5 12 4 9 9 14 11 11 3 -2 0 -13 -6 -23z m-24 -9
c-3 -3 -12 -4 -19 -1 -8 3 -5 6 6 6 11 1 17 -2 13 -5z m1037 -19 c-4 -8 -8
-15 -10 -15 -2 0 -4 7 -4 15 0 8 4 15 10 15 5 0 7 -7 4 -15z m-808 -17 c-2 -7
-6 -20 -9 -28 -3 -8 -8 -24 -10 -35 -4 -18 -5 -18 -6 2 0 12 3 33 9 47 10 27
20 35 16 14z m-666 -8 c0 -5 -4 -10 -10 -10 -5 0 -10 5 -10 10 0 6 5 10 10 10
6 0 10 -4 10 -10z m1467 -157 c-3 -10 -5 -4 -5 12 0 17 2 24 5 18 2 -7 2 -21
0 -30z m-1541 -10 c-10 -10 -19 5 -10 18 6 11 8 11 12 0 2 -7 1 -15 -2 -18z
m286 -5 c-7 -7 -12 -8 -12 -2 0 6 3 14 7 17 3 4 9 5 12 2 2 -3 -1 -11 -7 -17z
m415 0 c-3 -8 -6 -5 -6 6 -1 11 2 17 5 13 3 -3 4 -12 1 -19z m753 2 c0 -5 -5
-10 -11 -10 -5 0 -7 5 -4 10 3 6 8 10 11 10 2 0 4 -4 4 -10z m-713 -32 c-3 -7
-5 -2 -5 12 0 14 2 19 5 13 2 -7 2 -19 0 -25z m900 10 c-3 -8 -6 -5 -6 6 -1
11 2 17 5 13 3 -3 4 -12 1 -19z m-1662 -30 c-3 -18 -8 -42 -10 -53 -2 -11 -4
-21 -5 -22 -2 -2 -3 -7 -4 -12 0 -5 -5 -13 -9 -18 -5 -4 -6 10 -2 32 8 49 25
105 31 105 3 0 2 -15 -1 -32z m99 -14 c3 -8 2 -12 -4 -9 -6 3 -10 10 -10 16 0
14 7 11 14 -7z m96 -134 c0 -5 -5 -10 -11 -10 -5 0 -7 5 -4 10 3 6 8 10 11 10
2 0 4 -4 4 -10z m317 -202 c-3 -8 -6 -5 -6 6 -1 11 2 17 5 13 3 -3 4 -12 1
-19z m1183 -52 c0 -3 -4 -8 -10 -11 -5 -3 -10 -1 -10 4 0 6 5 11 10 11 6 0 10
-2 10 -4z m-397 -26 c-10 -11 -19 -20 -21 -20 -1 0 2 9 8 20 6 11 15 20 20 20
6 0 2 -9 -7 -20z m-923 -10 c0 -5 -4 -10 -10 -10 -5 0 -10 5 -10 10 0 6 5 10
10 10 6 0 10 -4 10 -10z m-772 -42 c-2 -13 -11 -24 -20 -26 -21 -4 -23 13 -5
33 18 21 29 18 25 -7z m77 -40 c-7 -49 -9 -51 -19 -29 -8 19 -8 25 2 29 6 2
12 18 12 35 0 16 3 28 6 24 3 -3 3 -30 -1 -59z m375 48 c0 -3 -4 -8 -10 -11
-5 -3 -10 -1 -10 4 0 6 5 11 10 11 6 0 10 -2 10 -4z m505 -8 c14 -6 25 -16 25
-21 0 -5 -7 -4 -15 3 -8 6 -18 9 -24 6 -5 -3 -17 -3 -26 0 -13 5 -14 8 -3 15
16 11 13 11 43 -3z m-773 -35 c1 -12 -1 -23 -7 -25 -5 -2 -11 13 -13 32 -4 38
14 32 20 -7z m38 22 c-7 -9 -15 -13 -17 -11 -7 7 7 26 19 26 6 0 6 -6 -2 -15z
m-94 -57 c4 -29 -10 -39 -19 -14 -3 8 -1 17 6 20 7 2 4 5 -5 5 -19 1 -22 9
-12 36 6 16 8 16 17 -1 6 -10 12 -30 13 -46z m194 4 l0 -47 -16 30 c-8 16 -12
40 -9 53 9 37 25 15 25 -36z m59 -4 c-17 -31 -30 -3 -16 35 10 30 10 30 19 8
5 -14 4 -31 -3 -43z m646 52 c4 -6 1 -18 -7 -27 -7 -9 -19 -28 -26 -42 l-12
-26 6 30 c3 16 11 34 17 38 9 6 9 10 0 14 -7 2 -13 9 -13 14 0 12 27 11 35 -1z
m59 -2 c-5 -7 -2 -9 7 -6 8 3 22 9 32 13 24 10 21 -5 -8 -45 -14 -18 -27 -48
-31 -66 -6 -32 -47 -63 -59 -44 -7 11 0 94 10 109 13 22 24 11 15 -15 -13 -32
-13 -74 -1 -74 13 0 24 37 16 50 -4 6 5 22 20 36 27 25 22 30 -30 24 -16 -2
-17 0 -6 14 15 18 46 22 35 4z m550 -22 c-16 -13 -31 -23 -33 -21 -2 2 10 15
25 29 16 13 31 23 33 21 2 -2 -10 -15 -25 -29z m-1687 -3 c1 -17 13 -38 32
-55 18 -16 25 -28 17 -28 -19 0 -66 57 -66 79 0 14 8 31 14 31 1 0 2 -12 3
-27z m509 -3 c1 -23 -3 -30 -17 -30 -24 0 -32 16 -19 40 16 30 35 24 36 -10z
m72 -5 c0 -27 -3 -33 -12 -25 -7 5 -16 7 -19 3 -11 -10 -8 16 3 38 16 29 28
23 28 -16z m232 20 c0 -8 -7 -15 -15 -15 -16 0 -20 12 -8 23 11 12 23 8 23 -8z
m-167 -17 c6 -22 -9 -51 -23 -43 -6 4 -7 26 -1 58 2 16 19 6 24 -15z m213 -5
c-10 -10 -19 5 -10 18 6 11 8 11 12 0 2 -7 1 -15 -2 -18z m46 5 c-7 -7 -12 -8
-12 -2 0 14 12 26 19 19 2 -3 -1 -11 -7 -17z m78 10 c0 6 5 12 12 12 9 0 9 -3
0 -12 -18 -18 -15 -41 6 -36 11 3 18 -1 19 -11 0 -9 4 -30 8 -48 7 -33 -5 -46
-49 -54 -16 -4 -19 3 -19 46 0 28 3 61 7 75 6 23 5 22 -10 -4 -9 -16 -16 -44
-16 -62 0 -38 -13 -38 -20 1 -3 13 -1 22 3 19 13 -7 11 3 -3 26 -10 15 -10 22
-1 31 9 9 11 6 6 -12 -5 -21 -3 -21 18 8 16 21 26 27 31 20 6 -9 8 -9 8 1z
m-250 -30 c0 -21 -3 -29 -10 -22 -5 5 -7 19 -4 32 9 31 14 27 14 -10z m-663
16 c-3 -3 -12 -4 -19 -1 -8 3 -5 6 6 6 11 1 17 -2 13 -5z m1307 -13 c3 -5 -2
-15 -12 -22 -15 -12 -16 -12 -5 2 7 9 10 19 6 22 -3 4 -4 7 0 7 3 0 8 -4 11
-9z m-1307 -7 c-3 -3 -12 -4 -19 -1 -8 3 -5 6 6 6 11 1 17 -2 13 -5z m232 -16
c0 -16 -2 -18 -6 -8 -3 8 -11 18 -17 22 -7 5 -4 8 7 8 11 0 17 -7 16 -22z
m519 -23 c1 -25 -3 -45 -8 -45 -6 0 -10 20 -10 45 0 25 4 45 8 45 4 0 9 -20
10 -45z m462 35 c-18 -11 -93 -11 -110 0 -10 7 6 10 53 9 38 -1 63 -5 57 -9z
m57 -5 c0 -8 -4 -12 -9 -9 -5 3 -6 10 -3 15 9 13 12 11 12 -6z m-1243 -16 c-3
-5 -10 -7 -15 -3 -5 3 -7 10 -3 15 3 5 10 7 15 3 5 -3 7 -10 3 -15z m336 -9
c0 -5 -2 -10 -4 -10 -3 0 -8 5 -11 10 -3 6 -1 10 4 10 6 0 11 -4 11 -10z m80
0 c0 -5 -4 -10 -10 -10 -5 0 -10 5 -10 10 0 6 5 10 10 10 6 0 10 -4 10 -10z
m60 -6 c0 -8 -4 -12 -10 -9 -5 3 -10 10 -10 16 0 5 5 9 10 9 6 0 10 -7 10 -16z
m720 12 c0 -3 -4 -8 -10 -11 -5 -3 -10 -1 -10 4 0 6 5 11 10 11 6 0 10 -2 10
-4z m92 -13 c-6 -3 -10 -9 -7 -13 3 -5 1 -11 -4 -14 -11 -7 -9 13 3 32 4 7 11
10 15 6 3 -4 0 -9 -7 -11z m-732 -3 c0 -5 -4 -10 -10 -10 -5 0 -10 5 -10 10 0
6 5 10 10 10 6 0 10 -4 10 -10z m127 -12 c-3 -8 -6 -5 -6 6 -1 11 2 17 5 13 3
-3 4 -12 1 -19z m853 8 c0 -3 -4 -8 -10 -11 -5 -3 -10 -1 -10 4 0 6 5 11 10
11 6 0 10 -2 10 -4z m-1510 -16 c0 -5 -9 -10 -19 -10 -11 0 -23 5 -26 10 -4 6
5 10 19 10 14 0 26 -4 26 -10z m1109 -16 c-12 -14 -39 -19 -39 -8 0 11 34 33
43 27 4 -3 3 -11 -4 -19z m112 3 c-10 -9 -11 -8 -5 6 3 10 9 15 12 12 3 -3 0
-11 -7 -18z m-71 -17 c0 -5 -8 -10 -17 -10 -15 0 -16 2 -3 10 19 12 20 12 20
0z m331 -10 c-22 -19 -41 -26 -41 -15 0 5 51 34 60 34 3 0 -6 -9 -19 -19z
m-746 0 c3 -5 1 -10 -4 -10 -6 0 -11 5 -11 10 0 6 2 10 4 10 3 0 8 -4 11 -10z
m315 0 c-18 -12 -30 -13 -30 -2 0 4 10 9 22 9 18 2 20 0 8 -7z m150 -5 c0 -7
-57 -35 -72 -35 -7 0 5 9 27 19 48 23 45 22 45 16z m-195 -24 c-3 -6 -11 -11
-17 -11 -6 0 -6 6 2 15 14 17 26 13 15 -4z m100 9 c-3 -5 -14 -10 -23 -10 -15
0 -15 2 -2 10 20 13 33 13 25 0z m135 -4 c0 -2 -7 -7 -16 -10 -8 -3 -12 -2 -9
4 6 10 25 14 25 6z m18 -26 c-13 -10 -31 -16 -40 -15 -10 2 -18 0 -18 -6 0 -5
-8 -9 -17 -9 -16 1 -16 2 2 16 11 8 27 13 36 11 9 -3 22 4 30 14 7 10 16 16
21 13 5 -3 -2 -14 -14 -24z m632 20 c0 -5 -5 -10 -11 -10 -5 0 -7 5 -4 10 3 6
8 10 11 10 2 0 4 -4 4 -10z m-930 -20 c0 -5 -2 -10 -4 -10 -3 0 -8 5 -11 10
-3 6 -1 10 4 10 6 0 11 -4 11 -10z m220 6 c0 -2 -7 -7 -16 -10 -8 -3 -12 -2
-9 4 6 10 25 14 25 6z m669 2 c-2 -2 -20 -16 -39 -33 l-35 -30 29 33 c17 17
34 32 40 32 5 0 7 -1 5 -2z m-769 -12 c0 -2 -8 -10 -17 -17 -16 -13 -17 -12
-4 4 13 16 21 21 21 13z m-112 -58 c7 -18 18 -41 23 -52 8 -13 7 -17 -1 -14
-7 2 -20 25 -30 51 -20 52 -12 66 8 15z m198 25 c14 -5 6 -10 -31 -21 -28 -7
-57 -15 -65 -16 -9 -1 -21 -6 -28 -10 -7 -4 -16 -5 -19 -2 -8 7 65 38 94 40
13 0 23 4 23 9 0 9 4 9 26 0z m-427 -12 c0 -3 -7 -22 -14 -41 -11 -29 -21 -27
-16 3 0 4 -3 7 -9 7 -11 0 -9 22 3 31 4 3 14 6 22 6 8 0 15 -3 14 -6z m461
-10 c-8 -5 -26 -11 -40 -15 -21 -5 -20 -3 5 9 32 15 60 20 35 6z m-552 -36 c0
-13 -4 -22 -9 -19 -5 3 -9 14 -9 25 0 10 4 19 9 19 5 0 9 -11 9 -25z m252 5
c0 -5 -2 -10 -4 -10 -3 0 -8 5 -11 10 -3 6 -1 10 4 10 6 0 11 -4 11 -10z m59
-45 c-1 -29 -1 -29 -9 -5 -4 14 -8 34 -9 45 -1 16 1 17 9 5 5 -8 9 -28 9 -45z
m341 51 c0 -2 -7 -7 -16 -10 -8 -3 -12 -2 -9 4 6 10 25 14 25 6z m973 -38 c65
-18 114 -34 108 -36 -6 -2 -48 6 -93 18 -46 12 -108 27 -138 34 -32 7 -49 15
-40 18 17 7 11 9 163 -34z m-1688 12 c3 -5 2 -10 -4 -10 -5 0 -13 5 -16 10 -3
6 -2 10 4 10 5 0 13 -4 16 -10z m196 -7 c13 -16 12 -17 -3 -4 -17 13 -22 21
-14 21 2 0 10 -8 17 -17z m1584 -3 c13 -6 15 -9 5 -9 -8 0 -22 4 -30 9 -18 12
-2 12 25 0z m-1085 -14 c0 -2 -8 -10 -17 -17 -16 -13 -17 -12 -4 4 13 16 21
21 21 13z m-462 -56 c25 -57 26 -60 13 -60 -5 0 -12 14 -16 30 -4 18 -11 27
-17 24 -7 -4 -8 -2 -4 4 4 7 2 12 -3 12 -6 0 -11 9 -11 20 0 34 15 22 38 -30z
m192 28 c0 -13 7 -35 14 -50 12 -23 12 -28 1 -28 -14 0 -35 49 -35 81 0 11 5
19 10 19 6 0 10 -10 10 -22z m297 -12 c-4 -31 -26 -57 -46 -54 -9 1 -23 -1
-31 -6 -8 -5 -12 -6 -8 -1 4 4 3 14 -3 21 -12 15 4 27 41 31 18 2 20 0 8 -5
-12 -5 -15 -11 -8 -21 7 -12 11 -12 24 -2 8 7 15 16 14 19 -2 17 3 42 7 42 3
0 4 -11 2 -24z m-420 -53 c-3 -10 -5 -2 -5 17 0 19 2 27 5 18 2 -10 2 -26 0
-35z m94 -48 c7 -7 13 -5 20 5 8 11 12 12 16 2 2 -6 10 -10 16 -6 7 3 3 -2 -7
-10 -24 -19 -27 -20 -50 -3 -10 8 -19 30 -21 57 l-5 45 11 -40 c5 -22 14 -44
20 -50z m143 64 c-3 -6 2 -17 12 -25 18 -14 18 -14 -3 -5 -12 6 -21 19 -20 30
0 11 5 17 9 15 5 -3 6 -10 2 -15z m1308 -41 c2 -21 1 -38 -3 -38 -9 0 -18 82
-10 95 6 11 8 3 13 -57z m-1628 11 c-2 -4 0 -10 5 -13 5 -3 7 -15 4 -26 -5
-18 -3 -19 21 -10 14 5 27 8 27 7 8 -13 3 -95 -5 -94 -14 3 -15 -61 -1 -80 8
-11 10 -4 8 29 l-2 43 10 -50 c17 -90 18 -112 3 -112 -8 0 -14 4 -14 9 0 4 4
8 9 8 5 0 8 8 6 18 -2 9 -4 20 -4 24 -1 4 -10 6 -20 5 -11 0 -17 -5 -15 -9 3
-5 11 -5 17 -1 9 5 9 3 1 -8 -6 -8 -10 -22 -9 -32 2 -9 0 -15 -5 -12 -5 3 -7
13 -5 23 1 9 -1 22 -6 28 -4 5 -10 37 -13 70 -2 32 -5 59 -6 59 -3 0 -10 43
-16 100 -4 42 -3 56 5 45 5 -8 8 -17 5 -21z m-164 18 c0 -2 -10 -12 -22 -23
l-23 -19 19 23 c18 21 26 27 26 19z m60 -12 c0 -8 -2 -15 -4 -15 -2 0 -6 7
-10 15 -3 8 -1 15 4 15 6 0 10 -7 10 -15z m156 -18 c-1 -12 -12 -24 -22 -26
-19 -3 -19 -3 -1 17 11 12 16 26 11 33 -4 8 -3 10 4 5 7 -4 10 -17 8 -29z
m229 13 c4 -6 11 -7 17 -4 7 5 8 2 2 -7 -12 -19 -12 -33 1 -41 9 -7 7 -8 -22
-8 -5 0 -9 5 -9 10 -1 6 -2 11 -3 13 -2 1 -4 12 -7 25 -4 22 10 30 21 12z
m-705 -4 c0 -3 -4 -8 -10 -11 -5 -3 -10 -1 -10 4 0 6 5 11 10 11 6 0 10 -2 10
-4z m5 -36 c-8 -16 -15 -33 -15 -37 0 -5 -6 -8 -12 -8 -7 0 -14 -6 -14 -12 -3
-24 -4 -25 -17 -14 -8 6 -17 8 -21 4 -4 -4 4 -13 16 -21 13 -7 15 -11 6 -8
-12 3 -18 0 -18 -9 0 -18 21 -20 38 -3 9 9 15 9 20 3 6 -9 15 -11 38 -6 4 0 2
7 -4 14 -8 9 -4 19 14 36 20 20 23 20 18 5 -4 -15 -2 -14 15 5 12 13 21 19 21
14 0 -12 -40 -49 -48 -45 -4 2 -8 -2 -11 -9 -2 -8 1 -9 10 -4 8 5 6 -1 -5 -13
-10 -12 -23 -20 -29 -19 -6 1 -12 -8 -13 -20 -2 -35 -3 -36 -17 -24 -21 17
-29 0 -11 -21 14 -14 20 -15 32 -6 7 7 20 13 28 14 10 2 10 -3 -3 -22 -9 -15
-22 -23 -30 -20 -8 4 -19 6 -24 6 -5 0 -9 7 -9 15 0 9 -11 20 -25 25 -14 5
-25 14 -25 20 0 6 -5 8 -10 5 -6 -4 -9 -1 -8 7 2 7 -4 14 -12 14 -8 1 -21 2
-28 3 -16 1 -10 7 63 66 28 22 61 52 73 68 31 35 36 34 17 -3z m295 15 c0 -8
-4 -15 -10 -15 -5 0 -7 7 -4 15 4 8 8 15 10 15 2 0 4 -7 4 -15z m604 4 c-2 -4
-12 -6 -22 -4 -9 1 -22 -2 -29 -7 -7 -6 -14 -5 -19 3 -4 7 -3 9 4 5 6 -3 13
-3 16 2 2 4 16 8 30 8 13 0 23 -3 20 -7z m71 1 c4 -6 3 -9 -2 -8 -4 2 -9 -1
-9 -7 -1 -5 3 -8 10 -6 39 13 46 9 16 -8 -19 -11 -42 -20 -50 -20 -10 0 -8 3
4 8 14 5 16 10 7 15 -9 6 -9 11 0 22 14 17 16 17 24 4z m-842 -15 c-3 -9 -8
-14 -10 -11 -3 3 -2 9 2 15 9 16 15 13 8 -4z m642 -14 c-2 -9 -4 -18 -5 -21
-1 -3 -2 -8 -1 -12 0 -5 -6 -8 -15 -8 -9 0 -14 -6 -11 -13 3 -7 -1 -24 -9 -38
-7 -13 -13 -19 -14 -13 0 7 -7 11 -16 10 -9 0 -19 6 -21 14 -4 13 -3 13 6 0 9
-13 13 -13 28 4 10 10 13 16 6 12 -6 -3 -14 -2 -18 4 -4 6 -10 8 -15 5 -5 -3
-12 0 -16 7 -4 7 -4 10 1 6 4 -4 14 -3 21 3 8 6 20 9 28 6 17 -7 34 12 31 34
-2 9 3 16 10 16 7 0 11 -7 10 -16z m-615 6 c0 -2 -15 -16 -32 -33 l-33 -29 29
33 c28 30 36 37 36 29z m361 -29 c1 -7 0 -19 -1 -27 -1 -8 4 -18 12 -22 9 -6
9 -9 1 -9 -6 0 -15 6 -20 13 -12 20 -15 57 -3 57 5 0 11 -6 11 -12z m-216 -64
c0 -30 -3 -54 -7 -54 -4 0 -5 -6 -2 -13 3 -8 -3 -20 -12 -28 -15 -12 -16 -11
-11 16 4 17 7 53 8 80 4 88 23 87 24 -1z m1339 20 c3 -8 2 -12 -4 -9 -6 3 -10
10 -10 16 0 14 7 11 14 -7z m-1555 -44 c-23 -27 -44 -50 -47 -50 -5 0 14 25
57 73 42 46 35 30 -10 -23z m691 40 c0 -5 -2 -10 -4 -10 -3 0 -8 5 -11 10 -3
6 -1 10 4 10 6 0 11 -4 11 -10z m-513 -15 c0 -8 -4 -12 -9 -9 -5 3 -6 10 -3
15 9 13 12 11 12 -6z m152 -60 c0 -16 0 -32 1 -35 7 -17 6 -62 -2 -66 -16 -10
-8 -26 10 -20 15 6 15 5 -2 -11 -17 -17 -31 -9 -26 13 1 4 -4 11 -12 15 -9 6
-6 9 12 9 24 1 24 2 3 10 -21 8 -23 18 -10 50 12 32 15 60 6 60 -4 0 -6 7 -2
16 9 24 24 -3 22 -41z m336 34 c-4 -5 -1 -9 4 -9 6 0 11 -7 11 -16 0 -10 -5
-12 -12 -7 -7 4 -19 8 -26 9 -21 4 -27 14 -9 14 10 0 17 7 17 16 0 8 5 12 10
9 6 -4 8 -11 5 -16z m50 -26 c-3 -14 -2 -22 3 -19 17 10 30 -18 26 -57 -5 -63
-28 -79 -39 -27 -4 17 -11 30 -17 30 -6 0 -8 -6 -5 -12 15 -41 19 -62 9 -53
-15 15 -41 95 -31 95 5 0 9 -4 9 -10 0 -5 5 -10 10 -10 7 0 7 6 1 19 -8 14 -7
20 3 24 8 3 13 14 12 24 -4 23 3 35 16 27 5 -3 7 -17 3 -31z m76 -3 c0 -3 2
-13 4 -22 2 -10 -1 -18 -6 -18 -8 0 -12 15 -6 24 1 2 -7 14 -18 26 l-20 23 23
-14 c12 -8 22 -16 23 -19z m-357 5 c3 -8 1 -15 -4 -15 -6 0 -10 7 -10 15 0 8
2 15 4 15 2 0 6 -7 10 -15z m321 -13 c-3 -3 -11 0 -18 7 -9 10 -8 11 6 5 10
-3 15 -9 12 -12z m-265 -32 c0 -6 -9 -2 -20 7 -11 10 -20 19 -20 21 0 1 9 -2
20 -8 11 -6 20 -15 20 -20z m170 19 c0 -5 -4 -7 -10 -4 -6 4 -9 -5 -8 -19 1
-15 5 -26 9 -26 4 0 9 -11 11 -25 7 -32 0 -32 -12 1 -6 14 -14 23 -19 20 -12
-8 -8 47 4 56 14 11 25 10 25 -3z m-221 -37 c0 -24 -1 -25 -9 -7 -12 28 -12
47 0 40 6 -3 10 -18 9 -33z m344 -3 c-7 -7 -8 -20 -3 -34 7 -19 6 -22 -11 -18
-10 3 -19 10 -19 16 0 11 29 47 39 47 3 0 0 -5 -6 -11z m-909 -56 c1 -25 5
-28 40 -31 25 -2 36 0 31 7 -3 6 4 21 16 33 l21 23 -6 -22 c-3 -13 -9 -33 -13
-45 -3 -13 -7 -56 -7 -97 -1 -54 -5 -75 -15 -79 -10 -3 -12 0 -8 12 4 9 2 16
-4 16 -6 0 -8 4 -5 8 3 5 -6 21 -20 37 -29 34 -26 51 7 48 23 -3 23 -2 4 8
-11 6 -25 18 -32 26 -12 15 -11 -23 1 -104 3 -18 1 -33 -4 -33 -6 0 -10 10
-10 22 0 11 -12 36 -26 55 -23 30 -25 40 -19 86 10 84 14 92 33 74 8 -9 15
-28 16 -44z m186 53 c0 -3 -4 -8 -10 -11 -5 -3 -10 -1 -10 4 0 6 5 11 10 11 6
0 10 -2 10 -4z m750 -71 c-5 -6 -7 -15 -3 -18 3 -4 2 -7 -4 -7 -6 0 -13 7 -17
15 -3 8 0 14 7 12 8 -1 11 9 10 28 -2 29 -2 29 7 6 7 -16 7 -28 0 -36z m91 25
c6 -16 15 -28 21 -27 5 1 18 -9 28 -23 22 -30 34 -80 20 -80 -9 0 -14 17 -13
47 1 8 -8 11 -23 9 -27 -5 -41 10 -38 42 1 17 -3 22 -15 17 -12 -5 -13 -3 -4
6 6 6 9 18 6 25 -3 8 -2 14 1 14 4 0 12 -13 17 -30z m-35 8 c5 -7 2 -9 -9 -5
-13 5 -14 2 -7 -16 4 -12 14 -21 22 -19 10 3 10 1 1 -9 -6 -6 -10 -17 -8 -23
3 -6 9 -24 15 -41 l12 -30 17 21 c17 21 18 21 29 4 9 -15 8 -17 -8 -13 -27 7
-39 -26 -16 -42 18 -14 5 -32 -14 -20 -5 3 -10 1 -10 -4 0 -6 5 -11 12 -11 6
0 8 -3 5 -6 -4 -4 -14 -1 -22 6 -15 12 -15 14 1 23 12 7 13 11 5 17 -7 4 -14
16 -16 26 -2 10 -4 20 -5 22 -2 1 -3 6 -4 11 -3 22 -13 19 -12 -3 1 -14 5 -28
9 -32 10 -11 9 -34 -3 -34 -5 0 -6 8 -3 18 6 15 5 15 -10 3 -16 -13 -16 -15
-1 -32 10 -11 12 -19 7 -19 -6 0 -14 7 -17 16 -3 8 -10 12 -16 9 -6 -3 -7 1
-4 9 3 9 10 16 16 16 22 0 -6 20 -30 21 l-27 2 25 4 c48 9 59 33 30 69 -10 11
-11 18 -4 21 6 2 9 15 6 28 -3 18 0 25 11 25 9 0 19 -5 23 -12z m751 -10 c-3
-8 -6 -5 -6 6 -1 11 2 17 5 13 3 -3 4 -12 1 -19z m-1123 -3 c-4 -8 -8 -15 -10
-15 -2 0 -4 7 -4 15 0 8 4 15 10 15 5 0 7 -7 4 -15z m16 -29 c0 -3 -4 -8 -10
-11 -5 -3 -10 -1 -10 4 0 6 5 11 10 11 6 0 10 -2 10 -4z m168 -21 c-3 -3 -9 2
-12 12 -6 14 -5 15 5 6 7 -7 10 -15 7 -18z m42 -3 c0 -13 7 -18 23 -17 12 2
21 8 20 14 -4 15 0 14 27 -9 12 -11 28 -17 34 -13 6 4 5 -1 -3 -10 -14 -17
-26 -24 -17 -9 2 4 -4 13 -15 20 -10 7 -19 8 -19 4 0 -5 -13 -9 -30 -9 -23 0
-30 5 -30 19 0 11 -4 16 -10 13 -5 -3 -10 -1 -10 4 0 6 7 11 15 11 8 0 15 -8
15 -18z m885 -2 c-10 -11 -21 -18 -23 -15 -3 3 3 12 14 20 27 20 30 18 9 -5z
m-1275 -2 c0 6 8 12 18 12 12 0 13 -3 5 -8 -9 -5 -10 -18 -5 -38 4 -16 7 -36
6 -44 -1 -8 -2 -21 -3 -27 0 -7 -5 -13 -10 -13 -6 0 -8 9 -6 19 3 14 -1 18
-12 14 -12 -5 -12 -7 -1 -15 11 -8 11 -9 0 -6 -8 2 -13 7 -13 11 1 4 1 31 1
60 0 37 3 48 10 37 6 -10 10 -11 10 -2z m-249 -31 c-10 -9 -11 -8 -5 6 3 10 9
15 12 12 3 -3 0 -11 -7 -18z m440 -2 c0 -5 -5 -11 -13 -13 -10 -3 -10 -1 1 6
11 8 10 11 -5 15 -16 5 -16 6 -1 4 10 -1 18 -6 18 -12z m62 -88 c9 -26 14 -47
11 -47 -5 0 -25 47 -30 69 -1 8 -6 17 -11 20 -4 3 -9 13 -11 21 -7 34 26 -16
41 -63z m986 47 c-6 -8 -17 -14 -23 -14 -6 0 -3 7 6 14 10 7 14 17 10 21 -4 5
-1 5 6 1 10 -6 10 -11 1 -22z m-549 1 c7 -9 8 -15 2 -15 -5 0 -12 7 -16 15 -3
8 -4 15 -2 15 2 0 9 -7 16 -15z m586 0 c-1 -8 -5 -17 -8 -21 -5 -4 -4 16 1 34
3 9 9 -1 7 -13z m-1137 -32 c-5 -15 -8 -32 -5 -39 3 -8 0 -16 -6 -20 -7 -5 -9
5 -4 32 3 22 7 44 8 51 1 7 5 10 9 7 5 -2 4 -17 -2 -31z m526 13 c8 -7 11 -17
7 -21 -4 -5 0 -6 9 -3 9 4 16 1 16 -7 0 -9 -7 -11 -21 -5 -12 4 -21 11 -21 16
0 5 -4 15 -8 22 -11 16 1 15 18 -2z m-925 -43 c0 -13 -3 -13 -15 -3 -8 7 -15
16 -15 21 0 5 7 6 15 3 8 -4 15 -13 15 -21z m714 11 c3 -8 2 -12 -4 -9 -6 3
-10 10 -10 16 0 14 7 11 14 -7z m826 6 c0 -5 -5 -10 -11 -10 -5 0 -7 5 -4 10
3 6 8 10 11 10 2 0 4 -4 4 -10z m-1600 -15 c0 -8 -4 -15 -10 -15 -5 0 -7 7 -4
15 4 8 8 15 10 15 2 0 4 -7 4 -15z m317 -12 c2 -26 1 -27 -7 -5 -11 27 -20 29
-15 4 2 -11 -3 -19 -10 -19 -8 0 -13 3 -11 6 2 3 6 14 9 24 10 27 32 20 34
-10z m59 -7 c2 -14 -20 -16 -33 -2 -4 4 -1 6 7 4 9 -2 14 3 12 12 -2 8 0 11 4
7 4 -4 9 -14 10 -21z m235 7 c13 -16 12 -17 -3 -4 -10 7 -18 15 -18 17 0 8 8
3 21 -13z m209 13 c0 -2 -7 -7 -16 -10 -8 -3 -12 -2 -9 4 6 10 25 14 25 6z
m-916 -22 c3 -8 2 -12 -4 -9 -6 3 -10 10 -10 16 0 14 7 11 14 -7z m1026 12 c0
-2 -8 -10 -17 -17 -16 -13 -17 -12 -4 4 13 16 21 21 21 13z"/>
<path d="M2153 3333 c9 -2 23 -2 30 0 6 3 -1 5 -18 5 -16 0 -22 -2 -12 -5z"/>
<path d="M2247 3333 c-4 -3 -7 -11 -7 -17 0 -6 5 -5 12 2 6 6 9 14 7 17 -3 3
-9 2 -12 -2z"/>
<path d="M2150 3270 c-8 -5 -10 -10 -5 -10 6 0 17 5 25 10 8 5 11 10 5 10 -5
0 -17 -5 -25 -10z"/>
<path d="M1923 3253 c15 -2 37 -2 50 0 12 2 0 4 -28 4 -27 0 -38 -2 -22 -4z"/>
<path d="M1890 3160 c-8 -5 -10 -10 -5 -10 6 0 17 5 25 10 8 5 11 10 5 10 -5
0 -17 -5 -25 -10z"/>
<path d="M1920 3145 c-33 -19 -21 -19 21 0 19 8 27 14 19 14 -8 0 -26 -6 -40
-14z"/>
<path d="M1760 3100 c-36 -8 -34 -10 13 -16 15 -1 25 1 22 7 -4 5 -2 9 4 9 5
0 12 -5 14 -10 3 -6 4 -5 3 2 -3 15 -13 17 -56 8z"/>
<path d="M1710 3080 c0 -6 7 -10 15 -10 8 0 15 2 15 4 0 2 -7 6 -15 10 -8 3
-15 1 -15 -4z"/>
<path d="M1768 3053 c6 -2 18 -2 25 0 6 3 1 5 -13 5 -14 0 -19 -2 -12 -5z"/>
<path d="M1921 2983 c-1 -12 4 -25 9 -28 12 -7 12 2 0 30 -8 19 -9 19 -9 -2z"/>
<path d="M1816 905 c4 -8 1 -15 -5 -15 -9 0 -9 -5 -1 -20 6 -11 8 -25 5 -30
-9 -15 4 -12 21 4 18 18 18 37 0 30 -10 -4 -12 2 -9 20 3 15 1 26 -6 26 -5 0
-8 -7 -5 -15z"/>
<path d="M2176 581 c-4 -5 -2 -12 3 -15 5 -4 12 -2 15 3 4 5 2 12 -3 15 -5 4
-12 2 -15 -3z"/>
<path d="M1777 448 c-11 -20 -13 -27 -4 -20 9 8 17 8 24 1 7 -7 10 -2 9 15 -2
37 -9 38 -29 4z"/>
<path d="M2024 526 c1 -8 5 -18 8 -22 4 -3 5 1 4 10 -1 8 -5 18 -8 22 -4 3 -5
-1 -4 -10z"/>
<path d="M1213 392 l-23 -17 28 -1 c15 -1 21 1 14 3 -10 4 -8 9 5 19 10 7 14
13 8 13 -5 1 -20 -7 -32 -17z"/>
<path d="M1295 381 c-3 -6 -15 -11 -26 -11 -10 0 -19 -4 -19 -9 0 -10 29 -36
31 -27 1 3 2 10 3 15 0 5 5 13 10 18 5 4 6 3 3 -3 -4 -7 -1 -17 7 -23 10 -9
13 -6 12 14 -2 28 -11 41 -21 26z"/>
<path d="M1330 295 c-7 -9 -8 -15 -2 -15 5 0 12 7 16 15 3 8 4 15 2 15 -2 0
-9 -7 -16 -15z"/>
<path d="M2115 315 c4 -11 10 -28 12 -37 3 -10 9 -18 14 -18 5 0 2 15 -7 33
-19 38 -30 50 -19 22z"/>
<path d="M2140 309 c0 -5 5 -7 10 -4 6 3 10 8 10 11 0 2 -4 4 -10 4 -5 0 -10
-5 -10 -11z"/>
<path d="M1317 129 c7 -7 15 -10 18 -7 3 3 -2 9 -12 12 -14 6 -15 5 -6 -5z"/>
<path d="M2324 188 c-4 -7 -4 -10 1 -6 4 4 13 3 20 -2 8 -7 12 -5 12 5 0 18
-23 20 -33 3z"/>
<path d="M2256 202 c-3 -5 1 -15 8 -21 11 -10 14 -9 12 3 -3 21 -13 29 -20 18z"/>
<path d="M2255 121 c-3 -5 -2 -12 3 -15 5 -3 9 1 9 9 0 17 -3 19 -12 6z"/>
<path d="M1747 153 c-10 -9 -9 -43 1 -43 4 0 9 11 10 25 2 26 0 29 -11 18z"/>
<path d="M1566 3542 c-3 -5 -8 -29 -11 -53 l-5 -44 14 50 c14 48 15 67 2 47z"/>
<path d="M2146 3510 c-22 -10 -43 -25 -48 -34 -5 -9 -14 -16 -21 -16 -8 0 -6
4 3 11 12 9 12 10 -3 5 -10 -3 -21 -6 -23 -6 -3 0 -3 -4 1 -10 3 -5 -27 -19
-67 -31 -40 -12 -76 -27 -79 -32 -4 -5 -14 -7 -23 -4 -9 4 -16 2 -16 -3 0 -38
277 70 308 120 7 11 11 20 10 19 -2 0 -21 -9 -42 -19z m-1 -20 c-3 -5 -12 -10
-18 -10 -7 0 -6 4 3 10 19 12 23 12 15 0z"/>
<path d="M1583 3455 c0 -8 4 -15 9 -15 4 0 8 5 8 11 0 6 7 8 16 5 8 -3 12 -2
9 4 -10 16 -42 12 -42 -5z"/>
<path d="M1866 3431 c-49 -17 -74 -31 -65 -35 8 -3 -4 -4 -26 -1 -27 3 -34 2
-20 -4 16 -7 17 -9 5 -13 -8 -3 -1 -3 15 0 27 4 65 19 170 67 51 23 4 15 -79
-14z"/>
<path d="M1995 3450 c-13 -5 -14 -9 -5 -9 8 0 24 4 35 9 13 5 14 9 5 9 -8 0
-24 -4 -35 -9z"/>
<path d="M1607 3426 c-4 -10 -5 -21 -2 -24 9 -9 17 6 13 25 -3 17 -4 17 -11
-1z"/>
<path d="M1642 3413 c-2 -28 -5 -31 -26 -27 -14 2 -28 0 -31 -6 -3 -5 -1 -10
4 -10 6 0 12 -10 12 -22 1 -17 2 -19 6 -5 3 12 15 17 39 17 23 0 34 5 34 15 0
8 -6 12 -14 9 -11 -4 -16 4 -19 28 l-4 33 -1 -32z"/>
<path d="M1690 3375 c0 -8 4 -15 9 -15 5 0 11 7 15 15 3 9 0 15 -9 15 -8 0
-15 -7 -15 -15z"/>
<path d="M2085 3373 c-11 -3 -29 -12 -40 -20 -19 -14 -19 -15 5 -8 29 9 80 35
65 33 -5 0 -19 -3 -30 -5z"/>
<path d="M2700 3361 c25 -4 54 -12 65 -16 16 -6 18 -5 8 5 -6 7 -36 14 -65 16
l-53 3 45 -8z"/>
<path d="M1640 3330 c-20 -12 -10 -19 14 -10 11 3 15 9 10 13 -6 3 -16 2 -24
-3z"/>
<path d="M1810 3330 c-21 -7 -21 -8 -5 -9 11 0 27 4 35 9 18 11 5 11 -30 0z"/>
<path d="M1960 3328 c-19 -6 -30 -12 -24 -14 5 -3 28 2 50 10 45 17 26 19 -26
4z"/>
<path d="M1888 3323 c7 -3 16 -2 19 1 4 3 -2 6 -13 5 -11 0 -14 -3 -6 -6z"/>
<path d="M1614 3300 c1 -9 12 -16 26 -17 21 -1 21 -1 3 3 -12 3 -24 11 -26 17
-2 7 -3 5 -3 -3z"/>
<path d="M1708 3313 c12 -2 32 -2 45 0 12 2 2 4 -23 4 -25 0 -35 -2 -22 -4z"/>
<path d="M1848 3313 c7 -3 16 -2 19 1 4 3 -2 6 -13 5 -11 0 -14 -3 -6 -6z"/>
<path d="M1748 3293 c6 -2 18 -2 25 0 6 3 1 5 -13 5 -14 0 -19 -2 -12 -5z"/>
<path d="M1830 3290 l-25 -8 25 0 c14 0 34 3 45 8 l20 9 -20 -1 c-11 0 -31 -4
-45 -8z"/>
<path d="M2760 520 c0 -5 5 -10 10 -10 6 0 10 5 10 10 0 6 -4 10 -10 10 -5 0
-10 -4 -10 -10z"/>
<path d="M2733 429 c9 -5 17 -16 17 -24 0 -8 -8 -19 -17 -24 -10 -6 -12 -11
-5 -11 6 0 12 -6 12 -14 0 -7 9 -16 20 -19 21 -5 27 7 9 19 -6 3 -9 21 -7 40
3 22 -1 35 -10 39 -24 9 -38 5 -19 -6z"/>
<path d="M2823 338 c1 -21 6 -33 11 -28 4 4 4 21 -2 37 -11 28 -11 28 -9 -9z"/>
<path d="M2795 350 c-3 -5 -1 -10 4 -10 6 0 11 5 11 10 0 6 -2 10 -4 10 -3 0
-8 -4 -11 -10z"/>
<path d="M2742 280 c0 -14 2 -19 5 -12 2 6 2 18 0 25 -3 6 -5 1 -5 -13z"/>
<path d="M2741 234 c0 -11 3 -14 6 -6 3 7 2 16 -1 19 -3 4 -6 -2 -5 -13z"/>
<path d="M2741 147 c2 -1 12 -9 22 -16 15 -12 17 -12 11 3 -3 9 -13 16 -22 16
-8 0 -13 -1 -11 -3z"/>
<path d="M2830 111 c-8 -6 -17 -8 -22 -5 -14 9 -30 -38 -23 -72 4 -25 11 -34
25 -34 24 0 25 9 5 57 -18 43 -18 44 -2 37 8 -3 20 2 27 11 14 17 12 19 -10 6z"/>
<path d="M2690 81 c5 -11 10 -33 10 -50 0 -21 5 -31 15 -31 9 0 12 6 9 15 -4
11 1 15 17 16 l24 0 -23 9 c-12 5 -27 21 -34 35 -6 14 -15 25 -20 25 -5 0 -4
-9 2 -19z"/>
<path d="M2752 79 c-7 -12 -11 -24 -7 -27 7 -8 25 17 25 36 0 17 -3 15 -18 -9z"/>
</g>
</svg>
